<svg width="45" height="45" viewBox="0 0 512 512" fill="none" xmlns="http://www.w3.org/2000/svg">
<path d="M111 504C111 504 100.698 413.689 189.44 403.613H227.413V386.12C227.413 386.12 254.125 397.593 281.173 387.4L282.027 403.613H326.4C326.4 403.613 403.673 411.328 399 504H111Z" fill="#F8C9AE"/>
<path d="M398.262 505.587H113.746H108.228L109.605 482.057C112.294 436.115 148.492 401.053 189.915 401.053H227.413V405.747H192.43C152.506 405.747 117.619 439.495 115.027 483.717L114.071 500.04H397.51L396.98 483.717C394.388 439.495 359.501 405.747 319.578 405.747H284.16V401.053H321.839C363.263 401.053 399.46 436.115 402.149 482.057L403.527 505.587H398.262Z" fill="#3B434F"/>
<path d="M230.4 384.146V410.461C230.4 424.117 241.479 435.187 255.147 435.187C268.814 435.187 279.893 424.117 279.893 410.461V384.689C281.329 384.252 282.752 383.777 284.16 383.264V410.64C284.16 426.789 271.075 439.88 254.933 439.88C238.792 439.88 225.707 426.789 225.707 410.64V382.454C227.253 383.065 228.818 383.627 230.4 384.146Z" fill="#3B434F"/>
<path d="M331.72 457.489L319.635 482.696C319.023 483.971 317.494 484.509 316.219 483.898C314.945 483.287 314.407 481.758 315.018 480.483L326.69 456.138L317.57 440.341C316.863 439.117 317.282 437.551 318.507 436.844C319.731 436.137 321.297 436.557 322.004 437.781L331.817 454.779C332.323 455.654 332.249 456.703 331.72 457.489Z" fill="#3B434F"/>
<path d="M178.362 457.514L190.513 482.798C191.127 484.077 192.664 484.617 193.946 484.004C195.228 483.391 195.769 481.857 195.154 480.578L183.42 456.158L192.589 440.313C193.299 439.085 192.878 437.515 191.647 436.805C190.416 436.096 188.842 436.517 188.131 437.745L178.265 454.795C177.756 455.673 177.83 456.726 178.362 457.514Z" fill="#3B434F"/>
<path d="M225.707 400.2H230.4V503.88H225.707V400.2Z" fill="#3B434F"/>
<path d="M279.893 401.053H284.587V504.733H279.893V401.053Z" fill="#3B434F"/>
<path d="M256.215 116.467C309.293 116.467 351.187 166.068 349.825 225.665L348.377 289.006C347.094 345.152 305.845 389.533 256.215 389.533C206.584 389.533 165.336 345.152 164.052 289.006L162.605 225.665C161.242 166.068 203.137 116.467 256.215 116.467Z" fill="white"/>
<path fill-rule="evenodd" clip-rule="evenodd" d="M354.089 223.701L352.572 289.616C351.228 348.043 308.006 394.227 256.001 394.227C203.996 394.227 160.775 348.043 159.43 289.616L157.913 223.701C156.486 161.683 200.384 110.067 256.001 110.067C311.618 110.067 355.517 161.683 354.089 223.701ZM255.788 116.893C203.436 116.893 162.114 166.107 163.458 225.238L164.886 288.085C166.152 343.793 206.836 387.827 255.788 387.827C304.741 387.827 345.425 343.793 346.691 288.085L348.119 225.238C349.462 166.107 308.141 116.893 255.788 116.893Z" fill="#3B434F"/>
<path opacity="0.058824" fill-rule="evenodd" clip-rule="evenodd" d="M351.427 234.653L347.16 304.627C347.16 304.627 328.21 385.398 255 394.961V395.08C254.856 395.062 254.717 395.039 254.573 395.021C254.43 395.039 254.291 395.062 254.147 395.08V394.961C180.937 385.398 161.987 304.627 161.987 304.627L157.72 234.653C176.718 318.98 192.707 324.253 192.707 324.253C189.471 298.682 215.747 301.213 215.747 301.213C231.761 303.918 244.509 305.226 254.573 305.714C264.638 305.226 277.386 303.918 293.4 301.213C293.4 301.213 319.676 298.682 316.44 324.253C316.44 324.253 332.429 318.98 351.427 234.653ZM303.983 332.926C302.741 317.885 293.671 319.16 293.671 319.16C277.546 323.905 264.889 326.541 255 327.88V327.782C245.181 326.453 232.612 323.839 216.6 319.133C216.6 319.133 207.593 317.868 206.36 332.787C206.36 332.787 202.743 347.733 214.893 354.12L230.253 370.333C230.253 370.333 240.75 373.66 240.493 360.947C240.493 360.947 239.425 351.465 245.613 349.853H255V350.134H264.453C270.685 351.759 269.609 361.319 269.609 361.319C269.351 374.138 279.921 370.783 279.921 370.783L295.39 354.436C307.625 347.997 303.983 332.926 303.983 332.926Z" fill="#3B434F"/>
<path d="M245.76 355.827H266.24C267.183 355.827 267.947 356.591 267.947 357.533C267.947 358.476 267.183 359.24 266.24 359.24H245.76C244.817 359.24 244.053 358.476 244.053 357.533C244.053 356.591 244.817 355.827 245.76 355.827Z" fill="#3B434F"/>
<path d="M227.838 335.406L230.215 332.08C237.855 336.45 246.932 338.984 256.67 338.984C266.517 338.984 275.687 336.392 283.379 331.932L285.868 335.368C277.499 340.213 267.527 343.027 256.82 343.027C246.142 343.027 236.193 340.228 227.838 335.406Z" fill="#3B434F"/>
<path d="M157.807 233.313C157.795 233.314 156.76 232.487 154.804 231.871C153.826 231.564 152.611 231.311 151.226 231.248C150.88 231.233 150.524 231.229 150.16 231.24C149.796 231.25 149.423 231.274 149.045 231.315C148.287 231.396 147.505 231.541 146.718 231.767C143.567 232.673 140.353 234.875 138.465 239.419C137.517 241.691 136.892 244.55 136.727 248.126C136.685 249.02 136.673 249.959 136.691 250.945C136.709 251.931 136.758 252.963 136.84 254.045C137.003 256.209 137.298 258.568 137.738 261.14C137.728 261.137 137.328 268.91 140.106 277.841C142.719 286.573 148.992 297.299 160.573 300.364C159.241 278.185 159.2 255.59 157.807 233.313Z" fill="#F7FBFB"/>
<path d="M159.128 234.207C159.128 234.207 138.951 227.956 139.662 248.698C139.662 248.698 142.665 278.775 143.97 281.547C143.97 281.547 151.894 299.059 164.971 299.835C177.752 300.594 164.971 299.835 164.971 299.835L165.13 305.48C165.13 305.48 142.145 302.533 137.706 276.045L134.202 251.983C134.202 251.983 131.481 220.138 157.871 228.235C183.58 236.123 157.871 228.235 157.871 228.235L159.128 234.207Z" fill="#3B434F"/>
<path d="M152.468 275.995C152.468 275.995 151.339 276.848 150.369 276.848C149.399 276.848 148.284 275.995 148.284 275.995L146.202 255.012C146.202 255.012 149.074 244.679 161.265 250.139L161.554 256.139C161.554 256.139 150.858 252.346 151.079 257.069C151.292 261.616 152.468 275.995 152.468 275.995Z" fill="#3B434F"/>
<path d="M353.813 233.362C353.825 233.363 354.866 232.536 356.83 231.921C357.812 231.614 359.032 231.361 360.423 231.299C360.771 231.283 361.128 231.28 361.494 231.29C361.86 231.3 362.234 231.325 362.614 231.365C363.375 231.446 364.16 231.591 364.951 231.817C368.116 232.722 371.344 234.923 373.241 239.464C374.192 241.735 374.82 244.591 374.986 248.165C375.028 249.058 375.041 249.997 375.022 250.982C375.004 251.967 374.955 252.999 374.873 254.08C374.709 256.242 374.412 258.6 373.971 261.17C373.98 261.167 374.383 268.935 371.592 277.86C368.968 286.586 362.668 297.305 351.035 300.368C352.373 278.204 352.415 255.624 353.813 233.362Z" fill="#F7FBFB"/>
<path d="M352.483 234.256C352.483 234.256 372.747 228.008 372.034 248.737C372.034 248.737 369.017 278.793 367.707 281.564C367.707 281.564 359.748 299.064 346.614 299.839C333.777 300.597 346.614 299.839 346.614 299.839L346.455 305.48C346.455 305.48 369.54 302.535 373.999 276.065L377.518 252.019C377.518 252.019 380.25 220.196 353.745 228.287C327.923 236.17 353.745 228.287 353.745 228.287L352.483 234.256Z" fill="#3B434F"/>
<path d="M359.171 276.015C359.171 276.015 360.305 276.868 361.28 276.868C362.254 276.868 363.374 276.015 363.374 276.015L365.466 255.046C365.466 255.046 362.58 244.72 350.336 250.177L350.046 256.173C350.046 256.173 360.789 252.382 360.567 257.102C360.353 261.646 359.171 276.015 359.171 276.015Z" fill="#3B434F"/>
<path fill-rule="evenodd" clip-rule="evenodd" d="M263.893 274.333C264.391 274.333 264.889 274.333 265.387 274.333C268.474 278.526 269.73 284.97 271.36 290.547C271.865 292.275 271.375 295.298 270.933 296.52C269.316 300.996 264.236 300.915 260.053 302.92C258.93 303.458 258.095 304.388 256.64 304.627C255.692 303.791 254.547 303.627 254.08 302.28C252.928 300.693 254.413 299.702 255.573 299.08C257.68 297.95 264.181 296.837 264.96 294.813C265.923 293.718 265.283 290.423 264.96 289.267C264.133 286.305 263.737 283.832 262.613 281.16C261.867 279.385 260.557 277.514 261.333 275.4C261.977 275.124 263.367 274.81 263.893 274.333Z" fill="#3B434F"/>
<path d="M209.067 238.067C213.78 238.067 217.6 241.887 217.6 246.6C217.6 251.313 213.78 255.133 209.067 255.133C204.354 255.133 200.533 251.313 200.533 246.6C200.533 241.887 204.354 238.067 209.067 238.067Z" fill="#3B434F"/>
<path d="M303.787 238.067C308.499 238.067 312.32 241.887 312.32 246.6C312.32 251.313 308.499 255.133 303.787 255.133C299.074 255.133 295.253 251.313 295.253 246.6C295.253 241.887 299.074 238.067 303.787 238.067Z" fill="#3B434F"/>
<path d="M307.627 269.64C313.518 269.64 318.293 274.416 318.293 280.307C318.293 286.198 313.518 290.973 307.627 290.973C301.736 290.973 296.96 286.198 296.96 280.307C296.96 274.416 301.736 269.64 307.627 269.64Z" fill="#EDF1F1"/>
<path d="M204.373 269.64C210.264 269.64 215.04 274.416 215.04 280.307C215.04 286.198 210.264 290.973 204.373 290.973C198.482 290.973 193.707 286.198 193.707 280.307C193.707 274.416 198.482 269.64 204.373 269.64Z" fill="#EDF1F1"/>
<path fill-rule="evenodd" clip-rule="evenodd" d="M341.333 230.387V261.96C341.333 269.676 333.807 281.715 321.543 282.405C319.741 282.319 283.307 282.44 283.307 282.44C266.928 282.44 263.68 262.813 263.68 262.813V241.48H248.32V262.813C248.32 262.813 245.072 282.44 228.693 282.44C228.693 282.44 192.259 282.319 190.457 282.405C178.193 281.715 170.667 269.676 170.667 261.96V230.387H157.013V221.853H236.373C236.373 221.853 248.32 223.783 248.32 232.093H263.68C263.68 223.783 275.627 221.853 275.627 221.853H354.987V230.387H341.333ZM239.787 234.653C239.787 231.612 236.373 231.24 236.373 231.24H179.2V261.107C179.2 270.413 192 273.907 192 273.907H226.987C239.024 273.907 239.787 261.107 239.787 261.107C239.787 261.107 239.787 237.695 239.787 234.653ZM332.8 231.24H275.627C275.627 231.24 272.213 231.612 272.213 234.653C272.213 237.695 272.213 261.107 272.213 261.107C272.213 261.107 272.976 273.907 285.013 273.907H320C320 273.907 332.8 270.413 332.8 261.107V231.24ZM320.853 282.44C321.086 282.435 321.313 282.418 321.543 282.405C321.736 282.414 321.542 282.426 320.853 282.44ZM190.457 282.405C190.687 282.418 190.914 282.435 191.147 282.44C190.458 282.426 190.264 282.414 190.457 282.405Z" fill="#EBBF96"/>
<path d="M160.751 229.533C160.751 229.533 164.043 178.137 195.761 155.293C195.761 155.293 241.557 186.447 313.598 155.293C313.598 155.293 345.463 169.807 350.316 229.533H352.026C352.026 229.533 361.15 161.12 337.507 133.96C337.507 133.96 331.684 113.16 300.79 98.12L289.689 104.947C289.689 104.947 282.231 95.82 262.365 84.4667C262.365 84.4667 247.672 91.0133 240.163 102.387L228.209 94.7067C228.209 94.7067 211.504 102.353 201.738 116.04L183.806 118.6L174.413 135.667C174.413 135.667 151.992 153.73 159.04 227.827L160.751 229.533Z" fill="#9EA0A4"/>
<path fill-rule="evenodd" clip-rule="evenodd" d="M355.44 229.533L347.329 229.107C342.476 169.38 313.598 158.707 313.598 158.707C241.557 189.86 195.761 158.28 195.761 158.28C168.058 181.913 163.738 229.96 163.738 229.96L156.48 227.827C149.432 153.73 171.853 134.387 171.853 134.387L182.099 115.613L200.885 113.053C210.651 99.3667 228.635 90.8667 228.635 90.8667L239.787 98.12C247.295 86.7467 262.827 81.0533 262.827 81.0533C282.693 92.4066 290.133 101.107 290.133 101.107L301.643 94.7067C332.537 109.747 340.921 133.533 340.921 133.533C364.563 160.693 355.44 229.533 355.44 229.533ZM335.36 135.24C335.36 135.24 331.694 116.573 300.8 101.533L289.28 108.36C289.28 108.36 281.84 99.2333 261.973 87.88C261.973 87.88 248.575 94.8533 241.067 106.227L228.267 98.12C228.267 98.12 212.86 105.34 203.093 119.027L186.027 121.587L177.067 137.8C177.067 137.8 158.456 152.014 160.427 209.48L160.853 209.053C160.853 209.053 166.774 173.332 195.761 151.453C195.761 151.453 242.837 183.46 314.878 152.307C314.878 152.307 341.493 164.823 350.72 209.48C350.72 209.48 356.197 163.549 335.36 135.24Z" fill="#3B434F"/>
<path d="M243 451L255 438L268 451L261 458L272 503H238L250 458L243 451Z" fill="#3B434F"/>
<path fill-rule="evenodd" clip-rule="evenodd" d="M269.699 503.69L257.605 458.554L260.12 457.8L261.787 456.028L274.579 503.766L269.699 503.69ZM235.585 503.157L248.211 456.248L249.027 456.947L251.587 458.653L252.431 458.738L240.454 503.233L235.585 503.157Z" fill="#3B434F"/>
<path fill-rule="evenodd" clip-rule="evenodd" d="M284.146 463.788L280.827 467.106L267.914 454.193C265.422 458.151 261.022 460.787 256 460.787C250.775 460.787 246.224 457.934 243.795 453.707L230.315 467.186L226.988 463.859L253.527 437.32L255.602 435.396L257.678 437.32L284.146 463.788ZM246.406 451.096C248.107 454.561 251.666 456.947 255.787 456.947C259.814 456.947 263.301 454.663 265.046 451.325L255.611 441.891L246.406 451.096Z" fill="#3B434F"/>
<path opacity="0.2" fill-rule="evenodd" clip-rule="evenodd" d="M257.139 103.673C257.767 104.14 257.456 104.572 257.32 105.156C257.116 106.027 256.875 106.889 256.739 107.759C256.533 109.076 256.346 110.395 256.292 111.694C256.246 112.787 256.266 113.876 256.285 114.958C256.296 115.583 256.403 116.207 256.418 116.833C256.424 117.083 256.492 117.333 256.499 117.588C256.515 117.657 256.53 117.726 256.545 117.794C256.554 118.114 256.638 118.419 256.647 118.737C256.699 119.026 256.751 119.315 256.803 119.603C256.88 120.061 256.917 120.538 257.057 120.984C257.072 121.098 257.088 121.212 257.103 121.326C257.214 121.681 257.25 122.046 257.362 122.401C257.37 122.471 257.378 122.542 257.386 122.612C257.548 123.124 257.621 123.663 257.783 124.172C258.046 124.999 258.259 125.829 258.549 126.653C258.741 127.2 258.906 127.773 259.1 128.324C259.443 129.303 259.863 130.259 260.241 131.228C260.471 131.818 260.78 132.363 261.026 132.95C261.724 134.611 262.62 136.244 263.477 137.873C263.754 138.399 264.058 138.883 264.365 139.397C264.561 139.725 264.764 140.092 264.945 140.43C265.045 140.617 265.17 140.758 265.279 140.939C265.514 141.333 265.769 141.756 266.001 142.152C266.216 142.519 266.458 142.832 266.694 143.189C266.95 143.574 267.202 144.007 267.461 144.394C267.911 145.066 268.387 145.716 268.833 146.38C269.295 147.07 269.815 147.681 270.305 148.361C271.254 149.678 272.364 150.942 273.387 152.265C273.694 152.661 274.06 153.007 274.366 153.39C274.519 153.581 274.775 153.748 274.878 153.949C274.92 154.03 274.944 154.156 274.973 154.249C275.021 154.398 275.008 154.582 275.01 154.74C275.014 154.992 275.026 155.248 274.982 155.512C274.936 155.786 274.762 156.087 274.649 156.358C274.558 156.575 274.332 156.766 274.204 156.872C274.097 156.961 274.052 157.043 273.942 157.129C273.657 157.354 273.334 157.538 273.021 157.632C272.697 157.729 272.279 157.438 272.023 157.131C271.575 156.594 271.015 156.101 270.585 155.563C270.494 155.448 270.392 155.397 270.301 155.282C269.805 154.655 269.196 154.064 268.706 153.447C268.594 153.306 268.472 153.227 268.363 153.086C267.983 152.59 267.536 152.143 267.15 151.638C266.181 150.371 265.136 149.147 264.26 147.871C264.055 147.573 263.835 147.337 263.635 147.038C262.216 144.918 260.792 142.834 259.655 140.674C259.356 140.106 259.025 139.589 258.745 139.018C257.95 137.399 257.209 135.78 256.528 134.146C256.439 133.932 256.374 133.692 256.292 133.474C255.919 132.494 255.582 131.525 255.247 130.542C254.91 129.551 254.718 128.515 254.402 127.521C254.336 127.311 254.315 127.084 254.248 126.869C254.239 126.791 254.229 126.714 254.22 126.636C254.147 126.403 254.139 126.155 254.068 125.928C253.896 125.382 253.843 124.791 253.749 124.23C253.661 123.701 253.54 123.159 253.525 122.619C253.505 122.521 253.484 122.423 253.464 122.324C253.454 121.973 253.366 121.627 253.357 121.281C253.342 120.677 253.246 120.075 253.235 119.472C253.221 118.722 253.192 117.97 253.196 117.22C253.201 116.469 253.263 115.735 253.306 114.978C253.424 112.926 253.799 110.864 254.295 108.739C254.474 107.969 254.763 107.215 255.005 106.443C255.173 105.911 255.436 105.398 255.623 104.872C255.672 104.735 255.748 104.654 255.801 104.516C255.913 104.219 256.061 103.854 256.335 103.659C256.458 103.572 256.74 103.526 256.884 103.568C256.985 103.598 257.049 103.676 257.139 103.673ZM237.116 118.381C237.57 118.71 237.535 119.192 237.546 119.597C237.557 120.018 237.678 120.437 237.689 120.861C237.738 121.154 237.788 121.447 237.837 121.74C237.843 121.977 237.903 122.202 237.942 122.434C237.982 122.672 237.999 122.912 238.072 123.146C238.116 123.41 238.16 123.673 238.205 123.937C238.277 124.169 238.286 124.417 238.357 124.646C238.579 125.351 238.663 126.1 238.888 126.804C239.127 127.551 239.301 128.324 239.56 129.064C239.9 130.034 240.232 131.01 240.601 131.974C240.79 132.467 241.015 132.928 241.216 133.419C241.37 133.795 241.516 134.204 241.691 134.571C242.419 136.096 243.17 137.619 243.97 139.139C244.603 140.343 245.359 141.491 246.053 142.678C246.267 143.044 246.509 143.359 246.747 143.715C247.282 144.519 247.852 145.356 248.401 146.173C248.919 146.946 249.542 147.667 250.088 148.423C250.177 148.547 250.28 148.614 250.366 148.738C250.643 149.137 251.005 149.522 251.309 149.915C251.462 150.112 251.656 150.249 251.795 150.455C252.099 150.906 252.289 151.747 252.144 152.271C251.893 153.18 251.016 153.791 250.348 154.025C250.147 154.096 249.833 154.224 249.614 154.158C249.269 154.055 249.049 153.748 248.848 153.495C248.587 153.167 248.284 152.929 248.032 152.603C247.566 151.998 247.018 151.458 246.552 150.849C245.577 149.573 244.578 148.339 243.712 147.04C241.707 144.034 240.042 141 238.745 137.882C238.206 136.588 237.772 135.253 237.338 133.937C237.184 133.469 237.099 132.967 236.951 132.5C236.747 131.859 236.657 131.198 236.457 130.561C236.446 130.476 236.436 130.391 236.425 130.306C236.393 130.164 236.345 130.026 236.321 129.883C236.304 129.762 236.287 129.64 236.271 129.519C236.195 129.278 236.178 129.03 236.137 128.784C236.097 128.546 236.035 128.313 236.028 128.069C235.998 127.912 235.968 127.755 235.938 127.598C235.92 126.958 235.766 126.331 235.753 125.686C235.75 125.534 235.702 125.373 235.698 125.221C235.683 124.605 235.622 123.987 235.625 123.371C235.628 122.669 235.622 121.955 235.666 121.252C235.683 120.976 235.731 120.715 235.744 120.438C235.757 120.134 235.811 119.842 235.851 119.528C235.875 119.342 235.875 119.116 235.931 118.928C235.988 118.736 236.184 118.427 236.365 118.348C236.488 118.294 236.726 118.24 236.861 118.277C236.962 118.305 237.025 118.384 237.116 118.381ZM221.816 121.57C222.326 121.945 222.185 122.417 222.181 122.876C222.176 123.614 222.25 124.351 222.269 125.086C222.284 125.671 222.434 126.253 222.45 126.84C222.485 127.026 222.52 127.212 222.555 127.398C222.564 127.723 222.634 128.142 222.731 128.453C222.74 128.53 222.75 128.608 222.759 128.685C222.789 128.865 222.827 129.042 222.882 129.218C222.895 129.318 222.908 129.417 222.921 129.517C223.052 129.935 223.093 130.384 223.226 130.798C223.544 131.791 223.798 132.805 224.146 133.796C224.9 135.944 225.934 138.025 227.034 140.115C227.393 140.798 227.841 141.433 228.204 142.112C228.359 142.401 228.562 142.636 228.734 142.916C229.203 143.681 229.748 144.445 230.258 145.204C230.964 146.254 231.825 147.211 232.576 148.252C232.839 148.617 233.171 148.934 233.426 149.286C233.654 149.598 233.948 149.833 234.191 150.141C234.673 150.752 235.28 151.334 235.791 151.942C236.086 152.294 236.437 152.578 236.723 152.917C237.042 153.297 237.443 153.6 237.757 153.965C237.836 154.035 237.916 154.105 237.995 154.174C238.315 154.554 238.763 154.889 239.093 155.268C239.234 155.43 239.401 155.506 239.544 155.668C240.007 156.195 240.661 156.622 241.137 157.154C241.273 157.306 241.454 157.409 241.575 157.545C241.626 157.581 241.678 157.618 241.729 157.655C241.893 157.838 242.149 158.005 242.316 158.19C242.371 158.229 242.427 158.269 242.482 158.309C242.754 158.611 243.174 158.85 243.448 159.154C243.521 159.206 243.594 159.258 243.666 159.31C244.017 159.697 244.572 159.974 244.927 160.365C245.087 160.486 245.246 160.606 245.406 160.726C245.484 160.812 245.652 160.886 245.743 160.987C245.985 161.253 246.393 161.462 246.656 161.716C246.811 161.866 247.055 161.97 247.186 162.114C247.301 162.241 247.511 162.326 247.613 162.438C247.946 162.677 248.28 162.915 248.613 163.153C249.403 163.717 250.19 164.246 250.954 164.787C251.316 165.043 251.765 165.244 251.988 165.564C252.113 165.745 252.164 166.004 252.23 166.201C252.379 166.645 252.44 167.172 252.315 167.655C252.277 167.802 252.2 167.902 252.145 168.056C252.057 168.303 251.909 168.686 251.646 168.918C251.474 169.068 251.296 169.271 251.106 169.402C250.813 169.604 250.494 169.496 250.137 169.348C250.022 169.273 249.908 169.198 249.794 169.123C249.246 168.888 248.735 168.384 248.185 168.147C248.079 168.101 247.968 167.987 247.881 167.949C247.698 167.825 247.515 167.701 247.333 167.577C247.132 167.49 246.951 167.279 246.724 167.181C246.534 167.099 246.34 166.945 246.154 166.812C246.086 166.764 246.017 166.715 245.949 166.666C245.766 166.586 245.55 166.419 245.379 166.297C245.131 166.12 244.883 165.943 244.635 165.766C244.368 165.65 244.073 165.384 243.817 165.201C243.606 165.05 243.319 164.887 243.159 164.712C243.014 164.608 242.869 164.504 242.723 164.4C242.42 164.183 242.12 163.969 241.856 163.742C241.711 163.638 241.565 163.534 241.42 163.43C241.21 163.198 240.845 163.022 240.636 162.792C240.537 162.722 240.439 162.652 240.341 162.581C240.188 162.413 239.925 162.266 239.774 162.099C239.689 162.038 239.603 161.977 239.518 161.916C239.402 161.788 239.195 161.654 239.079 161.526C239.011 161.477 238.943 161.428 238.874 161.379C238.474 160.935 237.887 160.599 237.496 160.162C237.374 160.062 237.251 159.962 237.129 159.862C236.623 159.293 235.94 158.836 235.452 158.276C235.319 158.124 235.17 158.055 235.039 157.904C234.588 157.38 234.013 156.913 233.578 156.396C233.507 156.311 233.437 156.291 233.366 156.206C233.161 155.96 232.897 155.706 232.698 155.458C232.606 155.342 232.506 155.294 232.414 155.178C231.727 154.311 230.92 153.537 230.254 152.668C229.076 151.127 227.847 149.624 226.915 148.038C226.704 147.679 226.453 147.378 226.248 147.02C225.885 146.385 225.49 145.76 225.149 145.113C224.616 144.099 224.117 143.077 223.632 142.056C223.29 141.338 223.02 140.565 222.74 139.832C222.51 139.231 222.29 138.647 222.079 138.045C221.871 137.453 221.722 136.837 221.528 136.239C221.331 135.631 221.25 134.986 221.058 134.375C220.985 134.143 220.992 133.85 220.92 133.619C220.741 133.049 220.698 132.429 220.6 131.843C220.181 129.341 220.137 126.779 220.321 124.178C220.363 123.577 220.488 123.008 220.587 122.395C220.632 122.115 220.724 121.76 221.033 121.553C221.132 121.487 221.446 121.435 221.561 121.466C221.655 121.491 221.729 121.572 221.816 121.57Z" fill="#3B434F"/>
</svg>
