<svg width="45" height="45" viewBox="0 0 512 512" fill="none" xmlns="http://www.w3.org/2000/svg">
<path d="M127.086 438.505C127.086 438.505 145.209 311.777 138.594 252.362C131.937 192.576 150.686 93.0667 268.742 93.0667C372.859 93.0667 384.488 206.98 382.01 228.017C379.251 251.435 358.387 399.159 382.407 450.808C406.161 501.889 305.57 481.293 305.57 481.293L170.577 478.543L127.086 438.505Z" fill="#3B434F"/>
<path d="M114.36 502C114.36 502 107.745 412.012 192.44 403.613H230.413V386.12C230.413 386.12 257.125 397.593 284.173 387.4L285.027 403.613H329.4C329.4 403.613 405.385 406.598 401.933 502.853L114.36 502Z" fill="white"/>
<path d="M114 504C114 504 103.698 413.689 192.44 403.613H230.413V386.12C230.413 386.12 257.125 397.593 284.173 387.4L285.027 403.613H329.4C329.4 403.613 406.673 411.328 402 504H114Z" fill="#F8C9AE"/>
<path d="M401.262 505.587H116.746H111.228L112.605 482.057C115.294 436.115 151.492 401.053 192.915 401.053H224.44V405.747H195.43C155.506 405.747 120.619 439.495 118.027 483.717L117.071 500.04H400.51L399.98 483.717C397.388 439.495 362.501 405.747 322.578 405.747H283.747V401.053H324.839C366.263 401.053 402.46 436.115 405.149 482.057L406.527 505.587H401.262Z" fill="#3B434F"/>
<path d="M234.68 384.146V410.461C234.68 424.117 245.759 435.187 259.427 435.187C273.094 435.187 284.173 424.117 284.173 410.461V384.689C285.609 384.252 287.032 383.777 288.44 383.264V410.64C288.44 426.789 275.355 439.88 259.213 439.88C243.072 439.88 229.987 426.789 229.987 410.64V382.454C231.533 383.065 233.098 383.627 234.68 384.146Z" fill="#3B434F"/>
<path d="M229.773 434.76C231.305 434.76 232.547 436.002 232.547 437.533V479.347C232.547 480.878 231.305 482.12 229.773 482.12C228.242 482.12 227 480.878 227 479.347V437.533C227 436.002 228.242 434.76 229.773 434.76Z" fill="#3B434F"/>
<path d="M288.013 434.333C289.663 434.333 291 435.671 291 437.32V463.347C291 464.996 289.663 466.333 288.013 466.333C286.364 466.333 285.027 464.996 285.027 463.347V437.32C285.027 435.671 286.364 434.333 288.013 434.333Z" fill="#3B434F"/>
<path d="M229.773 479.133C230.598 479.133 231.267 479.802 231.267 480.627V491.293C231.267 492.118 230.598 492.787 229.773 492.787C228.949 492.787 228.28 492.118 228.28 491.293V480.627C228.28 479.802 228.949 479.133 229.773 479.133Z" fill="#3B434F"/>
<path d="M288.227 463.347C289.051 463.347 289.72 464.015 289.72 464.84V475.507C289.72 476.331 289.051 477 288.227 477C287.402 477 286.733 476.331 286.733 475.507V464.84C286.733 464.015 287.402 463.347 288.227 463.347Z" fill="#3B434F"/>
<path d="M213.765 373.646L186.742 379.851C186.742 379.851 153.649 387.347 175.666 409.651C197.682 431.954 254.307 435.893 254.307 435.893C254.307 435.893 239.335 428.802 232.973 418.827L230.84 382.987L213.765 373.646Z" fill="#F5F3EF"/>
<path fill-rule="evenodd" clip-rule="evenodd" d="M255.16 438.027C253.483 440.149 206.333 438.69 173.667 410.293C150.014 389.733 185.613 377.867 185.613 377.867L211.64 371.893L234.253 383.413L235.96 417.973C245.479 432.9 257.859 434.61 255.16 438.027ZM231.693 419.68L229.133 383.413L215.48 375.733L189.453 382.133C189.453 382.133 157.928 388.598 177.933 407.307C199.523 427.497 239.462 432.916 243.64 432.48C247.971 432.029 241.213 434.606 231.693 419.68Z" fill="#3B434F"/>
<path d="M305.059 374.651L332.099 380.875C332.099 380.875 365.212 388.394 343.182 410.764C321.152 433.134 264.494 437.085 264.494 437.085C264.494 437.085 279.474 429.973 285.84 419.967L287.975 384.02L305.059 374.651Z" fill="#F5F3EF"/>
<path fill-rule="evenodd" clip-rule="evenodd" d="M263.64 438.798C265.318 440.927 312.496 439.463 345.182 410.982C368.849 390.359 333.228 378.458 333.228 378.458L307.186 372.467L284.559 384.021L282.852 418.685C273.327 433.656 260.939 435.371 263.64 438.798ZM287.121 420.396L289.682 384.021L303.344 376.318L329.386 382.737C329.386 382.737 360.929 389.221 340.913 407.986C319.311 428.237 279.348 433.672 275.167 433.235C270.834 432.782 277.596 435.367 287.121 420.396Z" fill="#3B434F"/>
<path d="M259.215 116.467C312.293 116.467 354.187 166.068 352.825 225.665L351.377 289.006C350.094 345.152 308.845 389.533 259.215 389.533C209.584 389.533 168.336 345.152 167.052 289.006L165.605 225.665C164.242 166.068 206.137 116.467 259.215 116.467Z" fill="white"/>
<path fill-rule="evenodd" clip-rule="evenodd" d="M357.089 223.701L355.572 289.616C354.228 348.043 311.006 394.227 259.001 394.227C206.996 394.227 163.775 348.043 162.43 289.616L160.913 223.701C159.486 161.683 203.384 110.067 259.001 110.067C314.618 110.067 358.517 161.683 357.089 223.701ZM258.788 116.893C206.436 116.893 165.114 166.107 166.458 225.238L167.886 288.085C169.152 343.793 209.836 387.827 258.788 387.827C307.741 387.827 348.425 343.793 349.691 288.085L351.119 225.238C352.462 166.107 311.141 116.893 258.788 116.893Z" fill="#3B434F"/>
<path d="M305.08 327.326C297.325 334.06 279.808 340.467 259.427 340.467C239.045 340.467 221.529 334.06 213.773 327.326C213.773 327.326 212.98 325.143 214.144 323.978C215.33 322.793 217.187 323.051 217.187 323.051C224.934 329.789 239.038 335.347 259.427 335.347C279.816 335.347 293.92 329.789 301.667 323.051C301.667 323.051 303.562 322.347 304.482 323.267C306.255 325.041 305.08 327.326 305.08 327.326Z" fill="#3B434F"/>
<path d="M245.347 350.707H272.653V354.973H245.347V350.707Z" fill="#3B434F"/>
<path d="M159.807 233.313C159.795 233.314 158.76 232.487 156.804 231.871C155.826 231.564 154.611 231.311 153.226 231.248C152.88 231.233 152.524 231.229 152.16 231.24C151.796 231.25 151.423 231.274 151.045 231.315C150.287 231.396 149.505 231.541 148.718 231.767C145.567 232.673 142.353 234.875 140.465 239.419C139.517 241.691 138.892 244.55 138.727 248.126C138.685 249.02 138.673 249.959 138.691 250.945C138.709 251.931 138.758 252.963 138.84 254.045C139.003 256.209 139.298 258.568 139.738 261.14C139.728 261.137 139.328 268.91 142.106 277.841C144.719 286.573 150.992 297.299 162.573 300.364C161.241 278.185 161.2 255.59 159.807 233.313Z" fill="white"/>
<path d="M162.128 234.207C162.128 234.207 141.951 227.956 142.662 248.698C142.662 248.698 145.665 278.775 146.97 281.547C146.97 281.547 154.894 299.059 167.971 299.835C180.752 300.594 167.971 299.835 167.971 299.835L168.13 305.48C168.13 305.48 145.145 302.533 140.706 276.045L137.202 251.983C137.202 251.983 134.481 220.138 160.871 228.235C186.58 236.123 160.871 228.235 160.871 228.235L162.128 234.207Z" fill="#3B434F"/>
<path d="M155.468 275.995C155.468 275.995 154.339 276.848 153.369 276.848C152.399 276.848 151.284 275.995 151.284 275.995L149.202 255.012C149.202 255.012 152.074 244.679 164.265 250.139L164.554 256.139C164.554 256.139 153.858 252.346 154.079 257.069C154.292 261.616 155.468 275.995 155.468 275.995Z" fill="#3B434F"/>
<path d="M356.813 233.362C356.825 233.363 357.866 232.536 359.83 231.921C360.812 231.614 362.032 231.361 363.423 231.299C363.771 231.283 364.128 231.28 364.494 231.29C364.86 231.3 365.234 231.325 365.614 231.365C366.375 231.446 367.16 231.591 367.951 231.817C371.116 232.722 374.344 234.923 376.241 239.464C377.192 241.735 377.82 244.591 377.986 248.165C378.028 249.058 378.041 249.997 378.022 250.982C378.004 251.967 377.955 252.999 377.873 254.08C377.709 256.242 377.412 258.6 376.971 261.17C376.98 261.167 377.383 268.935 374.592 277.86C371.968 286.586 365.668 297.305 354.035 300.368C355.373 278.204 355.415 255.624 356.813 233.362Z" fill="white"/>
<path d="M355.483 234.256C355.483 234.256 375.747 228.008 375.034 248.737C375.034 248.737 372.017 278.793 370.707 281.564C370.707 281.564 362.748 299.064 349.614 299.839C336.777 300.597 349.614 299.839 349.614 299.839L349.455 305.48C349.455 305.48 372.54 302.535 376.999 276.065L380.518 252.019C380.518 252.019 383.25 220.196 356.745 228.287C330.923 236.17 356.745 228.287 356.745 228.287L355.483 234.256Z" fill="#3B434F"/>
<path d="M362.171 276.015C362.171 276.015 363.305 276.868 364.28 276.868C365.254 276.868 366.374 276.015 366.374 276.015L368.466 255.046C368.466 255.046 365.58 244.72 353.336 250.177L353.046 256.173C353.046 256.173 363.789 252.382 363.567 257.102C363.353 261.646 362.171 276.015 362.171 276.015Z" fill="#3B434F"/>
<path fill-rule="evenodd" clip-rule="evenodd" d="M266.893 274.333C267.391 274.333 267.889 274.333 268.387 274.333C271.474 278.526 272.73 284.97 274.36 290.547C274.865 292.275 274.375 295.298 273.933 296.52C272.316 300.996 267.236 300.915 263.053 302.92C261.93 303.458 261.095 304.388 259.64 304.627C258.692 303.791 257.547 303.627 257.08 302.28C255.928 300.693 257.413 299.702 258.573 299.08C260.68 297.95 267.181 296.837 267.96 294.813C268.923 293.718 268.283 290.423 267.96 289.267C267.133 286.305 266.737 283.832 265.613 281.16C264.867 279.385 263.557 277.514 264.333 275.4C264.977 275.124 266.367 274.81 266.893 274.333Z" fill="#3B434F"/>
<path d="M212.067 238.067C216.78 238.067 220.6 241.887 220.6 246.6C220.6 251.313 216.78 255.133 212.067 255.133C207.354 255.133 203.533 251.313 203.533 246.6C203.533 241.887 207.354 238.067 212.067 238.067Z" fill="#3B434F"/>
<path d="M306.787 238.067C311.499 238.067 315.32 241.887 315.32 246.6C315.32 251.313 311.499 255.133 306.787 255.133C302.074 255.133 298.253 251.313 298.253 246.6C298.253 241.887 302.074 238.067 306.787 238.067Z" fill="#3B434F"/>
<path d="M211.64 269.64C219.887 269.64 226.573 270.113 226.573 279.453C226.573 289.087 219.887 289.267 211.64 289.267C203.393 289.267 196.707 287.512 196.707 279.453C196.707 270.04 203.393 269.64 211.64 269.64Z" fill="#F5F3EF"/>
<path d="M310.627 269.64C318.874 269.64 325.56 270.113 325.56 279.453C325.56 289.087 318.874 289.267 310.627 289.267C302.379 289.267 295.693 287.512 295.693 279.453C295.693 270.04 302.379 269.64 310.627 269.64Z" fill="#F5F3EF"/>
<path d="M282 222.61L284.471 225.749L286.005 227.695C286.005 227.695 313.155 212.703 332 230L334.009 230.985C334.009 230.985 329.367 205.909 288.728 220.576C286.584 221.158 284.346 221.829 282 222.61Z" fill="#3B434F"/>
<path d="M235 222.628L232.529 225.76L230.995 227.702C230.995 227.702 203.845 212.741 185 230.002L182.991 230.985C182.991 230.985 187.633 205.961 228.272 220.598C230.416 221.178 232.654 221.848 235 222.628Z" fill="#3B434F"/>
<path d="M164.28 223.987C164.28 223.987 164.393 248.865 164.707 248.307C167.565 243.231 163.93 185.109 245.773 186.867C291.402 187.847 298.253 160.2 298.253 160.2C298.253 160.2 310.004 164.787 328.12 183.453C347.542 203.465 351.16 228.68 351.16 228.68L366.947 171.507L308.493 110.92L264.973 108.36L227 114.333L198.84 127.56L167.693 167.24" fill="#3B434F"/>
</svg>
