<svg width="512" height="512" viewBox="0 0 512 512" fill="none" xmlns="http://www.w3.org/2000/svg">
<path d="M111 504C111 504 100.698 413.689 189.44 403.613H227.413V386.12C227.413 386.12 254.125 397.593 281.173 387.4L282.027 403.613H326.4C326.4 403.613 403.673 411.328 399 504H111Z" fill="#F8C9AE"/>
<path d="M398.262 505.587H113.746H108.228L109.605 482.057C112.294 436.115 148.492 401.053 189.915 401.053H227.413V405.747H192.43C152.506 405.747 117.619 439.495 115.027 483.717L114.071 500.04H397.51L396.98 483.717C394.388 439.495 359.501 405.747 319.578 405.747H284.16V401.053H321.839C363.263 401.053 399.46 436.115 402.149 482.057L403.527 505.587H398.262Z" fill="#3B434F"/>
<path d="M230.4 384.146V410.461C230.4 424.117 241.479 435.187 255.147 435.187C268.814 435.187 279.893 424.117 279.893 410.461V384.689C281.329 384.252 282.752 383.777 284.16 383.264V410.64C284.16 426.789 271.075 439.88 254.933 439.88C238.792 439.88 225.707 426.789 225.707 410.64V382.454C227.253 383.065 228.818 383.627 230.4 384.146Z" fill="#3B434F"/>
<path d="M331.72 457.489L319.635 482.696C319.023 483.971 317.494 484.509 316.219 483.898C314.945 483.287 314.407 481.758 315.018 480.483L326.69 456.138L317.57 440.341C316.863 439.117 317.282 437.551 318.507 436.844C319.731 436.137 321.297 436.557 322.004 437.781L331.817 454.779C332.323 455.654 332.249 456.703 331.72 457.489Z" fill="#3B434F"/>
<path d="M178.362 457.514L190.513 482.798C191.127 484.077 192.664 484.617 193.946 484.004C195.228 483.391 195.769 481.857 195.154 480.578L183.42 456.158L192.589 440.313C193.299 439.085 192.878 437.515 191.647 436.805C190.416 436.096 188.842 436.517 188.131 437.745L178.265 454.795C177.756 455.673 177.83 456.726 178.362 457.514Z" fill="#3B434F"/>
<path d="M225.707 400.2H230.4V503.88H225.707V400.2Z" fill="#3B434F"/>
<path d="M279.893 401.053H284.587V504.733H279.893V401.053Z" fill="#3B434F"/>
<path d="M243 451L255 438L268 451L261 458L272 503H238L250 458L243 451Z" fill="#3B434F"/>
<path fill-rule="evenodd" clip-rule="evenodd" d="M269.699 503.69L257.605 458.554L260.12 457.8L261.787 456.028L274.579 503.766L269.699 503.69ZM235.585 503.157L248.211 456.248L249.027 456.947L251.587 458.653L252.431 458.738L240.454 503.233L235.585 503.157Z" fill="#3B434F"/>
<path fill-rule="evenodd" clip-rule="evenodd" d="M284.146 463.788L280.827 467.106L267.914 454.193C265.422 458.151 261.022 460.787 256 460.787C250.775 460.787 246.224 457.934 243.795 453.707L230.315 467.186L226.988 463.859L253.527 437.32L255.602 435.396L257.678 437.32L284.146 463.788ZM246.406 451.096C248.107 454.561 251.666 456.947 255.787 456.947C259.814 456.947 263.301 454.663 265.046 451.325L255.611 441.891L246.406 451.096Z" fill="#3B434F"/>
<path d="M256.215 116.467C309.293 116.467 351.187 166.068 349.825 225.665L348.377 289.006C347.094 345.152 305.845 389.533 256.215 389.533C206.584 389.533 165.336 345.152 164.052 289.006L162.605 225.665C161.242 166.068 203.137 116.467 256.215 116.467Z" fill="white"/>
<path fill-rule="evenodd" clip-rule="evenodd" d="M354.089 223.701L352.572 289.616C351.228 348.043 308.006 394.227 256.001 394.227C203.996 394.227 160.775 348.043 159.43 289.616L157.913 223.701C156.486 161.683 200.384 110.067 256.001 110.067C311.618 110.067 355.517 161.683 354.089 223.701ZM255.788 116.893C203.436 116.893 162.114 166.107 163.458 225.238L164.886 288.085C166.152 343.793 206.836 387.827 255.788 387.827C304.741 387.827 345.425 343.793 346.691 288.085L348.119 225.238C349.462 166.107 308.141 116.893 255.788 116.893Z" fill="#3B434F"/>
<path d="M302.08 327.326C294.325 334.06 276.808 340.467 256.427 340.467C236.045 340.467 218.529 334.06 210.773 327.326C210.773 327.326 209.98 325.143 211.144 323.978C212.33 322.793 214.187 323.051 214.187 323.051C221.934 329.789 236.038 335.347 256.427 335.347C276.816 335.347 290.92 329.789 298.667 323.051C298.667 323.051 300.562 322.347 301.482 323.267C303.255 325.041 302.08 327.326 302.08 327.326Z" fill="#3B434F"/>
<path d="M242.347 350.707H269.653V354.973H242.347V350.707Z" fill="#3B434F"/>
<path d="M157.807 233.313C157.795 233.314 156.76 232.487 154.804 231.871C153.826 231.564 152.611 231.311 151.226 231.248C150.88 231.233 150.524 231.229 150.16 231.24C149.796 231.25 149.423 231.274 149.045 231.315C148.287 231.396 147.505 231.541 146.718 231.767C143.567 232.673 140.353 234.875 138.465 239.419C137.517 241.691 136.892 244.55 136.727 248.126C136.685 249.02 136.673 249.959 136.691 250.945C136.709 251.931 136.758 252.963 136.84 254.045C137.003 256.209 137.298 258.568 137.738 261.14C137.728 261.137 137.328 268.91 140.106 277.841C142.719 286.573 148.992 297.299 160.573 300.364C159.241 278.185 159.2 255.59 157.807 233.313Z" fill="white"/>
<path d="M159.128 234.207C159.128 234.207 138.951 227.956 139.662 248.698C139.662 248.698 142.665 278.775 143.97 281.547C143.97 281.547 151.894 299.059 164.971 299.835C177.752 300.594 164.971 299.835 164.971 299.835L165.13 305.48C165.13 305.48 142.145 302.533 137.706 276.045L134.202 251.983C134.202 251.983 131.481 220.138 157.871 228.235C183.58 236.123 157.871 228.235 157.871 228.235L159.128 234.207Z" fill="#3B434F"/>
<path d="M152.468 275.995C152.468 275.995 151.339 276.848 150.369 276.848C149.399 276.848 148.284 275.995 148.284 275.995L146.202 255.012C146.202 255.012 149.074 244.679 161.265 250.139L161.554 256.139C161.554 256.139 150.858 252.346 151.079 257.069C151.292 261.616 152.468 275.995 152.468 275.995Z" fill="#3B434F"/>
<path d="M353.813 233.362C353.825 233.363 354.866 232.536 356.83 231.921C357.812 231.614 359.032 231.361 360.423 231.299C360.771 231.283 361.128 231.28 361.494 231.29C361.86 231.3 362.234 231.325 362.614 231.365C363.375 231.446 364.16 231.591 364.951 231.817C368.116 232.722 371.344 234.923 373.241 239.464C374.192 241.735 374.82 244.591 374.986 248.165C375.028 249.058 375.041 249.997 375.022 250.982C375.004 251.967 374.955 252.999 374.873 254.08C374.709 256.242 374.412 258.6 373.971 261.17C373.98 261.167 374.383 268.935 371.592 277.86C368.968 286.586 362.668 297.305 351.035 300.368C352.373 278.204 352.415 255.624 353.813 233.362Z" fill="white"/>
<path d="M352.483 234.256C352.483 234.256 372.747 228.008 372.034 248.737C372.034 248.737 369.017 278.793 367.707 281.564C367.707 281.564 359.748 299.064 346.614 299.839C333.777 300.597 346.614 299.839 346.614 299.839L346.455 305.48C346.455 305.48 369.54 302.535 373.999 276.065L377.518 252.019C377.518 252.019 380.25 220.196 353.745 228.287C327.923 236.17 353.745 228.287 353.745 228.287L352.483 234.256Z" fill="#3B434F"/>
<path d="M359.171 276.015C359.171 276.015 360.305 276.868 361.28 276.868C362.254 276.868 363.374 276.015 363.374 276.015L365.466 255.046C365.466 255.046 362.58 244.72 350.336 250.177L350.046 256.173C350.046 256.173 360.789 252.382 360.567 257.102C360.353 261.646 359.171 276.015 359.171 276.015Z" fill="#3B434F"/>
<path d="M283.327 226.441C283.327 226.441 308.872 211.836 327.12 227.927L331.947 228.675C331.947 228.675 325.764 206.178 280.747 220.806L282 225L283.327 226.441ZM283 225C283 225 308.987 210.074 326.12 228.927L334.947 228.675C334.947 228.675 323.938 204.643 278.747 219.806L283 226" fill="#3B434F"/>
<path d="M228.438 226.526C228.438 226.526 202.979 212.05 184.792 227.998L179.981 228.74C179.981 228.74 186.143 206.442 231.01 220.941L229.761 225.097L228.438 226.526ZM228.764 225.097C228.764 225.097 202.864 210.303 185.788 228.99L176.991 228.74C176.991 228.74 187.963 204.921 233.003 219.95L228.764 226.089" fill="#3B434F"/>
<path d="M350.588 233.8C350.588 233.8 389.976 130.456 268.69 106.913C268.69 106.913 243.303 105.539 223.475 81.9067C223.475 81.9067 209.31 101.325 217.504 116.175C217.504 116.175 207.077 125.271 179.114 118.028C179.114 118.028 174.881 127.068 178.261 137.477C178.261 137.477 143.087 152.686 159.849 220.717C160.01 221.368 160.175 222.025 160.345 222.686C160.345 222.686 175.395 162.525 185.939 161.558C185.939 161.558 242.752 194.174 290.871 158.78C290.871 158.78 314.629 190.477 343.763 192.122C343.763 192.122 349.033 212.563 350.588 233.8Z" fill="#C1BFBD"/>
<path fill-rule="evenodd" clip-rule="evenodd" d="M353.28 234.653C352.096 237.866 348.16 236.787 348.16 236.787C346.605 215.55 341.76 194.973 341.76 194.973C312.242 191.254 290.133 162.973 290.133 162.973C242.299 195.848 186.027 164.253 186.027 164.253C174.728 173.621 163.413 223.133 163.413 223.133C163.243 222.472 157.601 223.785 157.44 223.133C140.678 155.103 174.933 136.093 174.933 136.093C171.554 125.683 177.067 114.76 177.067 114.76C205.03 122.003 213.76 115.613 213.76 115.613C206.367 97.0957 222.72 78.0667 222.72 78.0667C242.548 101.699 269.653 104.093 269.653 104.093C381.202 126.447 361.189 213.195 353.28 234.653ZM267.093 109.64C267.093 109.64 244.263 108.398 224 87.0267C224 87.0267 212.393 102.47 220.587 117.32C220.587 117.32 208.87 128.83 180.907 121.587C180.907 121.587 178.695 127.381 180.907 138.227C180.907 138.227 149.546 154.417 160.427 209.48C160.557 210.138 160.256 209.245 160.427 209.907C160.427 209.907 173.544 159.099 185.6 158.707C185.6 158.707 244.462 192.031 291.84 154.867C291.84 154.867 316.892 188.208 346.027 189.853C346.027 189.853 348.554 196.999 351.573 218.013C351.573 218.013 377.125 130.608 267.093 109.64Z" fill="#3B434F"/>
<path opacity="0.2" fill-rule="evenodd" clip-rule="evenodd" d="M231.092 104.947C231.874 104.962 231.872 105.494 232.101 106.048C232.442 106.875 232.747 107.717 233.141 108.504C233.74 109.695 234.353 110.877 235.065 111.966C235.663 112.882 236.313 113.756 236.957 114.626C237.329 115.128 237.779 115.573 238.155 116.074C238.306 116.273 238.507 116.438 238.66 116.64C238.712 116.688 238.765 116.735 238.818 116.782C239.011 117.037 239.256 117.236 239.448 117.49C239.659 117.695 239.869 117.9 240.079 118.104C240.407 118.432 240.715 118.799 241.088 119.08C241.167 119.164 241.246 119.248 241.325 119.332C241.621 119.555 241.863 119.832 242.16 120.056C242.208 120.108 242.255 120.161 242.302 120.213C242.732 120.536 243.105 120.932 243.532 121.252C244.226 121.772 244.883 122.323 245.598 122.826C246.072 123.159 246.54 123.529 247.017 123.864C247.866 124.461 248.763 124.996 249.634 125.564C250.164 125.91 250.732 126.174 251.274 126.508C252.807 127.455 254.486 128.263 256.13 129.09C256.661 129.357 257.19 129.574 257.739 129.814C258.089 129.967 258.468 130.147 258.811 130.317C259.001 130.411 259.184 130.453 259.378 130.538C259.799 130.721 260.252 130.916 260.671 131.104C261.059 131.278 261.438 131.392 261.838 131.545C262.27 131.71 262.727 131.916 263.163 132.08C263.919 132.366 264.685 132.617 265.433 132.898C266.211 133.191 266.989 133.385 267.782 133.654C269.321 134.174 270.958 134.558 272.56 135.039C273.039 135.183 273.539 135.251 274.011 135.385C274.246 135.452 274.551 135.439 274.752 135.542C274.833 135.584 274.926 135.673 275.004 135.731C275.129 135.825 275.226 135.982 275.319 136.109C275.469 136.313 275.627 136.514 275.745 136.754C275.867 137.004 275.901 137.35 275.966 137.636C276.018 137.865 275.945 138.152 275.903 138.312C275.867 138.447 275.879 138.54 275.84 138.674C275.738 139.023 275.582 139.361 275.382 139.619C275.175 139.886 274.665 139.893 274.279 139.792C273.602 139.615 272.86 139.539 272.197 139.351C272.056 139.311 271.943 139.329 271.803 139.288C271.035 139.066 270.196 138.939 269.438 138.722C269.265 138.672 269.119 138.679 268.949 138.627C268.351 138.445 267.729 138.342 267.12 138.155C265.595 137.687 264.034 137.299 262.579 136.77C262.239 136.646 261.923 136.583 261.586 136.455C259.199 135.555 256.829 134.688 254.648 133.591C254.074 133.302 253.505 133.074 252.945 132.772C251.357 131.917 249.813 131.031 248.31 130.097C248.112 129.974 247.92 129.817 247.726 129.688C246.853 129.106 246.016 128.514 245.172 127.909C244.321 127.299 243.562 126.567 242.728 125.942C242.552 125.81 242.403 125.637 242.223 125.501C242.171 125.444 242.118 125.386 242.066 125.328C241.871 125.181 241.72 124.984 241.53 124.84C241.073 124.495 240.687 124.046 240.284 123.644C239.904 123.265 239.491 122.894 239.164 122.464C239.091 122.395 239.017 122.327 238.944 122.259C238.732 121.979 238.458 121.749 238.25 121.472C237.886 120.99 237.458 120.555 237.099 120.071C236.652 119.47 236.191 118.874 235.759 118.261C235.326 117.648 234.95 117.014 234.545 116.373C233.447 114.635 232.554 112.74 231.722 110.723C231.42 109.991 231.217 109.21 230.965 108.441C230.792 107.911 230.709 107.341 230.555 106.804C230.516 106.664 230.53 106.553 230.492 106.41C230.411 106.104 230.319 105.721 230.429 105.403C230.479 105.261 230.681 105.059 230.824 105.01C230.923 104.975 231.019 105.001 231.092 104.947ZM223.35 128.555C223.911 128.558 224.161 128.97 224.406 129.294C224.66 129.63 225.002 129.9 225.258 130.239C225.468 130.448 225.678 130.658 225.888 130.868C226.032 131.057 226.211 131.206 226.377 131.372C226.548 131.543 226.702 131.728 226.897 131.875C227.087 132.064 227.276 132.253 227.465 132.442C227.659 132.589 227.81 132.786 228.001 132.93C228.591 133.375 229.095 133.935 229.688 134.378C230.317 134.847 230.908 135.374 231.549 135.826C232.389 136.418 233.226 137.019 234.087 137.588C234.528 137.88 234.978 138.124 235.428 138.407C235.771 138.623 236.128 138.871 236.484 139.068C237.962 139.886 239.459 140.688 240.994 141.46C242.209 142.071 243.491 142.566 244.746 143.128C245.133 143.302 245.513 143.417 245.913 143.569C246.816 143.912 247.767 144.262 248.688 144.608C249.559 144.935 250.485 145.159 251.369 145.458C251.513 145.506 251.636 145.501 251.778 145.552C252.235 145.716 252.753 145.819 253.229 145.961C253.468 146.033 253.706 146.032 253.939 146.119C254.449 146.309 255.092 146.883 255.279 147.394C255.602 148.279 255.244 149.286 254.837 149.865C254.715 150.039 254.533 150.326 254.317 150.4C253.977 150.516 253.619 150.394 253.308 150.305C252.906 150.19 252.521 150.173 252.125 150.053C251.395 149.833 250.635 149.712 249.902 149.487C248.367 149.015 246.836 148.592 245.377 148.039C241.998 146.759 238.879 145.257 236.011 143.475C234.82 142.735 233.692 141.901 232.574 141.082C232.176 140.791 231.815 140.432 231.423 140.138C230.884 139.735 230.426 139.25 229.893 138.848C229.835 138.785 229.778 138.722 229.72 138.659C229.611 138.562 229.492 138.478 229.389 138.375C229.305 138.286 229.22 138.197 229.136 138.108C228.935 137.956 228.777 137.765 228.6 137.588C228.429 137.417 228.243 137.264 228.096 137.069C227.98 136.959 227.864 136.849 227.749 136.739C227.362 136.228 226.873 135.807 226.487 135.291C226.397 135.169 226.263 135.066 226.172 134.944C225.802 134.452 225.393 133.984 225.037 133.481C224.632 132.908 224.211 132.331 223.839 131.734C223.692 131.499 223.58 131.258 223.429 131.025C223.263 130.77 223.137 130.502 222.987 130.223C222.898 130.057 222.767 129.874 222.703 129.688C222.638 129.499 222.618 129.133 222.719 128.964C222.788 128.848 222.951 128.666 223.082 128.617C223.18 128.581 223.277 128.609 223.35 128.555ZM212.754 140.044C213.387 140.051 213.547 140.518 213.81 140.894C214.235 141.497 214.724 142.053 215.166 142.641C215.519 143.109 215.979 143.495 216.333 143.963C216.47 144.094 216.607 144.225 216.743 144.356C216.939 144.615 217.24 144.916 217.5 145.111C217.553 145.169 217.605 145.227 217.658 145.285C217.787 145.413 217.92 145.536 218.068 145.647C218.136 145.72 218.204 145.793 218.273 145.867C218.623 146.131 218.916 146.472 219.266 146.733C220.102 147.355 220.898 148.033 221.757 148.637C223.619 149.946 225.671 151.039 227.78 152.099C228.47 152.446 229.203 152.703 229.893 153.044C230.187 153.189 230.489 153.262 230.792 153.39C231.619 153.74 232.506 154.045 233.362 154.366C234.547 154.81 235.804 155.088 237.02 155.499C237.446 155.643 237.901 155.707 238.313 155.845C238.68 155.968 239.055 155.988 239.433 156.097C240.18 156.314 241.012 156.434 241.782 156.632C242.226 156.747 242.677 156.774 243.106 156.884C243.586 157.007 244.089 157.021 244.557 157.136C244.662 157.146 244.767 157.157 244.872 157.167C245.353 157.289 245.913 157.303 246.402 157.419C246.611 157.469 246.791 157.433 247.001 157.482C247.684 157.641 248.465 157.609 249.161 157.765C249.36 157.81 249.567 157.788 249.744 157.828C249.808 157.828 249.871 157.828 249.934 157.828C250.174 157.882 250.479 157.869 250.722 157.923C250.79 157.923 250.859 157.923 250.927 157.923C251.324 158.01 251.804 157.961 252.204 158.049C252.294 158.049 252.383 158.049 252.472 158.049C252.982 158.16 253.595 158.062 254.112 158.174C254.312 158.18 254.512 158.185 254.711 158.19C254.824 158.215 255.004 158.177 255.137 158.206C255.489 158.282 255.942 158.215 256.304 158.269C256.517 158.301 256.776 158.244 256.966 158.285C257.134 158.321 257.354 158.268 257.502 158.3C257.912 158.3 258.322 158.3 258.732 158.3C259.702 158.3 260.65 158.273 261.586 158.269C262.029 158.267 262.512 158.17 262.879 158.3C263.086 158.374 263.278 158.556 263.446 158.678C263.825 158.953 264.182 159.345 264.361 159.811C264.416 159.953 264.411 160.079 264.456 160.236C264.527 160.489 264.63 160.886 264.55 161.228C264.498 161.45 264.471 161.719 264.392 161.936C264.272 162.27 263.949 162.368 263.573 162.455C263.436 162.461 263.299 162.466 263.163 162.471C262.58 162.598 261.871 162.486 261.286 162.613C261.174 162.637 261.017 162.608 260.924 162.628C260.703 162.634 260.482 162.639 260.261 162.644C260.047 162.69 259.778 162.624 259.536 162.676C259.334 162.719 259.087 162.707 258.858 162.707C258.774 162.707 258.69 162.707 258.606 162.707C258.411 162.749 258.137 162.739 257.928 162.739C257.623 162.739 257.318 162.739 257.013 162.739C256.729 162.799 256.334 162.754 256.02 162.754C255.76 162.754 255.431 162.788 255.2 162.739C255.021 162.739 254.843 162.739 254.664 162.739C254.291 162.739 253.923 162.739 253.576 162.707C253.397 162.707 253.219 162.707 253.04 162.707C252.734 162.641 252.334 162.71 252.031 162.644C251.91 162.644 251.789 162.644 251.668 162.644C251.446 162.596 251.146 162.629 250.927 162.581C250.822 162.581 250.717 162.581 250.612 162.581C250.443 162.544 250.197 162.555 250.028 162.518C249.944 162.518 249.86 162.518 249.776 162.518C249.192 162.389 248.519 162.457 247.947 162.329C247.789 162.319 247.632 162.308 247.474 162.298C246.732 162.129 245.91 162.155 245.188 161.983C244.991 161.936 244.83 161.968 244.636 161.92C243.964 161.756 243.224 161.711 242.57 161.543C242.462 161.515 242.394 161.539 242.286 161.511C241.977 161.43 241.615 161.378 241.309 161.291C241.167 161.25 241.057 161.269 240.915 161.228C239.852 160.922 238.745 160.762 237.698 160.441C235.844 159.873 233.97 159.364 232.29 158.615C231.909 158.445 231.53 158.347 231.155 158.174C230.491 157.869 229.806 157.591 229.152 157.262C228.129 156.747 227.129 156.205 226.141 155.656C225.445 155.27 224.776 154.799 224.122 154.366C223.586 154.01 223.067 153.662 222.546 153.296C222.032 152.935 221.553 152.52 221.048 152.147C220.534 151.767 220.093 151.289 219.581 150.903C219.387 150.757 219.223 150.514 219.029 150.368C218.552 150.008 218.157 149.529 217.737 149.109C215.941 147.317 214.417 145.258 213.054 143.034C212.739 142.521 212.51 141.985 212.234 141.429C212.108 141.175 211.976 140.833 212.108 140.484C212.15 140.373 212.375 140.148 212.486 140.107C212.577 140.072 212.685 140.096 212.754 140.044ZM317.103 155.562C317.677 155.568 317.854 155.949 318.096 156.286C318.336 156.618 318.608 156.93 318.853 157.262C319.375 157.965 320.029 158.565 320.556 159.26C320.74 159.503 321.001 159.691 321.187 159.937C321.26 160.005 321.334 160.074 321.408 160.142C321.664 160.48 322.008 160.757 322.306 161.055C322.564 161.312 322.821 161.569 323.079 161.826C323.484 162.132 323.812 162.561 324.214 162.865C324.444 163.038 324.634 163.261 324.861 163.431C325.606 163.991 326.284 164.641 327.037 165.194C328.171 166.026 329.307 166.866 330.49 167.649C332.268 168.827 334.156 169.89 336.071 170.923C337.159 171.509 338.3 172.007 339.414 172.56C339.81 172.756 340.226 172.903 340.612 173.095C340.756 173.165 340.895 173.181 341.038 173.252C341.655 173.557 342.342 173.788 342.977 174.07C343.141 174.143 343.283 174.164 343.451 174.228C344.069 174.462 344.724 174.701 345.358 174.936C345.715 175.068 346.138 175.119 346.462 175.298C347.28 175.75 348.034 176.719 347.613 178.005C347.463 178.463 347.209 178.819 346.951 179.17C346.773 179.412 346.55 179.508 346.226 179.61C346.146 179.635 345.792 179.51 345.721 179.484C345.286 179.327 344.85 179.252 344.412 179.107C342.153 178.356 339.984 177.561 337.9 176.652C334.528 175.179 331.506 173.301 328.661 171.3C327.833 170.719 327.086 170.03 326.28 169.428C326.043 169.251 325.841 169.025 325.602 168.845C325.554 168.793 325.507 168.74 325.46 168.688C325.139 168.446 324.881 168.142 324.561 167.901C324.419 167.754 324.277 167.607 324.135 167.46C323.974 167.339 323.85 167.192 323.71 167.051C323.569 166.91 323.421 166.787 323.3 166.626C323.2 166.532 323.1 166.437 323 166.343C322.82 166.162 322.634 165.965 322.48 165.76C322.385 165.666 322.291 165.572 322.196 165.477C321.993 165.209 321.733 164.987 321.534 164.722C321.013 164.03 320.446 163.39 319.941 162.676C319.488 162.034 318.99 161.398 318.569 160.724C318.03 159.861 317.537 158.971 317.056 158.049C316.845 157.644 316.605 157.136 316.457 156.695C316.391 156.499 316.371 156.148 316.472 155.971C316.541 155.851 316.701 155.675 316.835 155.625C316.926 155.59 317.034 155.614 317.103 155.562Z" fill="#3B434F"/>
<path fill-rule="evenodd" clip-rule="evenodd" d="M263.893 274.333C264.391 274.333 264.889 274.333 265.387 274.333C268.474 278.526 269.73 284.97 271.36 290.547C271.865 292.275 271.375 295.298 270.933 296.52C269.316 300.996 264.236 300.915 260.053 302.92C258.93 303.458 258.095 304.388 256.64 304.627C255.692 303.791 254.547 303.627 254.08 302.28C252.928 300.693 254.413 299.702 255.573 299.08C257.68 297.95 264.181 296.837 264.96 294.813C265.923 293.718 265.283 290.423 264.96 289.267C264.133 286.305 263.737 283.832 262.613 281.16C261.867 279.385 260.557 277.514 261.333 275.4C261.977 275.124 263.367 274.81 263.893 274.333Z" fill="#3B434F"/>
<path d="M209.067 238.067C213.78 238.067 217.6 241.887 217.6 246.6C217.6 251.313 213.78 255.133 209.067 255.133C204.354 255.133 200.533 251.313 200.533 246.6C200.533 241.887 204.354 238.067 209.067 238.067Z" fill="#3B434F"/>
<path d="M303.787 238.067C308.499 238.067 312.32 241.887 312.32 246.6C312.32 251.313 308.499 255.133 303.787 255.133C299.074 255.133 295.253 251.313 295.253 246.6C295.253 241.887 299.074 238.067 303.787 238.067Z" fill="#3B434F"/>
<path d="M307.627 269.64C313.518 269.64 318.293 274.416 318.293 280.307C318.293 286.198 313.518 290.973 307.627 290.973C301.736 290.973 296.96 286.198 296.96 280.307C296.96 274.416 301.736 269.64 307.627 269.64Z" fill="#F5F3EF"/>
<path d="M204.373 269.64C210.264 269.64 215.04 274.416 215.04 280.307C215.04 286.198 210.264 290.973 204.373 290.973C198.482 290.973 193.707 286.198 193.707 280.307C193.707 274.416 198.482 269.64 204.373 269.64Z" fill="#F4F3EF"/>
</svg>
