<?xml version="1.0" standalone="no"?>
<!DOCTYPE svg PUBLIC "-//W3C//DTD SVG 1.1//EN" "http://www.w3.org/Graphics/SVG/1.1/DTD/svg11.dtd">
<svg xmlns="http://www.w3.org/2000/svg">
<metadata>Copyright (C) 2021 by original authors @ fontello.com</metadata>
<defs>
<font id="porto" horiz-adv-x="1000" >
<font-face font-family="porto" font-weight="400" font-stretch="normal" units-per-em="1000" ascent="850" descent="-150" />
<missing-glyph horiz-adv-x="1000" />
<glyph glyph-name="cart-thick" unicode="&#xe700;" d="M709 597c-7 57-33 111-75 152-50 49-116 77-186 77h-4c-70 0-135-28-185-77-42-41-68-95-76-152h-173v-579c0-98 79-177 177-177h519c97 0 177 79 177 177v579h-174z m-265 163h4c97 0 179-71 195-163h-394c17 92 98 163 195 163z m373-742c0-62-50-112-111-112h-519c-62 0-112 50-112 112v513h116v-100c0-12 10-23 23-23h11c13 0 23 11 23 23v100h406v-100c0-12 10-23 23-23h12c12 0 23 11 23 23v100h105v-513z" horiz-adv-x="892.6" />

<glyph glyph-name="check-circle" unicode="&#xe701;" d="M914 408c-20 0-35-15-35-34v-41c0-221-180-400-401-400 0 0 0 0 0 0-107 0-207 42-283 117-76 76-117 177-117 284 0 220 180 400 400 400 0 0 0 0 1 0 56 0 111-12 162-35 18-8 38 0 46 18 8 17 0 38-17 46-61 27-125 40-191 40-1 0-1 0-1 0-259 0-470-210-470-469 0-126 49-244 138-333 88-89 206-138 332-138 0 0 0 0 0 0 259 0 470 211 470 470v41c0 19-15 34-34 34z m68 341c-14 14-36 14-50 0l-454-454-106 106c-13 14-35 14-49 0s-14-35 0-49l131-131c6-6 15-10 24-10s18 4 25 10l479 479c13 14 13 36 0 49z" horiz-adv-x="1000" />

<glyph glyph-name="envelope" unicode="&#xe702;" d="M866 654h-732c-67 0-122-55-122-122v-397c0-67 55-122 122-122h732c68 0 122 55 122 122v397c0 67-54 122-122 122z m-793-160l213-161-213-160v321z m793-420h-732c-34 0-61 27-61 61l239 179 133-100c16-12 36-18 55-18 19 0 39 6 55 18l133 100 239-179c0-34-27-61-61-61z m61 99l-213 160 213 161v-321z m-390 66c-11-8-24-12-37-12s-26 4-37 12l-390 293c0 33 27 61 61 61h732c34 0 61-28 61-61l-390-293z" horiz-adv-x="1000" />

<glyph glyph-name="business-book" unicode="&#xe703;" d="M677 801h-671v-935h671c49 0 89 40 89 89v757c0 49-40 89-89 89z m-610-61h56v-813h-56v813z m638-785c0-16-12-28-28-28h-493v813h493c16 0 28-13 28-28v-757z m-466 494h411v235h-411v-235z m61 174h289v-114h-289v114z m145-463h174v-61h-174v61z m-117-116h291v-61h-291v61z" horiz-adv-x="772.5" />

<glyph glyph-name="long-arrow-right" unicode="&#xe704;" d="M617 467l-22-21 97-97h-671v-31h671l-97-97 22-22 134 134z" horiz-adv-x="772.5" />

<glyph glyph-name="percent-shape" unicode="&#xe705;" d="M380 445c0 59-48 106-106 106s-105-47-105-106c0-58 47-105 105-105s106 47 106 105z m-150 0c0 25 20 45 44 45s45-20 45-45-20-44-45-44-44 20-44 44z m268-118c-58 0-105-48-105-106s47-105 105-105c58 0 106 47 106 105s-48 106-106 106z m0-150c-24 0-44 20-44 44s20 45 44 45 45-20 45-45-20-44-45-44z m7 332c-14 10-33 6-42-8l-204-301c-9-14-6-33 8-43 6-3 12-5 17-5 10 0 20 5 26 14l203 301c10 14 6 33-8 42z m243-176c0 21 4 43 9 66 8 49 17 100-8 144-27 45-78 63-123 79-22 8-42 16-59 25-15 9-31 23-48 37-37 32-78 68-133 68-54 0-96-36-132-68-17-14-33-28-49-37-16-9-37-17-59-25-45-16-96-34-122-79-26-44-17-95-8-144 4-23 8-45 8-66s-4-42-8-65c-9-49-18-100 8-144 26-45 77-64 122-80 22-7 43-15 59-24 16-9 32-23 49-38 36-31 78-67 132-67 55 0 96 36 133 67 17 15 33 29 48 38 17 9 37 17 59 24 45 16 96 35 123 80 25 44 16 95 8 144-5 23-9 45-9 65z m-51-76c7-40 13-78-1-102-15-26-52-39-90-53-24-9-48-17-69-30-21-11-40-28-58-44-31-27-61-52-93-52-32 0-61 25-93 52-18 16-37 33-57 44-22 13-46 21-69 30-39 14-75 27-90 53-15 24-8 62-1 102 4 25 9 51 9 76s-5 52-9 77c-7 40-14 77 1 102 15 26 51 39 90 53 23 8 47 17 69 29 20 12 39 29 57 44 32 27 61 53 93 53 32 0 62-26 93-53 18-15 37-32 58-44 21-12 45-21 69-29 38-14 75-27 90-53 14-25 8-62 1-102-5-25-10-51-10-77 0-25 5-51 10-76z" horiz-adv-x="772.5" />

<glyph glyph-name="sale-label" unicode="&#xe706;" d="M668 384h-102l-115 173c12 15 20 34 20 55 0 46-38 84-85 84s-84-38-84-84c0-21 7-40 20-55l-115-173h-102c-54 0-97-43-97-97v-220c0-53 43-97 97-97h563c53 0 96 44 96 97v220c0 54-43 97-96 97z m-282 264c21 0 37-16 37-36s-16-37-37-37c-20 0-37 16-37 37s17 36 37 36z m-25-117c8-3 17-4 25-4 9 0 17 1 25 4l98-147h-245l97 147z m356-464c0-27-22-49-49-49h-563c-27 0-49 22-49 49v220c0 27 22 49 49 49h563c27 0 49-22 49-49v-220z m-561 157c0 8 8 16 26 16 22 0 27-10 36-10 11 0 16 14 16 21 0 21-38 23-52 23-32 0-66-15-66-54 0-60 82-55 82-86 0-13-13-17-25-17-24 0-32 19-44 19-10 0-18-13-18-22 0-17 29-34 63-34 37 0 65 21 65 58 0 65-83 60-83 86z m191 37c-3 9-14 13-26 13-12 0-24-4-27-13l-48-159c0-1 0-1 0-2 0-10 14-17 26-17 6 0 11 2 13 8l9 32h54l9-32c2-6 7-8 13-8 12 0 26 7 26 17 0 1 0 2 0 2l-49 159z m-45-107l19 70 19-70h-38z m209-36h-59v142c0 9-10 13-20 13-10 0-21-4-21-13v-165c0-8 9-12 18-12h82c8 0 12 9 12 18 0 8-4 17-12 17z m138 119c8 0 12 9 12 18 0 9-3 18-12 18h-92c-9 0-18-5-18-13v-165c0-8 9-12 18-12h92c9 0 12 9 12 17 0 10-4 18-12 18h-69v44h38c9 0 13 9 13 16 0 8-5 15-13 15h-38v44h69z" horiz-adv-x="772.5" />

<glyph glyph-name="help-circle" unicode="&#xe707;" d="M500 826c-271 0-492-221-492-493s221-492 492-492 492 221 492 492-221 493-492 493z m0-946c-250 0-453 204-453 453 0 250 203 453 453 453 250 0 453-203 453-453 0-249-203-453-453-453z m28 286h-53c-5 0-7-3-7-7v-61c0-4 2-7 7-7h53c5 0 7 3 7 7v61c0 4-2 7-7 7z m-22 413c-74 0-122-44-133-112-1-4 1-7 6-8l44-8c4 0 7 2 8 6 8 43 34 67 73 67 41 0 69-25 69-65 0-24-9-41-33-75l-48-65c-14-20-21-35-21-63v-29c0-4 3-7 7-7h47c4 0 7 3 7 7v23c0 24 4 33 18 52l48 65c24 34 36 58 36 92 0 70-52 120-128 120z" horiz-adv-x="1000" />

<glyph glyph-name="sale-discount" unicode="&#xe708;" d="M736 307c14 0 26 12 26 26v100c0 15-12 26-26 26h-175c-14 0-26-11-26-26v-50c0-14 12-26 26-26s26 12 26 26v24h123v-51c-43-11-75-51-75-98s32-86 75-97v-51h-123v24c0 14-12 26-26 26s-26-12-26-26v-50c0-15 12-26 26-26h175c14 0 26 11 26 26v100c0 14-12 26-26 26-27 0-49 22-49 48s22 49 49 49z m-224 126c0 15-11 26-26 26h-449c-15 0-26-11-26-26v-100c0-14 11-26 26-26 27 0 49-22 49-49s-22-48-49-48c-15 0-26-12-26-26v-100c0-15 11-26 26-26h449c15 0 26 11 26 26s-11 26-26 26h-423v51c43 11 75 51 75 97s-32 87-75 98v51h423c15 0 26 12 26 26z m-76-74h-249c-15 0-27-11-27-26s12-26 27-26h249c15 0 26 12 26 26s-11 26-26 26z m0-99h-125c-14 0-26-12-26-26s12-27 26-27h125c15 0 26 12 26 27s-11 26-26 26z m126 273v50c0 14-12 26-26 26s-26-12-26-26v-50c0-14 12-26 26-26s26 12 26 26z m-1-351c14 0 26 12 26 27v99c0 15-12 27-26 27s-26-12-26-27v-99c0-15 12-27 26-27z m50 300c7 0 13 3 18 8l25 25c11 10 11 26 0 37s-26 10-37 0l-25-25c-10-11-10-27 0-37 6-5 12-8 19-8z m-168 8c5-5 11-8 18-8s14 3 19 8c10 10 10 26 0 37l-25 25c-11 10-27 10-37 0s-10-27 0-37l25-25z" horiz-adv-x="772.5" />

<glyph glyph-name="shipping-truck" unicode="&#xe709;" d="M958 400l-81 109c-19 22-49 49-83 49h-157c-7 0-13-2-19-4v82c0 37-58 60-82 60h-470c-30 0-55-25-55-55v-514c0-31 28-59 58-59h80c10-55 58-98 116-98s106 43 116 98h181c14 0 28 6 38 15 10-9 23-15 37-15h21c10-55 58-98 116-98 65 0 118 53 118 118s-53 117-118 117c-58 0-106-42-116-98h-21c-9 1-19 11-19 20v372c0 9 10 20 19 20h157c15 0 34-13 52-35l3-5h-94c-32 0-59-27-59-58v-79c0-30 28-58 59-58h195v-157c0-9-10-20-19-20h-39v-39h39c31 0 59 28 59 59v188c0 40-29 80-32 85z m-184-234c43 0 78-35 78-78s-35-78-78-78-78 35-78 78 35 78 78 78z m-509-156c-43 0-78 35-78 78s35 78 78 78 78-35 78-78-35-78-78-78z m313 114c0-9-7-17-16-17h-181c-10 56-58 98-116 98s-106-42-116-98h-80c-9 0-19 11-19 20v514c0 9 7 16 16 16h470c14 0 40-15 42-21v-512z m177 199c-9 0-20 11-20 19v79c0 11 11 19 20 19h124l47-63c6-8 21-33 24-54h-195z" horiz-adv-x="1000" />

<glyph glyph-name="user-3" unicode="&#xe70a;" d="M662 315c73 52 119 135 119 229 0 156-126 282-281 282s-281-126-281-282c0-94 46-177 118-228l1-1c-192-57-330-232-330-439v0c0-19 16-35 35-35v0h914c19 0 35 16 35 35v0c0 207-138 382-326 438l-4 1z m-373 229c0 116 95 211 211 211s211-95 211-211c0-116-95-211-211-211v0c-116 0-211 95-211 211v0z m-209-633c19 198 184 352 385 352h70c201 0 366-154 385-350l0-2z" horiz-adv-x="1000" />

<glyph glyph-name="long-arrow-alt" unicode="&#xe70b;" d="M717 603l-1 1-45-45 193-194h-850v-63h850l-193-194 45-45 270 270z" horiz-adv-x="1000" />

<glyph glyph-name="map-location" unicode="&#xe70c;" d="M500 649c-102 0-185-83-185-185s83-184 185-184c102 0 185 82 185 184s-83 185-185 185z m0-339c-85 0-154 69-154 154s69 154 154 154c85 0 154-69 154-154s-69-154-154-154z m0 516c-204 0-369-164-369-370 0-215 184-435 319-590 1-1 22-25 49-25 0 0 2 0 2 0 27 0 49 24 49 25 135 155 319 375 319 590 0 206-165 370-369 370z m4-920c-1 0-3-2-5-3 0 1-2 3-4 4-112 130-303 349-303 549 0 170 138 308 308 308 170 0 308-138 308-308 0-200-191-419-304-550z" horiz-adv-x="1000" />

<glyph glyph-name="phone-call" unicode="&#xe70d;" d="M559 166c0 1 0 1 0 2-24 38-78 63-123 38l-37-19c-35 73-63 147-86 224l40 11c1 0 1 0 2 0 46 15 74 65 63 112-9 39-15 75-19 109 0 1 0 1 0 1-8 45-47 89-99 83l-125-10c-36-2-68-18-91-47-31-39-46-99-37-153 0-1 0-1 0-1 40-208 115-405 226-585 26-44 72-77 119-87 11-2 21-3 31-3 28 0 55 9 78 26 1 0 1 0 1 0l100 77c1 1 1 1 2 1 37 32 44 89 15 128-23 33-42 63-60 93z m1-168l-99-76c-16-11-34-14-55-10-29 6-58 27-74 55 0 0 0 0 0 0-106 173-179 362-217 561-5 35 4 75 23 98 11 14 24 21 41 22 1 0 1 0 1 0l126 11c1 0 1 0 1 0 11 1 21-13 24-25 4-37 11-74 20-115 0 0 0-1 0-1 3-12-5-26-17-30l-73-19c-9-3-16-8-21-16s-6-18-3-27c29-105 67-204 116-301 4-9 11-15 20-18 9-3 18-2 27 3l68 35c0 0 1 0 1 0 9 6 24-3 31-13 18-32 39-64 62-99 1 0 1 0 1-1 7-9 6-25-3-34z m-38 579c-19 4-37-7-42-26-4-18 8-37 26-41 53-12 96-50 115-100 18-46 14-96-10-139-9-17-3-38 13-47 6-3 12-4 17-4 12 0 24 6 30 17 34 61 40 133 15 198-28 71-89 125-164 142z m401-51c-58 150-186 262-344 299-18 4-37-8-41-26-4-19 7-37 26-41 135-32 245-128 294-257 45-116 36-246-25-355-10-16-4-37 13-47 5-3 11-4 17-4 12 0 23 6 30 18 71 127 82 277 30 413z" horiz-adv-x="1000" />

<glyph glyph-name="tablet" unicode="&#xe70e;" d="M746 826h-492c-51 0-92-42-92-93v-800c0-51 41-92 92-92h492c51 0 92 41 92 92v800c0 51-41 93-92 93z m31-893c0-17-14-30-31-30h-492c-17 0-31 13-31 30v62h554v-62z m0 93h-554v615h554v-615z m0 646h-554v61c0 17 14 31 31 31h492c17 0 31-14 31-31v-61z m-231 61h-92c-9 0-15-7-15-15 0-9 6-15 15-15h92c9 0 16 6 16 15 0 8-7 15-16 15z m-61-799h30c9 0 16 6 16 15 0 8-7 15-16 15h-30c-9 0-16-7-16-15 0-9 7-15 16-15z" horiz-adv-x="1000" />

<glyph glyph-name="spin1" unicode="&#xe800;" d="M496 825c-173 0-326-88-414-222-18-27-33-54-45-84-12-28-21-59-28-90 0 0 0-1 0-1v0 0c0-1 0-2 0-2 0-7 5-12 11-12h99c5 0 10 4 11 9 29 111 107 203 211 249 19 10 40 17 62 23 30 6 61 10 93 10v0 0 0c25 0 49-2 73-6 5-1 10-2 14-3 6-1 10-3 14-4v0c4-1 10 1 12 6l51 85c0 0 1 1 1 2 2 6-1 13-7 15-22 7-43 13-64 17-5 1-9 1-13 2-27 5-53 6-81 6v0 0z m322-112c-5 0-9-2-11-6l-49-85c-3-4-2-10 2-14 29-29 53-62 72-99 4-7 7-14 11-22 18-45 29-96 29-149v0 0c0-75-21-146-61-205-7-11-15-23-23-33-9-11-18-21-28-30v0 0 0c-4-4-5-10-2-14l49-86c0-1 1-2 2-3 4-5 11-5 16-1 57 51 102 115 132 187 6 15 11 29 15 44 13 45 20 92 20 141 0 107-33 206-90 287-11 15-23 30-37 45-13 14-25 28-40 40v0c-1 1-1 1-2 1-2 1-4 2-5 2z m-798-460v0c-1 0-2 0-3 0-6-1-10-8-9-14 33-163 147-297 297-360 30-12 60-21 92-28 31-6 65-10 98-10v0 0c40 0 78 5 115 14 7 1 14 3 22 5 6 2 13 5 20 7 1 0 2 1 3 1 6 3 8 10 4 15l-50 86c-3 5-7 7-12 6-14-4-28-7-42-9-3-1-6-1-8-2-17-2-34-3-52-3v0 0c-126 0-238 62-306 158-1 0-1 0-1 0-13 19-24 39-34 60s-18 42-24 64c-1 6-6 10-11 10h-99z" horiz-adv-x="1000" />

<glyph glyph-name="spin2" unicode="&#xe801;" d="M53 131v0c0 0-1 0-1 0-7 17-14 36-20 54-6 18-11 37-15 57-19 97-8 200 34 293 3 6 10 8 15 5 1 0 2 0 2-1v0l79-58c5-3 6-9 4-14-5-12-9-24-12-36-4-13-7-26-9-40-11-66-3-134 23-197 2-5 0-10-4-13v0l-79-55c-5-4-12-2-16 3-1 0-1 1-1 2v0z m119 564v0c0 1 0 1 0 1 14 13 29 25 45 37 16 11 32 22 50 30 88 50 189 71 292 59 6-1 10-5 10-12 0-1-1-1-1-2v0l-30-93c-2-5-8-8-13-7-13 0-27 0-39 0-14-1-27-2-40-4-67-11-131-39-183-82-4-3-10-3-14 0v0l-77 57c-5 3-6 11-2 15 0 0 1 1 2 1v0z m578 64v0c0 0 1 0 1 0 17-9 34-20 49-31 16-12 31-25 46-37 73-68 125-158 145-258 2-6-2-12-8-13-1 0-1 0-2 0v0l-99 1c-5 0-10 4-11 9-3 13-8 25-12 37-4 12-9 25-16 36-31 60-77 111-135 147-5 3-6 8-5 13v0l31 91c1 5 8 8 14 6 1 0 2-1 2-1v0z m240-526v0c0 0 0 0 0 0-4-20-8-38-14-56-7-19-14-37-22-54-43-91-112-168-202-218-6-3-13-1-16 4 0 1-1 2-1 2v0l-29 93c-2 5 1 11 6 13 11 7 22 15 31 23 11 9 21 18 30 27 48 47 83 107 99 173 2 5 6 8 11 8v0l97-1c5 0 10-5 10-11 0-1 0-2 0-3v0z m-431-389v0c0 0 0 0 0 0-19-2-39-3-59-3s-39 1-58 4c-100 12-195 53-271 123-5 4-5 11 0 16 0 0 1 1 1 1v0l79 57c5 3 12 2 16-2 10-8 20-16 32-23 10-7 21-13 33-19 61-31 129-45 197-41 6 0 10-3 12-8v0l28-90c2-6-1-12-7-14-1-1-2-1-3-1v0z" horiz-adv-x="1000" />

<glyph glyph-name="spin3" unicode="&#xe802;" d="M494 826c-262 0-475-207-486-465-1-19 13-20 13-20h82c16 0 19 10 19 18 10 196 173 352 372 352 105 0 202-44 269-116l-57-56c-11-12-11-26 5-30l243-50c20-5 45 11 36 44l-57 223c-2 9-16 22-28 13l-64-59c-88 89-211 146-347 146z m403-500c-16 0-19-10-19-18-10-196-173-353-371-353-106 0-202 45-270 117l58 56c10 11 10 26-5 30l-244 49c-20 5-45-10-36-43l57-223c2-9 16-22 29-13l63 59c88-90 211-146 348-146 261 0 474 207 485 466 1 18-13 19-13 19h-82z" horiz-adv-x="1000" />

<glyph glyph-name="spin4" unicode="&#xe803;" d="M498 826c-112 0-224-39-315-115v0c170 138 422 128 579-30 132-132 162-327 88-488-10-28-5-49 11-66 21-20 61-23 83 0 3 2 12 14 15 23 70 177 32 387-110 531-98 96-225 145-351 145z m-402-270c-14 0-29-5-39-16-3-3-13-15-15-24-70-177-33-387 111-530 182-182 471-192 665-31v0c-170-138-421-128-580 31-132 132-160 328-87 487 10 29 6 49-12 67-11 11-27 17-43 16z" horiz-adv-x="1001" />

<glyph glyph-name="spin5" unicode="&#xe804;" d="M463 826c-6 0-11-5-11-11v-180c0-6 5-11 11-11h68c1 0 1 0 1 0 6 0 11 5 11 11v180c0 6-5 11-11 11h-68c0 0 0 0-1 0z m246-47c-4 1-8-2-10-5l-90-155c-4-6-2-13 4-16l59-33c0-1 0-1 0-1 6-3 13-1 16 4l90 155c3 6 2 13-4 16l-60 34c-1 1-3 1-5 1z m-422-2c-2 0-4-1-5-2l-61-34c-4-3-6-10-3-16l89-154c0 0 0 0 0 0 3-6 10-8 16-5l60 34c5 4 7 11 4 16l-90 154c0 1 0 1 0 1-2 4-6 6-10 6z m611-160c-2 0-4 0-6-1l-155-90c0 0 0 0 0 0-6-3-8-10-5-15l35-60c4-5 11-7 16-4l154 89c1 0 1 0 1 0 6 3 7 11 4 16l-34 60c-2 4-6 6-10 5z m-798-4c-5 0-8-2-10-6l-35-60c-3-5-1-12 4-15l156-89c5-4 12-2 15 4l35 59c0 0 0 0 0 0 3 6 1 12-4 15l-156 90c-2 1-4 2-5 2z m701-231v0c-6 0-11-5-11-11v-68c0-1 0-1 0-1 0-7 5-12 11-12h180c6 0 11 5 11 12v68c0 0 0 0 0 1 0 6-5 11-11 11h-180z m-781-5v0c-7 0-12-5-12-12v-68c0 0 0 0 0-1 0-6 5-11 12-11h179c6 0 11 5 11 11v68c0 1 0 1 0 1 0 7-5 12-11 12h-179z m760-151c-4 0-8-2-10-6l-34-59c-1 0-1 0-1 0-3-6-1-13 4-16l156-89c6-3 13-1 16 4l34 60c3 5 1 12-4 15l-155 90c-2 1-4 1-6 1z m-558-5c-1 0-2 0-4-1l-155-89c0 0-1 0-1 0-5-3-7-10-4-16l35-60c2-5 9-7 15-4l155 89c0 0 0 0 0 0 6 3 8 10 5 16l-35 60c-3 3-7 6-11 5z m461-119c-2 0-4 0-6-1l-60-34c-5-4-7-11-4-16l90-155c0-1 0-1 0-1 3-6 11-7 16-4l60 35c5 3 7 10 4 16l-90 154c0 0 0 0 0 0-2 4-6 6-10 6z m-361-2c-4 0-8-2-10-6l-90-155c-2-6-1-13 4-16l60-35c5-3 12-1 15 4l91 156c3 6 1 13-5 16l-59 34c0 0 0 0 0 0-2 1-4 1-6 2z m147-57c-7 0-12-5-12-11v-180c0-6 5-11 12-11h67c0 0 0 0 1 0 6 0 11 5 11 11v180c0 6-5 11-11 11h-67c-1 0-1 0-1 0z" horiz-adv-x="1000" />

<glyph glyph-name="spin6" unicode="&#xe805;" d="M849-1c-186-187-511-169-693 13-187 187-197 485-28 683 11 13 21 26 35 34 35 22 83 17 115-13 29-31 34-75 16-110-5-9-9-15-16-22-138-148-143-373-8-507 150-151 400-119 533 33 104 120 139 292 75 444-81 194-299 286-501 218v1c232 80 484-24 578-248 70-164 37-349-71-485-10-14-22-28-35-41z" horiz-adv-x="1000" />

<glyph glyph-name="firefox" unicode="&#xe806;" d="M504-143c-213 0-381 124-459 301-85 197-16 512 137 652l-6-153c8 8 67 11 77-1 31 61 134 107 216 108-31-26-104-122-97-171 39-13 101-13 134-15 10-6 8-39-12-67-27-35-95-48-95-48l7-105-75 38c-26-63 34-118 95-108 68 11 93 56 140 53 48-2 67-29 60-53-7-30-58-25-58-25-43-69-102-98-195-91 142-117 333-10 381 85 49 96 7 238-42 279 58-25 97-51 118-106 10 122-46 262-147 344 190-55 306-202 309-437s-208-480-488-480z" horiz-adv-x="1000" />

<glyph glyph-name="chrome" unicode="&#xe807;" d="M498 825c-145-1-286-65-381-183l152-233c38 109 147 179 262 167l408-21c-41 82-106 154-193 205-78 45-163 65-248 65z m-409-222c-52-78-81-170-81-270 0-246 180-449 416-486l126 248c-114-21-229 39-276 144l-185 364z m871-92l-278-15c75-88 81-218 13-312l-223-342c93-6 187 15 274 65 213 123 299 381 214 604z m-460-11c-92 0-166-75-166-167s74-166 166-166 166 75 166 166-75 167-166 167z" horiz-adv-x="1000" />

<glyph glyph-name="opera" unicode="&#xe808;" d="M425-158c-558 0-558 982 0 982s557-982 0-982z m0 91c233 0 233 801 0 801s-234-801 0-801z" horiz-adv-x="849.6" />

<glyph glyph-name="ie" unicode="&#xe809;" d="M822 816c-78-1-175-44-271-102-231 33-481-100-492-373 58 90 217 248 355 291v-13c-173-87-552-591-348-746 87-67 299 35 332 73 28-5 57-8 86-8 194 0 358 120 409 282h-290c-13-54-54-88-117-88-98 0-121 65-121 145h541c28 197-110 372-295 424 168 111 350 155 288-100h20c33 105 20 184-37 205-17 7-36 10-56 10-1 0-3 0-4 0z m-340-293c77 0 124-46 124-124h-243c0 74 44 124 119 124z m-354-407c56-80 144-140 247-165-74-56-218-81-257-50-46 38-34 120 10 215z" horiz-adv-x="944.3" />

<glyph glyph-name="phone" unicode="&#xe80a;" d="M777 110q0-14-5-38t-12-37q-11-28-67-59-51-27-101-27-14 0-29 2t-31 6-26 8-30 11-27 10q-53 20-95 46-70 43-145 117t-118 145q-26 42-45 95-2 5-10 28t-11 30-8 25-7 32-2 28q0 51 28 102 31 56 58 66 14 6 37 12t39 6q7 0 11-2 10-3 30-41 6-11 15-30t20-35 17-29q2-2 9-14t12-19 4-16q0-11-16-26t-34-31-33-29-16-25q0-4 3-12t4-11 8-14 7-10q41-75 95-129t128-95q1 0 10-6t13-7 11-5 13-2q10 0 24 15t30 34 30 34 27 16q7 0 15-4t20-12 13-10q14-8 30-16t35-20 29-17q38-18 41-28 2-4 2-12z" horiz-adv-x="785.2" />

<glyph glyph-name="down-dir" unicode="&#xe80b;" d="M557 452q0-13-9-23l-238-238q-11-11-24-11t-24 11l-238 238q-10 10-10 23t10 24 24 11h476q13 0 24-11t9-24z" horiz-adv-x="571.3" />

<glyph glyph-name="cart" unicode="&#xe80c;" d="M358 20q0-29-20-49t-49-22-49 22-21 49 21 48 49 21 49-21 20-48z m489 0q0-29-20-49t-49-22-49 22-22 49 22 48 49 21 49-21 20-48z m71 593v-280q0-12-10-22t-22-12l-570-66q7-34 7-39 0-8-13-35h502q15 0 25-10t10-25-10-24-25-11h-558q-14 0-25 11t-10 24q0 6 4 18t9 19 12 22 8 16l-96 449h-111q-15 0-25 10t-11 24 11 26 25 10h139q9 0 16-3t10-9 8-14 4-14 2-16 3-14h655q14 0 25-11t11-24z" horiz-adv-x="926.8" />

<glyph glyph-name="up-dir" unicode="&#xe80d;" d="M557 214q0-13-9-24t-24-9h-476q-14 0-24 9t-10 24 10 25l238 238q10 9 24 9t24-9l238-238q9-11 9-25z" horiz-adv-x="571.3" />

<glyph glyph-name="mode-grid" unicode="&#xe80e;" d="M8-159v246h246v-246h-246z m0 369v246h246v-246h-246z m0 369v247h246v-247h-246z m369-738v246h246v-246h-246z m0 369v246h246v-246h-246z m0 369v247h246v-247h-246z m369-738v246h246v-246h-246z m0 369v246h246v-246h-246z m0 369v247h246v-247h-246z" horiz-adv-x="1000" />

<glyph glyph-name="mode-list" unicode="&#xe80f;" d="M8-159v246h246v-246h-246z m0 369v246h246v-246h-246z m0 369v247h246v-247h-246z m385-738v246h599v-246h-599z m0 369v246h599v-246h-599z m0 369v247h599v-247h-599z" horiz-adv-x="1000" />

<glyph glyph-name="compare" unicode="&#xe810;" d="M226-158h-218v327h218v-327z m365 0h-220v656h220v-656z m145 0v983h218v-983h-218z" horiz-adv-x="961.9" />

<glyph glyph-name="wishlist" unicode="&#xe811;" d="M771 826q125 0 204-79t80-204v-59q0-281-524-643-522 361-522 643v59q0 125 79 204t203 79q80 0 132-30t108-97q57 66 110 97t130 30z" horiz-adv-x="1063.5" />

<glyph glyph-name="search" unicode="&#xe812;" d="M742 196l250-252-103-103-250 250q-104-71-229-71-166 0-284 118t-118 285 118 284 284 119 285-119 118-284q0-125-71-227z m-64 227q0 111-78 190t-190 79-190-79-78-190 78-189 190-79 190 79 78 189z" horiz-adv-x="1000" />

<glyph glyph-name="left-dir" unicode="&#xe813;" d="M353 605v-543q0-15-11-27t-28-12-27 12l-272 271q-11 12-11 27t11 28l272 271q12 12 27 12t28-12 11-27z" horiz-adv-x="357.4" />

<glyph glyph-name="right-dir" unicode="&#xe814;" d="M353 333q0-15-11-27l-271-271q-12-12-27-12t-28 12-12 27v543q0 16 12 27t28 12 27-12l271-272q11-10 11-27z" horiz-adv-x="357.4" />

<glyph glyph-name="down-open" unicode="&#xe815;" d="M976 480l-449-448q-11-12-27-12t-27 12l-449 448q-12 12-12 28t12 27l101 100q11 12 27 12t27-12l321-321 321 321q12 12 27 12t28-12l100-100q12-12 12-27t-12-28z" horiz-adv-x="1000" />

<glyph glyph-name="left-open" unicode="&#xe816;" d="M662 657l-325-324 325-324q11-11 11-28t-11-27l-102-102q-12-11-27-11t-28 11l-453 454q-12 11-12 27t12 28l453 453q11 12 28 12t27-12l102-102q11-11 11-28t-11-27z" horiz-adv-x="712.9" />

<glyph glyph-name="right-open" unicode="&#xe817;" d="M662 306l-453-454q-12-11-28-11t-27 11l-102 102q-12 12-12 27t12 28l324 324-324 324q-12 12-12 27t12 28l102 102q11 12 27 12t28-12l453-453q11-12 11-28t-11-27z" horiz-adv-x="712.9" />

<glyph glyph-name="up-open" unicode="&#xe818;" d="M976 131l-100-100q-12-10-28-10t-27 10l-321 322-321-322q-12-10-27-10t-27 10l-101 100q-12 12-12 28t12 27l449 449q12 11 27 11t27-11l449-449q12-11 12-27t-12-28z" horiz-adv-x="1000" />

<glyph glyph-name="angle-left" unicode="&#xe819;" d="M353 581q0-7-7-12l-234-236 234-235q7-6 7-14t-7-14l-30-30q-5-5-12-5t-14 5l-279 280q-6 5-6 13t6 14l279 278q5 7 14 7t12-7l30-30q7-5 7-14z" horiz-adv-x="357.4" />

<glyph glyph-name="angle-right" unicode="&#xe81a;" d="M353 333q0-8-5-13l-280-280q-6-5-13-5t-14 5l-30 30q-6 7-6 14t6 14l235 235-235 236q-6 5-6 12t6 14l30 30q5 7 14 7t13-7l280-278q5-6 5-14z" horiz-adv-x="357.4" />

<glyph glyph-name="angle-up" unicode="&#xe81b;" d="M627 205q0-8-6-13l-31-31q-6-7-13-7t-15 7l-242 241-242-241q-5-7-14-7t-13 7l-31 31q-7 5-7 13t7 14l287 287q5 6 13 6t14-6l287-287q6-5 6-14z" horiz-adv-x="640.6" />

<glyph glyph-name="angle-down" unicode="&#xe81c;" d="M627 461q0-8-6-14l-287-287q-5-6-14-6t-13 6l-287 287q-7 6-7 14t7 14l31 31q5 6 13 6t14-6l242-241 242 241q6 6 15 6t13-6l31-31q6-6 6-14z" horiz-adv-x="640.6" />

<glyph glyph-name="down" unicode="&#xe81d;" d="M422 95q4-10-3-18l-191-211q-6-5-13-5-8 0-13 5l-194 211q-7 8-3 18 5 11 16 11h123v682q0 8 4 13t13 5h105q8 0 13-5t5-13v-682h122q11 0 16-11z" horiz-adv-x="426.8" />

<glyph glyph-name="left" unicode="&#xe81e;" d="M983 388v-108q0-7-5-12t-14-5h-696v-126q0-12-11-17t-19 3l-215 197q-5 5-5 12 0 8 5 14l215 197q9 8 19 4 11-5 11-17v-125h696q8 0 14-5t5-12z" horiz-adv-x="1000" />

<glyph glyph-name="right" unicode="&#xe81f;" d="M983 335q0-8-5-14l-216-197q-8-8-19-4-11 5-11 17v125h-696q-8 0-13 5t-5 12v108q0 7 5 12t13 5h696v125q0 12 11 17t19-3l216-195q5-6 5-13z" horiz-adv-x="1000" />

<glyph glyph-name="up" unicode="&#xe820;" d="M422 572q-5-11-16-11h-122v-683q0-8-5-13t-13-5h-105q-8 0-13 5t-5 13v683h-122q-12 0-16 11t3 18l191 211q5 5 13 5 7 0 13-5l194-211q7-7 3-18z" horiz-adv-x="426.8" />

<glyph glyph-name="angle-double-left" unicode="&#xe821;" d="M343 93q0-7-6-13l-29-29q-5-5-13-5t-13 5l-268 269q-6 6-6 13t6 13l268 269q5 6 13 6t13-6l29-29q6-5 6-14t-6-12l-226-227 226-226q6-6 6-14z m221 0q0-7-5-13l-29-29q-6-5-14-5t-13 5l-268 269q-7 6-7 13t7 13l268 269q6 6 13 6t14-6l29-29q5-5 5-14t-5-12l-227-227 227-226q5-6 5-14z" horiz-adv-x="571.3" />

<glyph glyph-name="angle-double-right" unicode="&#xe822;" d="M343 333q0-7-5-13l-270-269q-5-5-12-5t-13 5l-29 29q-6 6-6 13t6 14l226 226-226 227q-6 5-6 12t6 14l29 29q5 6 13 6t12-6l270-269q5-5 5-13z m221 0q0-7-5-13l-269-269q-6-5-13-5t-13 5l-29 29q-6 6-6 13t6 14l226 226-226 227q-6 5-6 12t6 14l29 29q6 6 13 6t13-6l269-269q5-5 5-13z" horiz-adv-x="571.3" />

<glyph glyph-name="angle-double-up" unicode="&#xe823;" d="M633 83q0-8-7-15l-32-31q-5-6-13-6t-15 6l-246 245-246-245q-5-6-14-6t-14 6l-31 31q-7 7-7 15t7 14l291 292q6 5 14 5t14-5l292-292q7-6 7-14z m0 240q0-8-7-15l-32-31q-5-6-13-6t-15 6l-246 246-246-246q-5-6-14-6t-14 6l-31 31q-7 7-7 15t7 14l291 292q6 7 14 7t14-7l292-292q7-6 7-14z" horiz-adv-x="640.6" />

<glyph glyph-name="angle-double-down" unicode="&#xe824;" d="M633 343q0-7-7-14l-292-292q-5-6-14-6t-14 6l-291 292q-7 7-7 14t7 15l31 31q6 6 14 6t14-6l246-246 246 246q6 6 15 6t13-6l32-31q7-7 7-15z m0 240q0-7-7-14l-292-292q-5-5-14-5t-14 5l-291 292q-7 7-7 14t7 15l31 31q6 7 14 7t14-7l246-245 246 245q6 7 15 7t13-7l32-31q7-7 7-15z" horiz-adv-x="640.6" />

<glyph glyph-name="mail" unicode="&#xe825;" d="M921 36v420q-18-20-39-35-146-113-233-186-27-23-45-36t-47-27-56-13h-2q-25 0-56 13t-47 27-45 36q-86 73-233 186-21 15-38 35v-420q0-6 5-12t12-5h806q7 0 12 5t6 12z m0 575v13t-1 7-1 7-3 5-5 4-8 2h-806q-7 0-12-6t-5-12q0-92 81-156 105-82 219-172 3-3 19-17t25-20 24-17 28-16 23-4h2q11 0 24 4t27 16 25 17 24 20 20 17q113 90 219 172 30 24 55 64t26 72z m69 20v-595q0-36-25-61t-62-27h-806q-35 0-61 27t-26 61v595q0 37 26 62t61 26h806q36 0 62-26t25-62z" horiz-adv-x="1000" />

<glyph glyph-name="location" unicode="&#xe826;" d="M427 474q0 58-42 99t-99 41-99-41-41-99 41-99 99-42 99 42 42 99z m139 0q0-60-18-98l-199-425q-9-18-26-28t-37-11-37 11-26 28l-200 425q-18 38-18 98 0 116 83 198t198 83 199-83 81-198z" horiz-adv-x="571.3" />

<glyph glyph-name="skype" unicode="&#xe827;" d="M886 235q26-57 26-116 0-106-74-182t-176-75q-61 0-118 31-51-8-79-8-178 0-305 130t-127 314q0 44 10 89-35 59-35 132 0 106 72 180t177 75q73 0 134-39 31 8 74 8 179 0 305-130t126-315q0-45-10-94z m-200-118q29 45 29 98 0 44-16 79-15 30-49 53-35 22-75 36-66 19-94 25-14 2-34 7t-27 7q-23 8-33 14-16 7-26 21-10 10-10 26 0 23 28 41 26 20 75 20t72-18q26-22 38-49 15-26 25-36 16-11 38-11 25 0 45 19 17 18 17 44 0 19-13 51-16 23-42 47-27 21-72 37-47 14-101 14-70 0-125-22-55-19-85-59t-29-90 27-88q34-40 75-56 47-21 114-35 12-2 28-7t30-8 21-5q27-9 45-27 17-14 17-41 0-34-31-55-35-24-88-24-40 0-63 12-26 14-36 27-23 44-25 46-8 23-24 39-20 14-39 14-28 0-45-18t-18-41q0-38 27-81 26-39 71-65 63-33 155-33 77 0 136 23 59 28 87 69z" horiz-adv-x="918.9" />

<glyph glyph-name="right-open-big" unicode="&#xe828;" d="M17-30l351 362-351 365q-26 25 0 47 25 25 47 0l384-386q23-26 0-49l-384-386q-22-26-47 0-26 21 0 47z" horiz-adv-x="463.9" />

<glyph glyph-name="left-open-big" unicode="&#xe829;" d="M447-30q25-26 0-47-25-26-47 0l-384 386q-24 23 0 49l384 386q22 25 47 0 25-22 0-47l-351-365z" horiz-adv-x="463.9" />

<glyph glyph-name="down-open-big" unicode="&#xe82a;" d="M76 545l357-344 360 344q21 25 46 0 25-21 0-46l-383-379q-21-21-46 0l-383 379q-25 25 0 46 23 23 49 0z" horiz-adv-x="866.2" />

<glyph glyph-name="up-open-big" unicode="&#xe82b;" d="M792 120l-360 346-357-346q-26-22-49 0-23 23 0 48l383 377q25 25 46 0l383-377q23-25 0-48-25-22-46 0z" horiz-adv-x="864.3" />

<glyph glyph-name="cancel" unicode="&#xe82c;" d="M777 98q0-25-17-44l-88-88q-19-17-44-17t-44 17l-191 192-190-192q-19-17-44-17t-44 17l-89 88q-18 19-18 44t18 44l191 191-191 190q-18 19-18 44t18 44l89 89q18 18 44 18t44-18l190-191 191 191q18 18 44 18t44-18l88-89q17-17 17-44t-17-44l-190-190 190-191q17-17 17-44z" horiz-adv-x="785.2" />

<glyph glyph-name="user" unicode="&#xe82d;" d="M706 58q0-59-34-102t-82-43h-467q-48 0-82 43t-34 102q0 47 4 88t17 83 32 72 51 49 75 19q71-71 170-71t172 71q41 0 74-19t51-49 32-72 18-83 3-88z m-140 485q0-86-61-148t-149-62-148 62-61 148 61 149 148 62 149-62 61-149z" horiz-adv-x="712.9" />

<glyph glyph-name="mail-alt" unicode="&#xe82e;" d="M990 471v-435q0-36-25-61t-62-27h-806q-35 0-61 27t-26 61v435q25-27 55-48 198-135 272-189 32-23 50-36t52-26 60-13h2q27 0 60 13t52 26 50 36q93 67 272 189 32 21 55 48z m0 160q0-43-26-82t-67-68q-206-143-257-177-5-4-22-17t-30-21-28-18-32-15-27-4h-2q-12 0-26 4t-32 15-29 18-30 21-22 17q-50 34-144 99t-112 78q-34 23-64 63t-30 76q0 42 23 70t64 29h806q35 0 62-26t25-62z" horiz-adv-x="1000" />

<glyph glyph-name="fax" unicode="&#xe82f;" d="M166 615q37 0 62-26t26-63v-597q0-37-26-62t-62-26h-70q-36 0-63 26t-25 62v597q0 37 25 63t63 26h70z m756-90q32-18 51-51t19-71v-421q0-58-41-100t-100-41h-474q-36 0-62 26t-26 62v843q0 23 15 38t38 16h369q22 0 48-11t42-27l84-84q15-14 25-41t12-48v-90z m-404-543v70q0 8-5 13t-13 5h-70q-8 0-13-5t-5-13v-70q0-8 5-13t13-5h70q8 0 13 5t5 13z m0 141v70q0 8-5 12t-13 5h-70q-8 0-13-5t-5-12v-70q0-8 5-13t13-5h70q8 0 13 5t5 13z m0 140v70q0 8-5 13t-13 5h-70q-8 0-13-5t-5-13v-70q0-7 5-12t13-5h70q8 0 13 5t5 12z m141-281v70q0 8-5 13t-13 5h-71q-7 0-12-5t-5-13v-70q0-8 5-13t12-5h71q8 0 13 5t5 13z m0 141v70q0 8-5 12t-13 5h-71q-7 0-12-5t-5-12v-70q0-8 5-13t12-5h71q8 0 13 5t5 13z m0 140v70q0 8-5 13t-13 5h-71q-7 0-12-5t-5-13v-70q0-7 5-12t12-5h71q8 0 13 5t5 12z m140-281v70q0 8-5 13t-12 5h-71q-7 0-12-5t-6-13v-70q0-8 6-13t12-5h71q7 0 12 5t5 13z m0 141v70q0 8-5 12t-12 5h-71q-7 0-12-5t-6-12v-70q0-8 6-13t12-5h71q7 0 12 5t5 13z m0 140v70q0 8-5 13t-12 5h-71q-7 0-12-5t-6-13v-70q0-7 6-12t12-5h71q7 0 12 5t5 12z m52 211v141h-87q-22 0-38 15t-15 37v89h-352v-282h492z" horiz-adv-x="1000" />

<glyph glyph-name="lock" unicode="&#xe830;" d="M181 368h279v105q0 58-42 99t-98 40-99-40-40-99v-105z m453-52v-315q0-21-15-36t-37-15h-523q-22 0-37 15t-16 36v315q0 21 16 37t37 15h17v105q0 100 72 172t172 72 173-72 71-172v-105h18q22 0 37-15t15-37z" horiz-adv-x="640.6" />

<glyph glyph-name="company" unicode="&#xe831;" d="M360 614h280v70h-280v-70z m631-351v-263q0-36-26-62t-61-25h-807q-36 0-62 25t-26 62v263h368v-87q0-15 11-25t25-11h174q15 0 25 11t11 25v87h368z m-421 0v-70h-140v70h140z m421 263v-210h-982v210q0 37 26 62t62 26h193v87q0 23 15 37t37 16h316q22 0 37-16t15-37v-87h194q36 0 61-26t26-62z" horiz-adv-x="1000" />

<glyph glyph-name="city" unicode="&#xe832;" d="M780 826q15 0 25-11t11-25v-913q0-15-11-25t-25-11h-703q-14 0-24 11t-11 25v913q0 15 11 25t24 11h703z m-457-159v-34q0-8 5-13t13-5h35q7 0 12 5t5 13v34q0 8-5 13t-12 5h-35q-8 0-13-5t-5-13z m0-141v-34q0-8 5-13t13-5h35q7 0 12 5t5 13v34q0 8-5 13t-12 5h-35q-8 0-13-5t-5-13z m0-139v-36q0-8 5-13t13-5h35q7 0 12 5t5 13v36q0 6-5 11t-12 5h-35q-8 0-13-5t-5-11z m0-141v-36q0-8 5-12t13-5h35q7 0 12 5t5 12v36q0 8-5 13t-12 4h-35q-8 0-13-4t-5-13z m-70-176v35q0 8-5 13t-13 5h-35q-7 0-12-5t-5-13v-35q0-8 5-13t12-5h35q8 0 13 5t5 13z m0 140v36q0 8-5 13t-13 4h-35q-7 0-12-4t-5-13v-36q0-8 5-12t12-5h35q8 0 13 5t5 12z m0 141v36q0 6-5 11t-13 5h-35q-7 0-12-5t-5-11v-36q0-8 5-13t12-5h35q8 0 13 5t5 13z m0 141v34q0 8-5 13t-13 5h-35q-7 0-12-5t-5-13v-34q0-8 5-13t12-5h35q8 0 13 5t5 13z m0 141v34q0 8-5 13t-13 5h-35q-7 0-12-5t-5-13v-34q0-8 5-13t12-5h35q8 0 13 5t5 13z m281-704v105q0 8-5 13t-13 5h-175q-8 0-13-5t-5-13v-105q0-8 5-13t13-5h175q8 0 13 5t5 13z m0 281v36q0 8-5 13t-13 4h-35q-7 0-12-4t-5-13v-36q0-8 5-12t12-5h35q8 0 13 5t5 12z m0 141v36q0 6-5 11t-13 5h-35q-7 0-12-5t-5-11v-36q0-8 5-13t12-5h35q8 0 13 5t5 13z m0 141v34q0 8-5 13t-13 5h-35q-7 0-12-5t-5-13v-34q0-8 5-13t12-5h35q8 0 13 5t5 13z m0 141v34q0 8-5 13t-13 5h-35q-7 0-12-5t-5-13v-34q0-8 5-13t12-5h35q8 0 13 5t5 13z m141-563v35q0 8-5 13t-13 5h-35q-7 0-12-5t-6-13v-35q0-8 6-13t12-5h35q8 0 13 5t5 13z m0 140v36q0 8-5 13t-13 4h-35q-7 0-12-4t-6-13v-36q0-8 6-12t12-5h35q8 0 13 5t5 12z m0 141v36q0 6-5 11t-13 5h-35q-7 0-12-5t-6-11v-36q0-8 6-13t12-5h35q8 0 13 5t5 13z m0 141v34q0 8-5 13t-13 5h-35q-7 0-12-5t-6-13v-34q0-8 6-13t12-5h35q8 0 13 5t5 13z m0 141v34q0 8-5 13t-13 5h-35q-7 0-12-5t-6-13v-34q0-8 6-13t12-5h35q8 0 13 5t5 13z" horiz-adv-x="857.4" />

<glyph glyph-name="post" unicode="&#xe833;" d="M788 278v-269q0-16-11-26t-25-11h-216v216h-145v-216h-215q-16 0-26 11t-11 26v269q0 1 0 2t0 2l324 266 324-266q1-1 1-4z m125 39l-34-41q-5-5-12-6h-2q-8 0-13 3l-389 325-389-325q-7-4-13-3-8 1-13 6l-35 41q-4 6-3 13t6 12l405 337q18 16 42 16t43-16l138-114v109q0 8 5 13t13 6h108q8 0 13-6t5-13v-229l123-103q6-4 6-12t-4-13z" horiz-adv-x="926.8" />

<glyph glyph-name="country" unicode="&#xe834;" d="M155 697q0-41-37-62v-721q0-7-5-12t-13-6h-37q-7 0-12 6t-7 12v721q-35 21-35 62 0 31 21 52t51 22 52-22 22-52z m836-36v-434q0-14-7-22t-22-15q-123-67-210-67-35 0-71 13t-61 27-66 28-80 12q-109 0-264-83-11-5-20-5-14 0-25 10t-10 26v423q0 17 17 30 12 9 45 25 134 68 239 68 61 0 114-16t125-50q21-11 50-11 30 0 66 12t63 26 50 27 31 12q15 0 25-10t11-26z" horiz-adv-x="1000" />

<glyph glyph-name="calendar" unicode="&#xe835;" d="M77-88h158v158h-158v-158z m193 0h175v158h-175v-158z m-193 194h158v174h-158v-174z m193 0h175v174h-175v-174z m-193 210h158v158h-158v-158z m404-404h175v158h-175v-158z m-211 404h175v158h-175v-158z m421-404h158v158h-158v-158z m-210 194h175v174h-175v-174z m-193 473v158q0 7-6 12t-12 6h-35q-7 0-12-6t-6-12v-158q0-7 6-13t12-5h35q7 0 12 5t6 13z m403-473h158v174h-158v-174z m-210 210h175v158h-175v-158z m210 0h158v158h-158v-158z m17 263v158q0 7-4 12t-13 6h-35q-6 0-12-6t-5-12v-158q0-7 5-13t12-5h35q8 0 13 5t4 13z m212 35v-702q0-28-22-49t-49-21h-772q-28 0-49 21t-21 49v702q0 29 21 49t49 21h71v53q0 36 25 62t62 25h35q37 0 62-25t26-62v-53h210v53q0 36 27 62t61 25h35q36 0 63-25t25-62v-53h70q28 0 49-21t22-49z" horiz-adv-x="926.8" />

<glyph glyph-name="doc" unicode="&#xe836;" d="M813 617q16-16 27-41t11-50v-632q0-22-15-37t-38-16h-738q-23 0-37 16t-16 37v878q0 23 16 38t37 16h492q22 0 49-11t41-27z m-244 134v-207h207q-5 17-12 23l-172 172q-6 7-23 12z m212-840v563h-229q-22 0-37 16t-16 36v230h-422v-845h704z" horiz-adv-x="857.4" />

<glyph glyph-name="mobile" unicode="&#xe837;" d="M477 816q41 0 70-29t29-70v-768q0-39-29-68t-70-30h-374q-39 0-69 30t-29 68v768q0 42 29 70t69 29h374z m-187-926q30 0 49 15t20 35q0 21-20 35t-49 14q-27 0-48-15t-21-34 21-35 48-15z m207 148v650h-414v-650h414z" horiz-adv-x="580.1" />

<glyph glyph-name="clock" unicode="&#xe838;" d="M499 526v-246q0-6-5-11t-13-5h-175q-7 0-12 5t-5 11v36q0 8 5 12t12 5h123v193q0 8 5 13t12 4h35q8 0 13-4t5-13z m227-193q0 82-40 150t-108 109-149 40-150-40-108-109-40-150 40-149 108-109 150-40 149 40 108 109 40 149z m123 0q0-114-56-211t-153-153-211-57-212 57-152 153-57 211 57 211 152 154 212 56 211-56 153-154 56-211z" horiz-adv-x="857.4" />

<glyph glyph-name="chat" unicode="&#xe839;" d="M780 438q0-75-52-140t-140-102-193-37q-47 0-96 9-68-48-152-71-20-5-47-9h-2q-6 0-12 5t-5 12q-1 1-1 3t1 4 1 3l1 3t1 3 2 3 3 3 2 2q3 3 13 13t15 16 12 17 13 20 11 25q-68 39-106 96t-39 122q0 77 52 141t140 102 193 38 193-38 140-102 52-141z m210-139q0-66-39-123t-106-96q5-14 11-25t14-20 12-16 14-17 13-14q0 0 2-2t3-3 2-2 2-3l1-3t1-3 1-4-1-3q-2-8-7-13t-12-4q-28 4-47 9-84 23-153 71-49-9-96-9-148 0-258 72 32-3 48-3 88 0 169 25t145 71q67 50 105 116t36 138q0 42-13 84 71-39 112-97t41-126z" horiz-adv-x="1000" />

<glyph glyph-name="tag" unicode="&#xe83a;" d="M257 576q0 30-21 51t-50 20-51-20-21-51 21-49 51-21 50 21 21 49z m593-319q0-30-20-51l-273-273q-22-21-51-21-30 0-50 21l-397 397q-21 21-36 57t-15 65v231q0 29 21 50t50 22h232q29 0 64-15t57-36l398-398q20-20 20-49z" horiz-adv-x="857.4" />

<glyph glyph-name="folder" unicode="&#xe83b;" d="M918 456v-385q0-50-37-86t-86-36h-664q-49 0-86 36t-36 86v524q0 50 36 86t86 37h176q49 0 86-37t36-86v-17h366q50 0 86-36t37-86z" horiz-adv-x="926.8" />

<glyph glyph-name="folder-open" unicode="&#xe83c;" d="M1061 266q0-17-18-37l-187-221q-24-28-67-48t-81-20h-608q-19 0-33 7t-15 24q0 17 17 37l188 221q24 28 67 48t80 20h608q19 0 34-7t15-24z m-192 192v-90h-465q-53 0-110-26t-92-67l-188-221-2-3q0 2-1 7t0 7v537q0 51 37 88t88 37h179q51 0 88-37t37-88v-18h304q52 0 88-37t37-89z" horiz-adv-x="1071.3" />

<glyph glyph-name="forward" unicode="&#xe83d;" d="M991 457q0-15-11-25l-280-281q-10-11-24-11t-25 11-10 25v140h-123q-54 0-97-3t-84-12-73-23-58-38-44-56-26-75-10-99q0-31 3-68 0-4 2-13t1-15q0-8-5-14t-13-5q-9 0-15 9-4 5-8 12t-7 17-5 13q-70 156-70 247 0 109 29 183 89 221 480 221h123v141q0 13 10 24t25 10 24-10l280-281q11-11 11-24z" horiz-adv-x="1000" />

<glyph glyph-name="reply" unicode="&#xe83e;" d="M991 193q0-91-69-247-1-4-6-13t-7-17-7-12q-7-9-16-9-8 0-13 5t-5 14q0 5 1 15t2 13q3 37 3 68 0 55-9 99t-27 76-44 55-58 38-73 23-84 12-97 3h-122v-140q0-14-10-25t-26-11-24 11l-280 281q-11 10-11 25t11 24l280 281q10 10 24 10t26-10 10-24v-141h122q391 0 480-221 29-74 29-183z" horiz-adv-x="1000" />

<glyph glyph-name="cog" unicode="&#xe83f;" d="M569 333q0 58-41 100t-99 41-99-41-41-100 41-99 99-41 99 41 41 99z m281 60v-121q0-7-4-13t-11-7l-102-16q-10-29-21-50 19-26 58-76 6-5 6-12t-5-13q-15-21-54-60t-52-38q-7 0-14 5l-75 59q-25-13-51-21-8-75-15-102-4-16-20-16h-122q-8 0-13 5t-6 12l-16 101q-27 9-49 21l-78-59q-6-5-14-5t-13 5q-69 63-91 93-4 5-4 13 0 6 5 11 8 12 28 37t29 39q-14 28-22 54l-100 15q-7 1-11 7t-5 12v122q0 7 5 13t10 7l102 16q8 24 21 50-22 31-59 75-5 7-5 14 0 5 4 12 15 19 54 59t52 39q7 0 15-5l76-59q23 13 49 21 9 74 17 102 3 16 19 16h122q7 0 13-5t7-12l14-101q28-9 51-20l77 58q5 5 13 5 7 0 14-5 70-66 90-93 4-5 4-12t-4-13q-9-11-29-36t-29-39q15-28 23-53l100-16q7-1 12-7t4-13z" horiz-adv-x="857.4" />

<glyph glyph-name="cog-alt" unicode="&#xe840;" d="M501 334q0 58-42 99t-99 42-99-42-42-99 42-100 99-41 99 41 42 100z m422-282q0 29-22 51t-49 20-49-20-21-51q0-28 21-49t49-21 50 21 21 49z m0 563q0 29-22 50t-49 20-49-20-21-50q0-29 21-50t49-20 50 20 21 50z m-212-231v-101q0-6-4-11t-7-6l-86-14q-6-19-18-41 19-27 49-63 4-6 4-11 0-7-4-11-11-17-45-49t-42-33q-7 0-12 4l-63 50q-21-11-42-17-6-59-13-86-4-13-17-13h-102q-6 0-11 4t-5 10l-13 84q-18 6-41 18l-65-50q-4-4-11-4-6 0-12 4-78 74-78 89 0 5 3 10 5 8 23 29t26 34q-13 23-20 45l-84 13q-5 1-9 5t-3 11v102q0 5 3 10t9 6l85 14q7 18 18 41-19 27-49 63-4 6-4 11 0 7 4 12 11 15 45 48t43 32q6 0 12-4l63-49q19 10 42 18 6 59 13 85 3 12 16 12h102q6 0 11-4t6-9l13-84q18-6 41-17l64 48q5 4 12 4 6 0 11-4 79-73 79-88 0-4-4-10-6-9-23-30t-25-33q13-27 19-45l84-12q6-2 8-6t4-11z m352-293v-77q0-9-82-17-6-15-16-28 28-62 28-76 0-2-2-4-67-40-68-40-5 0-26 27t-28 36q-11-1-17-1t-17 1q-6-10-28-36t-25-27q-1 0-68 40-3 2-3 4 0 14 29 76-10 13-17 28-81 8-81 17v77q0 9 81 17 7 16 17 29-29 62-29 76 0 2 3 4 2 1 19 11t33 18 16 9q4 0 25-25t28-38q12 1 17 1t17-1q27 40 50 62l4 1q2 0 68-38 2-2 2-4 0-14-28-76 9-13 16-29 82-8 82-17z m0 563v-77q0-9-82-18-6-14-16-28 28-62 28-76 0-2-2-4-67-38-68-38-5 0-26 25t-28 38q-11-1-17-1t-17 1q-6-12-28-38t-25-25q-1 0-68 38-3 2-3 4 0 14 29 76-10 14-17 28-81 9-81 18v77q0 9 81 17 7 15 17 28-29 62-29 76 0 2 3 4 2 1 19 11t33 18 16 9q4 0 25-25t28-37q12 1 17 1t17-1q27 39 50 61l4 1q2 0 68-38 2-2 2-4 0-14-28-76 9-13 16-28 82-8 82-17z" horiz-adv-x="1071.3" />

<glyph glyph-name="wrench" unicode="&#xe841;" d="M209 43q0 14-10 25t-25 10-25-10-11-25 11-24 25-11 25 11 10 24z m358 233l-379-379q-21-20-50-20t-51 20l-58 61q-21 20-21 50 0 28 21 50l378 378q22-54 63-96t97-64z m352 242q0-22-13-59-27-74-91-121t-144-46q-103 0-176 73t-72 176 72 175 176 73q32 0 67-9t60-26q9-6 9-15t-9-16l-162-94v-124l107-60q2 2 44 27t74 45 40 20q8 0 13-5t5-14z" horiz-adv-x="926.8" />

<glyph glyph-name="quote-left" unicode="&#xe842;" d="M916-6h-339v340q0 141 100 239t239 100v-113q-94 0-160-67t-66-159h226v-340z m-566 0h-340v340q0 141 100 239t240 100v-113q-94 0-160-67t-66-159h226v-340z" horiz-adv-x="926.8" />

<glyph glyph-name="quote-right" unicode="&#xe843;" d="M10 673h340v-339q0-142-99-242t-241-98v113q94 0 161 66t66 161h-227v339z m567 0h339v-339q0-142-99-242t-240-98v113q93 0 160 66t66 161h-226v339z" horiz-adv-x="926.8" />

<glyph glyph-name="gift" unicode="&#xe844;" d="M516 64v392h-175v-392q0-14 10-21t25-7h105q16 0 26 7t9 21z m-249 461h106l-68 89q-15 16-38 16-22 0-38-14t-14-38 14-37 38-16z m376 53q0 22-15 38t-37 14q-24 0-38-16l-68-89h106q21 0 37 16t15 37z m206-140v-175q0-7-5-12t-13-5h-52v-228q0-22-16-36t-37-16h-595q-21 0-37 16t-15 36v228h-52q-8 0-13 5t-5 12v175q0 8 5 13t13 5h240q-50 0-87 35t-36 87 36 87 87 36q58 0 92-42l70-90 70 90q33 42 92 42 51 0 86-36t36-87-36-87-86-35h240q8 0 13-5t5-13z" horiz-adv-x="857.4" />

<glyph glyph-name="dollar" unicode="&#xe845;" d="M542 175q0-85-55-145t-142-76v-95q0-8-5-13t-13-5h-73q-7 0-13 5t-5 13v95q-37 5-70 18t-56 25-41 25-25 21-10 10q-9 12-1 22l57 75q3 5 12 6t14-5l1-1q62-54 133-69 20-4 41-4 44 0 78 24t34 67q0 16-9 29t-17 23-33 21-36 18-45 17q-20 9-33 14t-34 15-34 17-31 19-29 24-25 26-19 32-11 36-5 44q0 75 54 132t140 74v99q0 7 5 13t13 4h73q8 0 13-4t5-13v-97q32-3 61-13t47-18 36-20 20-17 9-7q9-10 3-21l-45-80q-4-9-12-9-8-2-15 4-2 2-8 7t-21 14-33 18-41 14-46 6q-52 0-86-23t-32-61q0-14 4-27t16-23 22-17 31-18 33-15 38-15q30-10 45-16t42-20 41-24 34-27 29-35 18-42 7-51z" horiz-adv-x="571.3" />

<glyph glyph-name="euro" unicode="&#xe846;" d="M546 71l19-89q2-6-1-12t-10-8h-3q-2-1-6-2t-9-3-12-3-14-3-15-2-19-3-21-2-21 0q-130 0-226 72t-132 195h-52q-7 0-13 5t-5 12v63q0 7 5 12t13 6h36q-1 30 0 57h-36q-8 0-13 5t-5 13v64q0 7 5 12t13 5h54q37 116 134 187t222 71q57 0 107-13 6-2 11-9 4-6 2-13l-24-88q-2-7-8-11t-13-1l-2 1q-3 0-7 1l-9 2t-12 2-15 2-16 1-16 1q-70 0-125-35t-83-98h259q9 0 14-7 5-7 3-14l-12-63q-3-15-18-15h-271q-1-20 0-57h255q8 0 13-7t4-15l-14-63q-1-5-6-9t-11-4h-214q27-65 83-104t126-37q10 0 20 1t19 2 16 2 13 3 10 3l7 1 3 2q7 2 14-2 7-3 9-11z" horiz-adv-x="571.3" />

<glyph glyph-name="pound" unicode="&#xe847;" d="M566 166v-202q0-8-5-13t-13-4h-525q-7 0-12 4t-5 13v82q0 8 5 13t12 5h54v210h-53q-7 0-12 5t-5 13v72q0 8 5 13t12 5h53v122q0 94 67 155t173 61q102 0 184-69 5-5 6-12t-4-11l-56-70q-5-6-13-7-7-1-13 4-2 3-14 11t-38 17-50 10q-48 0-76-26t-29-67v-118h168q8 0 12-5t5-13v-72q0-7-5-13t-12-5h-168v-207h228v99q0 7 5 12t12 5h89q8 0 13-5t5-12z" horiz-adv-x="571.3" />

<glyph glyph-name="rupee" unicode="&#xe848;" d="M496 531v-56q0-7-5-12t-13-5h-91q-12-79-70-129t-151-59q91-97 251-293 8-9 2-19-5-10-16-10h-107q-9 0-14 7-167 200-272 312-5 5-5 12v69q0 8 5 13t13 5h61q72 0 116 23t56 69h-233q-8 0-13 5t-5 12v56q0 8 5 13t13 5h225q-30 62-146 62h-79q-7 0-13 5t-5 12v73q0 8 5 13t13 4h454q8 0 13-4t5-13v-56q0-8-5-13t-13-5h-127q26-33 35-78h93q8 0 13-5t5-13z" horiz-adv-x="501" />

<glyph glyph-name="yen" unicode="&#xe849;" d="M336-52h-94q-8 0-13 5t-5 12v181h-157q-7 0-13 5t-5 13v56q0 8 5 12t13 5h157v47h-157q-7 0-13 5t-5 12v57q0 8 5 13t13 5h116l-175 316q-4 9 0 18 6 9 15 9h106q11 0 16-10l118-233q11-21 31-68 5 13 17 37t15 34l104 229q4 11 16 11h104q10 0 15-9 5-8 1-18l-172-316h118q7 0 13-5t5-13v-57q0-7-5-12t-13-5h-159v-47h159q7 0 13-5t5-12v-56q0-8-5-13t-13-5h-159v-181q0-6-5-12t-12-5z" horiz-adv-x="573.2" />

<glyph glyph-name="rouble" unicode="&#xe84a;" d="M577 479q0 55-36 88t-94 35h-174v-245h174q59 0 94 33t36 89z m129 0q0-105-69-172t-178-67h-186v-64h276q7 0 12-5t5-13v-69q0-8-5-13t-12-5h-276v-105q0-8-5-12t-12-5h-91q-8 0-13 5t-5 12v105h-122q-8 0-13 5t-5 13v69q0 8 5 13t13 5h122v64h-122q-8 0-13 5t-5 13v81q0 7 5 12t13 6h122v343q0 8 5 13t13 5h294q109 0 178-67t69-172z" horiz-adv-x="712.9" />

<glyph glyph-name="try" unicode="&#xe84b;" d="M634 333q0-104-51-192t-140-140-192-51h-87q-8 0-13 4t-5 13v333l-117-36q-2-1-5-1-6 0-11 4-7 5-7 14v70q0 12 13 17l127 39v49l-117-35q-2-1-5-1-6 0-11 3-7 6-7 15v69q0 13 13 18l127 38v137q0 7 5 12t13 5h87q7 0 12-5t5-12v-99l204 62q9 3 16-2t7-14v-70q0-12-13-17l-214-66v-50l204 63q9 3 16-3t7-14v-70q0-12-13-16l-214-67v-265q103 8 173 83t71 178q0 8 5 13t13 5h87q8 0 12-5t5-13z" horiz-adv-x="640.6" />

<glyph glyph-name="won" unicode="&#xe84c;" d="M291 134l44 164h-87l41-164q1-1 1-2t0-2q0 1 1 2t0 2z m64 234l19 70h-160l17-70h124z m105 0h75l-18 70h-39z m245-234l43 164h-89l45-164q0 0 0-2t1-2q0 1 0 2t0 2z m61 234l18 70h-162l18-70h126z m224-17v-35q0-8-5-13t-13-5h-116l-89-337q-4-13-17-13h-87q-14 0-18 13l-90 337h-115l-91-337q-4-13-17-13h-87q-6 0-11 4t-5 9l-88 337h-113q-8 0-13 5t-5 13v35q0 7 5 12t13 5h96l-19 70h-77q-8 0-13 5t-5 13v34q0 8 5 13t13 5h59l-49 188q-3 9 3 16 5 7 14 7h76q13 0 16-14l49-197h197l53 197q4 14 17 14h68q14 0 18-14l53-197h200l51 197q3 14 17 14h75q9 0 14-7 6-7 3-16l-50-188h60q8 0 13-5t5-13v-34q0-8-5-13t-13-5h-79l-19-70h98q8 0 13-5t5-12z" horiz-adv-x="1000" />

<glyph glyph-name="bitcoin" unicode="&#xe84d;" d="M653 520q11-107-76-151 68-16 103-60t26-124q-5-42-19-74t-38-51-56-34-71-20-85-10v-148h-90v146q-47 0-71 1v-147h-90v148q-10 0-31 1t-32 0h-117l19 107h64q28 0 34 29v235h9q-4 0-9 0v169q-8 38-53 38h-64v96l124-1q37 0 56 1v148h90v-145q47 2 71 2v143h90v-148q46-4 82-13t65-26 49-45 20-67z m-125-318q0 21-8 37t-22 27-34 18-37 11-44 5-40 2-37 0-29-2v-197q6 0 22 0t28 0 31 1 34 2 34 5 32 9 27 11 23 18 15 23 5 30z m-41 277q0 20-7 35t-18 24-28 16-32 10-36 5-33 1-33 0-23-1v-179q3 0 21 0t27 0 29 1 32 3 30 7 28 10 22 16 16 23 5 29z" horiz-adv-x="712.9" />

<glyph glyph-name="ok" unicode="&#xe84e;" d="M990 562q0-25-18-43l-544-544q-18-17-43-17t-43 17l-315 315q-17 18-17 43t17 43l86 86q18 18 43 18t43-18l186-187 415 416q18 18 43 18t43-18l86-86q18-17 18-43z" horiz-adv-x="1000" />

<glyph glyph-name="chevron-left" unicode="&#xe84f;" d="M5 333l383 384q18 18 43 18 23 0 42-18 17-18 17-43t-17-42l-298-299 298-299q17-17 17-42t-17-42q-18-18-42-18t-43 18z" horiz-adv-x="495.1" />

<glyph glyph-name="chevron-right" unicode="&#xe850;" d="M5-7q0 24 17 42l300 298-300 299q-17 17-17 43t17 42 44 18 42-18l382-384-382-383q-19-18-42-18t-44 18q-17 17-17 43z" horiz-adv-x="495.1" />

<glyph glyph-name="export" unicode="&#xe851;" d="M8-159v985h486v-162h-325v-661h662v181l161 171v-514h-984z m228 273q0 85 12 156t28 122 46 91 56 67 66 44 69 27 71 14 66 6 62 0v185l280-281-280-281v202q-107 0-157-3t-119-20-100-54-60-105-40-170z" horiz-adv-x="1000" />

<glyph glyph-name="star" unicode="&#xe852;" d="M919 431q0-11-15-26l-198-193 47-274q0-4 0-11 0-11-6-19t-17-9q-9 0-21 7l-246 129-245-129q-12-7-23-7t-16 9-6 19q0 4 1 11l47 274-199 193q-14 15-14 26 0 21 31 26l274 39 123 249q11 23 27 23t27-23l123-249 274-39q32-5 32-26z" horiz-adv-x="926.8" />

<glyph glyph-name="star-empty" unicode="&#xe853;" d="M631 236l166 163-230 33-104 209-103-209-231-33 167-163-40-230 207 109 207-109z m288 195q0-11-15-26l-198-193 47-274q0-4 0-11 0-28-23-28-9 0-21 7l-246 129-245-129q-12-7-23-7t-16 9-6 19q0 4 1 11l47 274-199 193q-14 15-14 26 0 21 31 26l274 39 123 249q11 23 27 23t27-23l123-249 274-39q32-5 32-26z" horiz-adv-x="926.8" />

<glyph glyph-name="plus-squared" unicode="&#xe854;" d="M709 298v71q0 13-10 24t-24 10h-176v176q0 15-11 25t-24 10h-70q-15 0-25-10t-10-25v-176h-175q-15 0-25-10t-11-24v-71q0-14 11-25t25-9h175v-176q0-14 10-25t25-11h70q14 0 24 11t11 25v176h176q14 0 24 9t10 25z m141 299v-527q0-65-46-111t-112-47h-526q-66 0-112 47t-46 111v527q0 64 46 111t112 47h526q65 0 112-47t46-111z" horiz-adv-x="857.4" />

<glyph glyph-name="minus-squared" unicode="&#xe855;" d="M709 298v71q0 13-10 24t-24 10h-491q-15 0-25-10t-11-24v-71q0-14 11-25t25-9h491q14 0 24 9t10 25z m141 299v-527q0-65-46-111t-112-47h-526q-66 0-112 47t-46 111v527q0 64 46 111t112 47h526q65 0 112-47t46-111z" horiz-adv-x="857.4" />

<glyph glyph-name="plus-squared-alt" unicode="&#xe856;" d="M637 351v-35q0-8-5-13t-12-5h-192v-192q0-8-5-12t-13-5h-35q-8 0-13 5t-5 12v192h-192q-7 0-12 5t-5 13v35q0 7 5 12t12 5h192v193q0 7 5 12t13 5h35q8 0 13-5t5-12v-193h192q8 0 12-5t5-12z m70-245v455q0 36-26 61t-61 26h-455q-36 0-61-26t-27-61v-455q0-36 27-61t61-27h455q36 0 61 27t26 61z m70 455v-455q0-65-46-111t-111-46h-455q-65 0-111 46t-46 111v455q0 64 46 110t111 47h455q64 0 111-47t46-110z" horiz-adv-x="785.2" />

<glyph glyph-name="minus-squared-alt" unicode="&#xe857;" d="M637 351v-35q0-8-5-13t-12-5h-455q-7 0-12 5t-5 13v35q0 7 5 12t12 5h455q8 0 12-5t5-12z m70-245v455q0 36-26 61t-61 26h-455q-36 0-61-26t-27-61v-455q0-36 27-61t61-27h455q36 0 61 27t26 61z m70 455v-455q0-65-46-111t-111-46h-455q-65 0-111 46t-46 111v455q0 64 46 110t111 47h455q64 0 111-47t46-110z" horiz-adv-x="785.2" />

<glyph glyph-name="truck" unicode="&#xe858;" d="M337 79q0 30-22 52t-50 21-51-21-23-52 23-51 51-21 50 21 22 51z m-218 291h218v145h-90q-7 0-12-5l-111-111q-5-5-5-12v-17z m726-291q0 30-21 52t-51 21-51-21-22-52 22-51 51-21 51 21 21 51z m145 617v-580q0-8-2-15t-8-11-9-6-13-4-13-1-15 0-12 0q0-60-42-103t-103-42-103 42-43 103h-217q0-60-43-103t-102-42-103 42-43 103h-36q-2 0-13 0t-15 0-12 1-13 4-10 6-8 11-2 15q0 15 10 25t26 11v181q0 5 0 21t0 21 2 19 3 22 8 17 13 17l112 112q11 11 29 18t33 8h91v108q0 16 11 27t25 10h581q15 0 25-10t11-27z" horiz-adv-x="1000" />

<glyph glyph-name="lifebuoy" unicode="&#xe859;" d="M500 825q100 0 191-39t157-104 105-158 39-191-39-191-105-157-157-104-191-40-191 40-157 104-105 157-39 191 39 191 105 158 157 104 191 39z m0-69q-104 0-198-51l107-106q45 16 91 16t92-16l107 106q-95 51-199 51z m-372-620l106 106q-15 45-15 91t15 92l-106 107q-50-94-50-199t50-197z m372-225q104 0 199 50l-107 107q-46-16-92-16t-91 16l-107-107q94-50 198-50z m0 212q88 0 150 62t61 148-61 150-150 61-149-61-62-150 62-148 149-62z m266 119l106-106q50 93 50 197t-50 199l-106-107q16-45 16-92t-16-91z" horiz-adv-x="1000" />

<glyph glyph-name="pencil" unicode="&#xe85a;" d="M210-16l50 51-131 130-50-51v-60h71v-70h60z m290 516q0 12-12 12-5 0-9-4l-302-301q-4-4-4-10 0-12 13-12 5 0 9 4l302 301q3 4 3 10z m-30 106l231-231-462-463h-231v232z m380-53q0-29-20-50l-93-93-231 232 93 92q20 21 49 21 29 0 51-21l131-131q20-22 20-50z" horiz-adv-x="857.4" />

<glyph glyph-name="users" unicode="&#xe85b;" d="M334 333q-88-3-145-70h-74q-44 0-76 22t-30 65q0 194 67 194 4 0 25-11t53-23 65-12q38 0 74 13-3-21-3-37 0-77 44-141z m589-350q0-65-40-104t-107-38h-480q-67 0-106 38t-41 104q0 29 2 57t8 60 14 60 24 53 34 45 47 29 61 11q6 0 24-12t40-25 58-27 75-12 74 12 59 27 40 25 24 12q34 0 61-11t46-29 35-45 23-53 15-60 8-60 2-57z m-563 702q0-58-41-100t-100-41-99 41-42 100 42 99 99 42 100-42 41-99z m387-211q0-87-62-149t-149-62-149 62-62 149 62 149 149 62 149-62 62-149z m316-124q0-42-31-65t-75-22h-74q-56 67-145 70 44 64 44 141 0 16-3 37 37-13 73-13 33 0 66 12t53 23 24 11q68 0 68-194z m-70 335q0-58-41-100t-100-41-99 41-42 100 42 99 99 42 100-42 41-99z" horiz-adv-x="1071.3" />

<glyph glyph-name="video" unicode="&#xe85c;" d="M220-18v71q0 13-10 24t-25 10h-71q-13 0-24-10t-11-24v-71q0-14 11-25t24-11h71q14 0 25 11t10 25z m0 210v71q0 14-10 25t-25 10h-71q-13 0-24-10t-11-25v-71q0-14 11-24t24-10h71q14 0 25 10t10 24z m0 212v70q0 14-10 24t-25 11h-71q-13 0-24-11t-11-24v-70q0-15 11-25t24-11h71q14 0 25 11t10 25z m562-422v281q0 14-11 25t-24 10h-422q-14 0-25-10t-10-25v-281q0-14 10-25t25-11h422q14 0 24 11t11 25z m-562 632v70q0 15-10 26t-25 9h-71q-13 0-24-9t-11-26v-70q0-14 11-24t24-11h71q14 0 25 11t10 24z m773-632v71q0 13-11 24t-25 10h-70q-14 0-24-10t-11-24v-71q0-14 11-25t24-11h70q15 0 25 11t11 25z m-211 422v280q0 15-11 26t-24 9h-422q-14 0-25-9t-10-26v-280q0-15 10-25t25-11h422q14 0 24 11t11 25z m211-212v71q0 14-11 25t-25 10h-70q-14 0-24-10t-11-25v-71q0-14 11-24t24-10h70q15 0 25 10t11 24z m0 212v70q0 14-11 24t-25 11h-70q-14 0-24-11t-11-24v-70q0-15 11-25t24-11h70q15 0 25 11t11 25z m0 210v70q0 15-11 26t-25 9h-70q-14 0-24-9t-11-26v-70q0-14 11-24t24-11h70q15 0 25 11t11 24z m69 88v-738q0-36-25-62t-62-26h-878q-36 0-62 26t-26 62v738q0 36 26 62t62 26h878q36 0 62-26t25-62z" horiz-adv-x="1071.3" />

<glyph glyph-name="menu" unicode="&#xe85d;" d="M848 89v-70q0-14-10-24t-25-11h-768q-15 0-25 11t-11 24v70q0 14 11 24t25 11h768q14 0 25-11t10-24z m0 280v-71q0-14-10-24t-25-10h-768q-15 0-25 10t-11 24v71q0 13 11 24t25 10h768q14 0 25-10t10-24z m0 278v-69q0-14-10-24t-25-11h-768q-15 0-25 11t-11 24v69q0 15 11 26t25 10h768q14 0 25-10t10-26z" horiz-adv-x="857.4" />

<glyph glyph-name="desktop" unicode="&#xe85e;" d="M993 245v458q0 7-5 11t-13 6h-878q-7 0-12-6t-6-11v-458q0-7 6-11t12-5h878q7 0 13 5t5 11z m69 458v-597q0-37-25-62t-62-27h-298q0-20 9-42t16-40 9-23q0-14-10-25t-24-11h-281q-15 0-25 11t-11 25q0 8 9 24t18 39 9 42h-299q-36 0-62 27t-26 62v597q0 36 26 62t62 25h878q36 0 62-25t25-62z" horiz-adv-x="1071.3" />

<glyph glyph-name="doc-inv" unicode="&#xe85f;" d="M569 544v260q13-8 21-16l223-224q8-7 16-20h-260z m-70-18q0-21 16-36t37-16h299v-580q0-22-15-37t-38-16h-738q-23 0-37 16t-16 37v878q0 23 16 38t37 16h439v-300z" horiz-adv-x="857.4" />

<glyph glyph-name="circle" unicode="&#xe860;" d="M849 333q0-114-56-211t-153-153-211-57-212 57-152 153-57 211 57 211 152 154 212 56 211-56 153-154 56-211z" horiz-adv-x="857.4" />

<glyph glyph-name="circle-empty" unicode="&#xe861;" d="M429 632q-81 0-150-40t-108-109-40-150 40-149 108-109 150-40 149 40 108 109 40 149-40 150-108 109-149 40z m420-299q0-114-56-211t-153-153-211-57-212 57-152 153-57 211 57 211 152 154 212 56 211-56 153-154 56-211z" horiz-adv-x="857.4" />

<glyph glyph-name="circle-thin" unicode="&#xe862;" d="M429 684q-72 0-136-28t-112-74-75-112-28-137 28-136 75-111 112-76 136-27 136 27 111 76 75 111 28 136-28 137-75 112-111 74-136 28z m420-351q0-114-56-211t-153-153-211-57-212 57-152 153-57 211 57 211 152 154 212 56 211-56 153-154 56-211z" horiz-adv-x="857.4" />

<glyph glyph-name="mini-cart" unicode="&#xe863;" d="M230 518c0 24 18 44 42 44 24 0 44-20 44-44 0-23-20-43-44-43-24 0-42 20-42 43z m470 0c0 24 19 44 42 44 24 0 42-20 42-44 0-23-18-43-42-43-23 0-42 20-42 43z m-480 119c-64 0-113-54-113-119l-66-557c0-66 50-120 112-120h695c61 0 111 54 111 120l-66 557c0 65-49 119-113 119z m544 0c-26 108-133 189-262 189s-236-81-262-189h79c24 69 96 121 183 121s159-52 183-121z" horiz-adv-x="1000" />

<glyph glyph-name="paper-plane" unicode="&#xe864;" d="M977 820q18-13 14-36l-139-843q-3-16-18-25-8-5-18-5-6 0-13 3l-249 102-133-162q-9-13-26-13-7 0-12 2-11 4-17 13t-7 21v192l475 580-587-508-217 90q-20 8-22 30-1 22 18 32l913 528q9 5 18 5 11 0 20-6z" horiz-adv-x="1000" />

<glyph glyph-name="attention-alt" unicode="&#xe865;" d="M313 43v-157q0-19-14-31t-31-14h-179q-18 0-32 14t-13 31v157q0 17 13 31t32 13h179q18 0 31-13t14-31z m21 737l-20-537q-1-17-15-31t-31-13h-179q-18 0-32 13t-15 31l-19 537q-1 18 13 32t30 14h224q18 0 32-14t12-32z" horiz-adv-x="357.4" />

<glyph glyph-name="info" unicode="&#xe866;" d="M354 53v-70q0-15-10-24t-25-11h-280q-15 0-25 11t-10 24v70q0 15 10 24t25 11h34v210h-34q-15 0-25 11t-10 24v70q0 15 10 25t25 10h210q15 0 24-10t11-25v-315h35q14 0 25-11t10-24z m-70 631v-105q0-15-11-25t-24-11h-140q-14 0-25 11t-11 25v105q0 13 11 24t25 11h140q15 0 24-11t11-24z" horiz-adv-x="357.4" />

<glyph glyph-name="compare-link" unicode="&#xe867;" d="M314 484h479c35 0 63-29 63-63v-396c0-35-28-64-63-64h-479c-35 0-64 29-64 64v396c0 34 29 63 64 63z m444-92h-410v-339h410v339z m-143 177h-99v44h-408v-330h57v-93h-91c-36 0-65 30-65 64v387c0 35 29 65 65 65h478c35 0 63-30 63-65v-72z" horiz-adv-x="865.2" />

<glyph glyph-name="cat-default" unicode="&#xe868;" d="M8 334c0 272 221 491 492 491s492-219 492-491c0-271-221-492-492-492s-492 221-492 492z" horiz-adv-x="1000" />

<glyph glyph-name="cat-computer" unicode="&#xe869;" d="M303 767c-12-4-25-11-31-17-7-8-13-18-17-30-2-6-2-8-4-49v-44l6-6 15-2c23 0 27 0 29 6 2 4 2 4 2 37s2 36 4 40c0 2 4 6 6 8 1 2 5 4 7 6l4 2h594l4-2c8-4 14-10 16-18 2-6 2-20 2-209v-202l-2-8c-2-6-6-12-14-16l-4-2-254-2c-142 0-254 0-254 0s-2-2-4-4c-3-1-3-1-3-22 0-18 0-21 5-23 2 0 37-2 79-2h76l2-4c1-2 1-4 1-21 0-15 0-15-1-19-4-2-10-4-16-4-4 0-8-2-27-6-11-4-31-10-35-14 0 0-2-2-2-2s-4-2-5-4c-23-18-12-36 29-51 13-4 42-10 71-15 21-2 69 0 86 2 31 5 54 9 66 13 2 2 3 2 3 2 2 0 4 1 4 1 2 0 4 2 4 2 4 0 16 8 23 14 8 8 8 8 8 14 0 11-15 24-46 34-6 4-27 8-38 10-16 2-16 2-16 25 0 17 0 19 2 21s10 2 127 2c86 0 129 2 133 2 24 5 42 21 52 45l1 8v226c0 215 0 225-1 231-8 24-24 38-46 45l-8 4h-314c-290 0-315 0-319-2z m-269-204c-10-2-18-8-23-18-2-4-2-8-2-314v-312l2-4c4-5 9-11 15-15 4-2 6-2 154-2 136 0 146 0 150 2 6 4 10 8 14 11 7 10 7-13 7 316 0 334 2 310-7 322-4 6-6 8-14 12-4 2-6 2-148 2-79 0-146 0-148 0z m273-57c6-4 6-6 6-44 0-39 0-40-8-42-2 0-50 0-129 0h-125l-2 2c-5 1-5 1-5 40v38l7 6h127c85 0 127 0 129 0z m-2-131c8-2 8-4 8-44v-36l-2-4-4-2h-127c-125 0-129 0-131 2l-5 2v36c0 23 0 37 2 39 3 7-4 7 132 7 89 0 123 0 127 0z m-118-259c20-4 34-18 41-35 7-39-27-71-63-62-18 6-31 20-35 39-4 8-4 12 0 23 4 17 17 29 35 35 11 2 15 2 22 0z" horiz-adv-x="1000" />

<glyph glyph-name="cat-couch" unicode="&#xe86a;" d="M343 824c-2 0-4-2-10-2-8-2-21-6-31-8-36-14-71-44-90-76-10-16-17-35-21-51-4-17-4-17-4-100l-2-77h-2c-2 0-8 0-16 0-13 2-24 0-38-4-4-2-21-9-24-11-14-9-28-23-35-36-2 0-6-10-10-20-2-2-4-11-6-19-2-7-2-213 0-221 4-17 8-28 18-40 9-16 23-28 40-36 17-10 31-12 55-14h18l2-125c0-141 0-131 6-137 5-6 5-6 51-6h43l5 4c6 2 12 8 14 12s4 10 6 18c0 2 2 8 4 16s3 16 3 18c2 2 4 10 6 17 2 6 4 13 4 15s0 4 2 8 6 23 8 29c0 0 2 10 4 18s4 14 4 16c2 2 4 10 5 18s4 16 4 18c2 7 5 22 7 26 0 2 2 4 2 6 2 10 6 27 8 29 0 0 58 0 127 0h125l4-10c2-13 4-19 6-25 0-2 2-9 4-13 0-4 2-12 4-15 2-4 2-10 2-12 1-2 1-8 3-12s2-10 4-12c0-2 2-8 4-16s3-16 3-18c0-2 2-8 4-11 0-4 2-10 2-12 2-4 2-6 2-6s2-4 2-6c0-2 2-9 4-17 2-7 4-15 6-17 0-2 2-10 4-18s4-14 4-16c3-18 7-22 17-28l6-4h42c38 0 44 0 48 2s8 8 10 12c1 4 1 10 1 129v125h18c17 0 26 2 40 6 20 6 34 15 48 32 10 10 14 16 21 33 2 4 4 13 6 19 0 2 0 4 2 4 2 2 2 215 0 215s-2 0-2 4c-2 6-4 15-6 19 0 0-2 4-4 8-5 10-9 15-17 25-12 14-21 21-34 26-18 8-33 12-52 10-8 0-14 0-16 0h-2l-2 77c0 58 0 81-1 85 0 4-2 9-2 13-8 35-30 69-56 95-25 22-62 38-91 42-4 0-5 2-5 2 0 2-313 2-313 0z m311-46c13-2 19-4 33-8 27-12 53-36 67-65 6-12 8-22 12-37 2-9 2-15 2-94v-84l-2-2c-20-16-32-33-39-55-4-13-4-15-4-57v-42h-447v40c0 35 0 43-2 48-4 19-10 31-22 46-6 8-14 16-19 20l-2 2v84c0 89 0 87 4 107 3 10 5 14 9 25 14 26 35 46 60 60 14 6 19 8 37 12l11 2h146c131 0 148 0 156-2z m-475-314c8-2 14-4 16-5 0 0 1 0 5-2s18-16 20-22c2-2 4-3 4-5 2-2 4-6 5-15 2-6 2-10 2-58 0-56 0-54 5-62 2-1 6-3 8-5 4-2 12-2 256-2 242 0 250 0 254 2 2 2 6 4 8 5 6 8 6 6 6 62 0 50 0 52 1 60 11 42 58 63 94 43 16-7 29-21 33-36 5-13 5-9 5-113 0-106 0-100-5-114-5-17-21-32-37-38-15-6 10-4-361-4-332 0-342 0-349 2-4 0-8 2-10 2-16 6-33 23-36 38-6 14-6 8-6 114 0 92 0 98 2 104 4 15 7 22 16 32 12 10 20 15 38 19 5 2 18 0 26-2z m146-357c0 0 0-4-2-10-2-4-2-9-4-11 0-2-1-10-3-16-2-7-4-15-4-17 0-4-4-11-6-19-2-6-4-14-4-16s0-6-2-8c0-3-6-22-6-26-2-2-2-6-2-8-2-2-2-6-3-9 0-4-2-10-2-12-2-4-2-6-2-8-2-2-4-8-6-15s-3-15-3-17c-2-10-8-28-8-30 0 0-8 0-20 0h-17v113c0 59 0 109 0 111 0 0 11 0 48 0 40 0 46 0 46-2z m443-109v-113h-18c-12 0-20 0-20 0-2 2-5 16-7 28 0 2-2 9-6 17-1 8-3 17-3 19s-2 6-2 10c-2 6-4 9-4 11s0 6-2 6c0 0 0 2 0 6-2 2-4 10-6 17s-4 15-4 17c0 2-2 10-4 18-4 8-5 15-5 17s-2 6-2 8c-2 9-6 23-6 27-2 2-2 7-4 13-2 4-2 10-2 10s21 0 46 0h49z" horiz-adv-x="1000" />

<glyph glyph-name="cat-garden" unicode="&#xe86b;" d="M841 684c-12-4-18-8-24-18-1-4-1-6-1-54v-51l-4-4c-2-2-6-4-8-6 0 0-18-14-37-29-18-16-37-31-41-35s-8-6-10-9c0 0-8-6-16-14-8-6-27-23-45-37-17-14-33-27-37-29-2-4-6-6-10-8-9-10-11-12-11-10-2 0-2 8-2 24-2 56-4 118-6 145 0 18-2 47-2 63-2 35-2 37-10 45-10 9 10 9-213 9-175 0-199 0-203-2-10-4-17-11-19-23 0-4-2-20-2-37 0-20-2-33-2-33-2-2-14-2-53-2-37 0-53 0-57-2-5-2-11-8-15-16l-2-6v-69c0-65 0-68 2-72 2-6 6-10 13-16 12-8 20-12 20-12 2-2 6-4 10-8 6-1 10-5 11-5 0 0 6-4 10-6 6-4 12-8 16-12 6-2 10-6 12-6 0 0 5-4 9-6 4-4 8-6 10-7l2-2-2-30c-4-88-4-90-4-193 0-100 0-102 2-106 2-5 10-11 16-13s19-2 222-2c247 0 223-2 235 10 8 7 8 11 6 37 0 13 0 52 0 123 0 56-2 111-2 121s-2 21-2 25v10l6 4c7 6 13 12 23 19 4 4 25 22 49 41 23 18 43 36 47 38 2 1 6 5 8 7 3 2 13 12 23 20s27 21 39 31c12 10 22 19 24 21 1 2 11 9 27 21 6 8 8 8 12 8 2-2 5-2 9-2s14-2 20-2c6-2 17-2 25-4 8 0 20-2 28-4 23-2 33 0 43 10 7 8 9 14 9 25 0 14-2 16-41 59-6 6-13 16-19 21-6 6-16 16-20 22-37 39-37 39-43 43-8 4-19 4-25 0z m-311-102c2-15 2-45 2-64 2-20 2-52 4-67 2-73 2-94 4-127 0-20 2-47 2-61 2-16 2-62 2-125v-102h-367v82c0 65 0 86 2 106 0 14 2 31 2 37s0 18 0 25c2 8 2 26 2 40 2 29 4 60 6 101 0 16 2 31 2 35 0 6 0 22 1 38 2 67 4 94 4 100 0 2 0 6 0 8 2 2 18 2 168 2l166-2z m-396-76c0-15-2-71-2-81-2-6-2-17-2-21 0-12 0-12-2-12s-4 0-4 2c0 0-4 2-8 6-6 2-9 6-11 6-8 5-18 11-20 13-2 0-6 2-10 6l-8 6v39c0 23 0 40 0 40s16 2 34 0h35z" horiz-adv-x="1000" />

<glyph glyph-name="cat-gift" unicode="&#xe86c;" d="M363 824c0 0-2-2-4-2-3 0-17-6-25-8-10-6-29-21-32-28-8-16-10-20-10-36 0-16 4-28 15-45 2-6 6-10 6-12 4-4 13-17 25-29 4-3 6-7 6-7s-8 2-16 4c-4 2-8 3-10 3-1 0-7 2-14 6-64 21-133 33-178 35h-16l-4-4c-6-4-10-10-10-18 0-6 2-11 8-15l4-4 24-1c14-2 27-2 31-4 21-2 36-6 46-8 4 0 8-2 10-2 4 0 6-2 19-4 9-2 21-6 33-10 4 0 7-2 11-4 4 0 8-2 10-2 2-2 4-2 4-2 2 0 4 0 6-2 3 0 9-2 13-3 2 0 7-2 11-4 6-2 12-5 14-5s4 0 6-2c0 0 4-2 6-2 4-2 6-2 7-4 2 0 6-2 7-2 4-2 6-4 8-4 6-2 25-10 27-12 8-2-7-2-144-2-161 0-151 0-169-5-17-8-32-24-38-40-4-12-4-14-4-76 0-69 0-67 6-83 6-9 13-16 20-24 8-6 12-8 22-12 8-2 10-2 28-2 14-2 22-2 22-2 0-2 0-95 0-213 0-207 0-213 2-221 4-16 9-26 19-36 10-10 23-20 36-26 12-4 4-4 287-4 229 0 267 0 275 2 13 2 23 8 34 16 13 10 21 21 27 34 8 18 8-2 8 235 0 169 0 211 0 213 2 0 14 2 32 2 33 0 35 0 49 6 5 4 17 14 22 20 6 5 14 20 14 28 2 2 2 4 4 4s2 125 0 125c-2 0-2 2-4 6 0 6-8 21-14 26-11 12-24 22-40 25-9 2-11 2-154 2-137 0-153 0-145 2 2 2 20 10 26 12 4 2 20 8 23 10 2 0 6 2 8 2 2 2 6 4 10 4 4 1 9 3 13 5 8 2 35 11 41 13 2 0 8 2 10 2 16 6 32 10 59 16 24 6 54 10 84 12 20 1 20 1 23 5 6 4 8 9 8 15 0 8-2 14-10 18l-3 4h-20c-10 0-22-2-30-2-24-4-39-6-54-10-4 0-10-2-16-4-7-2-15-4-25-6-16-4-24-7-30-7-4-2-10-4-16-6s-11-4-13-4c-2 0-4-2-6-2s-7-1-13-3c-4-2-10-4-10-4-2 0 2 4 6 7 19 23 36 48 40 66 6 15 6 32 0 44-6 15-23 32-38 40-2 0-6 2-6 2-4 2-13 6-17 6-2 0-4 2-4 2-2 2-27 2-27 0 0 0-2 0-4-2-3 0-9-2-17-6-16-8-33-25-46-46-12-18-29-56-35-75 0-2 0-4-2-6 0-2-2-6-2-10-2-2-2-5-4-5 0 0-4 7-6 17-5 17-9 25-11 31-1 0-1 2-1 4 0 0-12 24-18 34-20 31-36 50-58 58-6 2-9 4-11 4s-4 2-6 2c0 2-25 2-25 0z m23-44c19-6 39-32 55-72 4-11 4-15 8-21 0-4 2-8 2-10 4-7 10-30 12-42 2-4 4-12 4-13 2-7 2-11 0-11 0 0-6 4-8 4 0 0-2 1-6 3-4 4-17 13-19 15 0 0-2 2-6 6-17 14-48 40-65 58-4 6-15 21-15 23 0 0-2 2-4 4-6 8-10 17-10 26 0 10 2 14 10 20 12 10 30 16 42 10z m246 0c12-4 23-10 27-18 4-6 4-12 2-19-8-25-33-54-87-98-11-10-44-34-46-34s-2 0-2 2c2 2 2 3 2 5 2 7 4 17 6 23 0 4 2 10 4 16 2 4 2 7 4 9 0 2 0 4 0 6 2 4 4 9 6 13 1 10 9 29 16 45 14 26 30 46 45 52 5 2 15 2 23-2z m-155-316c0-55 0-79 0-79-2-2-32-2-181-2-129 0-181 0-184 2-8 0-12 4-18 10-8 10-8 6-8 69 0 54 0 54 2 60 4 8 10 14 20 17 4 2 16 2 186 2h183z m413 77c7-1 17-11 19-17s2-12 2-62v-53l-4-6c-4-10-12-16-21-18-6-2-365-2-365 0 0 0-2 135 0 156 0 2 36 2 182 2 171 0 183 0 187-2z m-413-200c2-2 2-454 0-456 0 0-60 0-131 0-127 0-129 0-133 2-12 6-21 16-25 26-2 6-2 21-2 217 0 116 0 211 2 211 0 2 289 2 289 0z m311-213v-213l-2-6c-4-10-12-16-19-20l-8-4h-119c-66 0-119 0-119 0-2 2-2 454 0 456 0 0 51 0 134 0h133z" horiz-adv-x="1000" />

<glyph glyph-name="cat-shirt" unicode="&#xe86d;" d="M257 706c0-2-40-20-88-45-48-25-88-44-90-44 0-2-5-4-11-8-8-2-14-6-14-6-2 0-4-2-7-4s-6-4-10-6c-2 0-4 0-4-2-9-3-17-7-21-12-2-4-2-6-2-12 0-4 0-10 2-12 0 0 8-12 16-22 7-12 13-24 15-24 0-2 4-6 6-10 3-4 5-8 5-8s2-4 4-6c2-2 4-4 4-4s2-4 2-6c2-2 4-4 4-4s2-4 4-6c2-2 3-4 3-4 0-2 0-3 2-5s4-4 4-6 52-74 54-76c2-2 6-4 10-6s5-2 22 4c2 0 6 2 10 4 4 0 10 1 12 1 2 2 7 4 10 4 4 2 8 2 10 4 4 0 8 2 12 2 4 2 8 4 12 4 2 2 5 2 5 2h3v-418l4-4c2-3 4-5 8-8l4-2h484l4 2c4 3 6 5 8 8l2 4 2 209v209h2c2 0 6 0 7-2 1 0 7-2 11-4 4 0 8-2 10-2 4-2 8-2 12-4 4 0 10-2 11-4 2 0 7-1 11-1 2-2 8-4 10-4 18-6 18-6 23-4 4 2 7 4 9 6s46 63 46 67c2 2 2 4 4 6s4 3 4 3c0 2 2 4 4 6s2 3 2 5c0 0 2 2 4 4s4 6 4 6c0 0 1 2 1 4 2 2 4 6 4 6s2 2 4 4c2 4 4 6 4 6s0 2 2 5c2 2 4 3 4 3s7 14 17 28c11 15 19 28 19 28s0 2 2 2 2 2 2 10c0 6 0 8-2 8 0 0-2 2-2 2-2 4-12 11-14 11-1 0-1 2-3 2 0 1-2 1-4 1 0 0-2 2-2 2-2 0-2 2-4 2s-2 0-2 0c-1 2-3 2-5 4-4 2-6 4-8 4 0 0-2 2-4 2 0 0-2 0-2 2-2 0-6 2-9 4-6 2-10 4-12 6 0 0-40 19-88 44-50 25-88 43-88 45 0 0-15 0-72 0-64 0-73 0-73 0 0-2-2-2-2-3-2 0-4-2-6-4-6-6-8-10-8-19 0-19-9-39-24-56-10-9-22-15-34-19-10-4-38-4-44 0-26 6-47 25-56 50-2 7-4 19-4 25s-2 9-2 11-8 12-12 12c-2 1-2 1-2 3 0 0-11 0-72 0-57 0-73 0-73 0z m117-49c0-2 2-4 2-6 0-4 7-25 11-32 2-2 4-4 4-4 4-8 21-27 33-34 18-16 36-22 60-26 14-2 16-2 30 0 8 2 14 2 14 2 0 2 2 2 6 2 10 2 30 12 40 20 12 9 30 28 33 36 2 2 4 6 4 7 4 2 11 21 11 29 2 4 2 6 2 8 2 0 12 0 52 0h51l62-31c34-17 63-31 63-33 2 0 4 0 4 0 0-2 2-2 4-2 0 0 1-2 1-2 2 0 4-1 4-1 2 0 2-2 4-2 0 0 2 0 4-2s6-2 14-5c3-4 9-6 9-6 2 0 10-4 17-10 18-8 19-10 16-12-2-2-2-2-2-4 0 0-2-2-4-4s-2-5-2-5c0 0-2-1-4-3-2-4-4-6-4-6s-2-2-4-6c0-2-1-4-1-4s-2-2-4-6c-2-2-4-4-4-4 0-2-2-6-6-10-2-3-5-8-5-8 0-2-2-4-4-6s-4-4-4-6c0 0-10-14-21-31-15-23-21-31-23-31 0 0-4 0-6 2-2 0-8 2-10 2-4 2-9 4-11 4-1 0-7 2-11 4-4 0-8 2-12 2-2 2-6 4-10 4-14 4-16 6-18 6-2 2-2 4-2 18-2 10-2 18-2 20-2 2-4 6-6 8-10 9-23 9-32 0-2-2-6-6-6-8-2-4-2-62-2-237 0-129 0-234 0-235v-2h-420v2c0 1 0 106 0 235 0 175-1 233-1 237 0 2-4 6-6 8-9 9-25 9-33 0-2-2-4-6-6-8 0-2-2-10-2-20 0-14 0-16-1-18-2 0-3-2-19-6-4 0-8-2-12-4-2 0-6-2-10-2-3-2-8-4-10-4s-8-2-12-4c-4 0-8-2-10-2-2-2-6-2-6-2-2 0-11 14-36 50-19 29-34 52-34 52 0 2-4 6-8 10-2 6-6 9-6 9s-2 3-2 5c-1 2-3 4-3 4 0 2-2 2-2 4-2 2-2 4 0 6 2 0 28 14 32 16 0 0 6 2 10 6 3 1 9 3 9 3s2 2 4 2c0 0 2 2 2 2 2 0 4 2 4 2 2 0 2 0 4 1 0 0 2 0 4 0 0 2 2 2 2 2 2 2 4 2 4 2s1 2 3 2c0 0 2 2 2 2 2 0 29 14 61 31l60 29h101z" horiz-adv-x="1000" />

<glyph glyph-name="cat-sport" unicode="&#xe86e;" d="M264 824c-2 0-4-2-6-2-33-4-63-31-73-64-18-50 13-103 65-119 6-2 10-2 23-2 15 0 19 0 25 2 31 8 52 29 65 60 2 7 4 15 4 31 0 16 0 18-6 32-5 18-17 33-30 42-12 10-25 16-41 18-4 2-6 2-6 2 2 2-20 2-20 0z m18-56c8-2 16-8 22-14 4-6 6-9 8-17 4-17-4-32-20-42-8-4-8-4-19-4-7 0-11 2-15 4-10 4-18 13-22 25-1 8-1 12 0 21 4 13 14 23 30 27 7 2 9 2 16 0z m385-10c-21-4-26-4-48-10-14-3-17-3-29-9-5-2-11-3-13-3s-4-2-4-2c0 0-2-2-2-2-2 0-9-4-21-8-16-8-24-14-42-25-4-2-18-12-18-12s-4-2-8-6c-5-4-19-15-24-18-27-26-51-49-67-74-8-9-22-31-22-31s0-2-2-4c-8-11-21-38-27-55-2-2-4-6-4-8-2-2-9-27-9-31 0-1-2-7-4-13-5-24-7-38-9-58 0-8 0-15-2-17 0-2 0-6 0-10 0-2 0-9-2-17 0-8-2-23-4-33 0-10-2-22-2-28s-2-14-2-18c0-4 0-13-2-21 0-10-2-23-2-32-2-10-2-24-4-30 0-8 0-16-2-20v-8l-219-220h-5c-14 0-22-6-26-15-6-8-4-19 2-27 4-8 46-48 52-50s17-2 23 0c6 4 8 5 12 11 2 4 2 4 2 14v10l26 27c36 34 162 159 177 175 10 8 16 13 18 13s5 2 11 2c26 2 50 4 64 6 8 0 17 0 21 0 2 0 11 2 17 2 8 2 25 2 39 3 14 0 28 2 36 4 8 0 18 0 20 0 3 0 7 2 11 4 6 2 10 2 19 2 19 2 39 6 67 12 6 2 20 7 33 11 23 10 52 24 77 40 9 6 31 22 39 28 11 11 17 15 27 25 24 24 46 50 66 84 12 18 26 46 35 69 4 14 6 16 8 22 0 2 2 8 2 10 2 4 4 12 6 26 4 10 6 27 6 41 2 13 2 18 4 16 0-1 0 2 0 6 0 6 0 8 0 6-2-2-2 4-4 20-2 40-18 84-41 119-23 34-54 63-90 81-4 2-8 4-8 5-4 2-21 8-31 9-19 6-26 8-46 12-21 2-54 2-75 0z m106-63c17-6 33-12 46-22 2-1 6-5 6-5 2-2-6-9-25-27-14-16-27-27-27-27-2 0-7 4-27 25-16 14-25 25-25 25 0 2 6 9 15 19l18 16h4c4 0 10-2 15-4z m-144-18c6-5 12-11 12-11 0-2-53-52-53-52-2 0-44 41-44 43s4 4 25 13c17 9 40 19 44 19 2 0 4-2 16-12z m244-57c6-8 16-27 18-35 1-5 3-11 7-25l2-4-6-6c-11-10-29-28-31-28 0-2-52 50-52 52 0 0 54 53 56 53 0 0 2-4 6-7z m-167-21c13-14 24-25 24-25 2-2-43-48-49-52-2-2-4 2-28 25-12 13-24 25-24 27s48 49 50 49c2 0 13-9 27-24z m-183 0c13-14 25-25 25-25 0-2-12-14-26-27-22-23-26-25-28-25-4 2-48 46-48 48 0 4 48 52 52 52 0 0 12-10 25-23z m277-93c13-13 25-24 25-24s-14-14-27-27l-27-28-25 28c-14 13-25 25-25 27 0 0 11 13 25 26 20 20 25 26 27 24 0 0 13-12 27-26z m-185 0c20-19 26-24 24-26 0-2-49-51-51-51-3 0-52 51-52 53s49 50 52 50c0 0 10-8 27-26z m-184-51c-14-14-28-26-28-26-2 0-20 20-20 24 0 6 22 61 30 69 0 2 2 0 22-20l21-20z m92-40l25-26-25-25c-13-15-27-27-27-27-2 0-52 50-52 52 0 0 12 14 25 28 21 20 25 24 27 24 2-2 14-14 27-26z m183 2c15-14 26-28 26-28 0-2-51-52-53-52s-50 50-50 52c0 2 50 52 52 52 0 0 11-12 25-24z m169 14c16-14 14-13 12-22-8-22-28-60-32-62-2 0-9 8-22 21-20 17-22 21-20 23 0 2 48 50 50 50s6-4 12-10z m-444-107c23-24 25-28 23-29-4-3-47-46-49-46s-14 21-20 37c-4 8-10 24-10 30v6l14 14c8 7 12 13 14 13 0 0 14-12 28-25z m182 0c16-14 28-28 28-28 0-1-53-51-53-51-2 0-52 50-52 51s50 53 52 53c0 0 12-12 25-25z m185 0l23-24v-4c-4-2-33-32-43-40-3-5-9-7-9-7-1 0-48 46-48 47s48 53 50 53c2 0 13-12 27-25z m-275-92l25-27-14-14-14-16-10 2c-20 6-22 6-35 12-8 6-23 14-27 18 0 0-2 2-2 2 2 2 48 47 50 47 0 0 14-11 27-24z m177 5c15-15 21-21 21-21-2-5-50-29-68-31l-5-2-9 10c-6 6-10 12-10 12 0 2 48 51 50 51s11-9 21-19z m-341-19c12-17 34-41 54-55 4-4 8-6 8-8 0 0-2 0-6 0-2 0-10-2-16-2-4 0-16-2-26-2-8 0-17-2-19-2h-6v6c0 6 0 14 4 52 2 9 2 15 4 15 0 0 2-2 3-4z" horiz-adv-x="1000" />

<glyph glyph-name="cat-toys" unicode="&#xe86f;" d="M260 651c-20-4-52-14-60-18-2 0-6-2-10-5-23-10-46-28-64-45-16-18-29-37-39-60-4-8-14-31-19-39-2-8-5-14-5-18-2-2-2-3-2-3 0-2 0-4-2-6 0-2-4-10-6-16-8-25-10-33-14-53-2-5-2-10-4-14 0-4-2-10-4-16 0-4-2-12-2-16-4-13-6-29-9-54-10-56-10-120-4-158 5-34 13-57 27-77 10-15 25-27 42-33 12-4 18-6 35-6 26 0 37 4 69 16 13 6 32 15 49 25 16 10 37 26 51 37 16 11 37 27 39 27 0 0 4 2 8 6 4 2 14 5 21 9 5 2 11 6 13 6 0 0 2 2 4 2s6 2 10 4c74 29 159 29 233 0 4-2 8-4 10-4s4-2 4-2c2 0 11-4 19-8 7-4 15-9 19-9 2-2 4-4 4-4 2 0 20-14 39-29 18-11 27-19 47-31 6-4 8-6 12-8 18-9 38-19 40-19s2 0 2-2c2 0 6-2 17-6 22-8 33-10 51-10 27 0 48 8 65 26 10 9 20 25 22 31 4 12-4 25-16 27-11 5-19-2-27-12-5-7-15-15-19-19-13-8-35-8-58 0-6 2-28 12-33 14-12 5-20 11-26 15-4 2-11 7-14 9-4 2-18 12-30 22-21 15-43 31-47 33-2 0-4 2-5 2-4 2-36 19-43 21-13 6-37 14-50 18-4 2-10 2-14 4-2 0-6 2-8 2 0 0-4 0-10 0-21 5-31 5-66 5s-46 0-69-5c-4 0-8 0-10 0s-6-2-8-2c-4-2-10-4-12-4-7-2-27-8-33-10-2-2-6-2-8-4-4 0-5-2-8-4-24-10-34-14-51-25-16-8-22-14-47-31-12-10-22-18-24-18 0 0-5-4-9-6-6-5-13-9-15-11-4-2-8-4-10-4-9-7-33-17-45-21-23-8-45-8-58 0-32 19-44 93-32 193 3 30 12 77 16 94 2 4 2 6 2 8s0 4 2 8c0 2 2 8 4 11 2 9 2 15 6 27 4 13 6 17 10 31 2 6 3 14 5 16 0 2 2 6 2 9 2 4 4 8 4 10 4 8 16 31 20 41 2 2 4 6 4 6 2 4 17 25 23 30 10 10 20 20 33 28 6 4 33 17 35 17 0 0 3 0 5 0 2 2 6 4 26 8 12 2 55 2 66 0 24-6 34-10 60-21 10-6 19-10 23-12 35-12 39-12 91-12 45 0 49 0 67 4 9 4 27 10 31 12 0 0 10 4 19 10 10 4 18 7 20 7 5 2 24 8 36 12 12 2 57 2 68 0 16-4 22-6 26-8 8-2 22-7 24-9 0 0 4-2 6-2 10-6 25-18 37-30 14-13 22-23 33-42 4-8 14-31 22-49 0-1 2-5 2-5 0-2 2-6 2-8 0 0 4-8 6-14 2-8 3-14 3-16 2-1 2-5 4-9 2-12 6-22 8-33 2-3 2-11 4-15 9-29 17-74 21-111 2-15 4-50 4-76 0-9 2-11 3-15 8-14 24-16 36-4 7 6 7 10 5 45 0 51-5 96-21 165-2 6-4 11-4 13 0 4-2 7-2 9 0 0 0 4-2 6 0 4-2 8-2 12-4 10-6 19-8 23 0 2-2 10-3 16-4 12-6 14-10 25 0 2-2 6-2 10-2 2-4 6-4 8 0 4-2 6-4 8 0 2-2 4-2 4 0 2-15 32-19 38-11 21-31 45-50 60-12 10-26 20-35 24-2 2-6 4-6 4-2 2-26 11-37 13-7 2-19 6-33 8-4 2-17 2-31 2-19 2-27 2-37 0-16-2-31-6-44-10-10-6-14-6-31-15-22-10-28-12-37-16-20-6-18-6-63-6s-42 0-63 6c-10 4-16 6-36 16-23 11-23 11-37 15-12 4-24 6-40 10-11 2-51 2-64 0z m438-138c-13-6-21-15-25-35-2-8 4-21 12-29 9-10 23-14 37-10 15 6 27 20 27 37 0 16-10 28-23 35-8 4-20 4-28 2z m-419-2c-6-2-11-6-13-11-2-4-4-8-4-43v-39h-39c-23-2-42-2-44-2 0-2-4-4-6-4-16-14-8-40 12-42 4 0 21 0 42 0 17 0 33 0 35 0 0 0 0-10 0-39 0-39 0-41 4-45 4-10 15-16 25-12 6 0 12 6 16 12l2 6v39c0 21 0 39 2 39 0 0 17 0 39 0h42l4 4c5 4 11 12 11 18 0 10-8 20-15 24-2 0-22 0-44 0l-39 2v39c0 35 0 39-2 43-6 9-18 15-28 11z m334-82c-19-8-29-27-23-48 2-5 8-15 16-19 19-14 47-6 57 16 4 8 4 22 0 30s-12 15-19 19c-9 4-23 6-31 2z m172 2c-10-4-22-13-22-17 0 0-2-2-2-2-2-2-6-14-6-18 0-6 2-15 6-20 6-10 20-20 32-20 22 0 39 18 39 40 0 14-10 29-25 35-4 2-18 2-22 2z m-89-87c-5-2-15-9-17-15-6-10-8-18-6-28 6-21 27-35 49-27 17 4 27 18 27 35 0 16-8 28-21 35-8 2-10 2-18 2-6 0-10 0-14-2z" horiz-adv-x="1000" />

<glyph glyph-name="tag-line" unicode="&#xe870;" d="M941 339l-488-489c0-1-1-2-2-3-4-4-9-6-16-6-5 0-10 2-14 6-1 1-2 2-2 3l-360 359c-1 1-2 1-3 2-4 4-6 10-5 16-1 5 1 11 5 15 1 1 2 1 3 2l488 488c5 5 11 8 17 8h1c0 0 0 0 0 0h86c3 32 17 61 36 79v-1c4 6 10 8 17 8 12 0 22-11 22-25 0-7-4-14-9-19-10-10-17-24-20-42h102c0 0 0 0 0 0h1c6 0 13-3 17-8l124-125c5-4 8-10 8-17v0c0 0 0 0 0-1v-234c0 0 0 0 0 0v0c0-7-3-12-8-16z m-221 152c-4-5-10-8-16-8-13 0-23 12-23 25 0 8 3 14 9 19 5 5 10 12 14 19-19-5-32-21-32-41 0-24 18-43 42-43s43 19 43 43c0 10-4 20-9 27-14-34-28-41-28-41z m187 91l-115 115h-90c4-9 9-17 15-24v0c1 0 2-1 3-2v1c23-21 37-53 37-91 0-1 0-2 0-2 26-15 43-42 43-74 0-47-39-86-86-86s-85 39-85 86c0 45 36 83 82 85-2 19-10 35-21 45-1 0-2 2-3 3v-1c-16 15-28 35-34 60h-81l-471-470 334-336 472 472v219z m-614-318c8 8 20 8 28 0l151-152c9-8 9-21 0-29s-21-9-29 0l-150 151c-9 8-9 21 0 30z m85 85c8 8 21 8 30 0l151-151c7-8 7-22 0-30-8-8-22-8-30 0l-151 151c-8 8-8 22 0 30z" horiz-adv-x="1000" />

<glyph glyph-name="bag1" unicode="&#xe871;" d="M386 826c-117 0-211-94-211-210v-15h-146c-1 0-1 0-2 0-12-1-21-11-21-22v-606c0-73 59-132 132-132h496c72 0 132 59 132 132v606c0 12-11 22-22 22h-146v15c1 116-94 210-212 210z m0-46c95 0 169-73 169-164v-15h-336v15c0 91 74 164 167 164z m-334-223h670v-584c0-49-38-88-87-88h-496c-49 0-86 40-86 88l-1 584z m144-56c-24 0-44-20-44-45s20-45 44-45 46 21 46 45-21 45-46 45z m381 0c-24 0-45-20-45-45s21-45 45-45 45 21 45 45-20 45-45 45z" horiz-adv-x="772.5" />

<glyph glyph-name="search-1" unicode="&#xe872;" d="M978-75l-349 350c43 57 69 129 69 206 0 190-155 345-345 345s-344-155-344-345 154-344 344-344c78 0 149 25 206 68l351-349c18-20 50-20 68 0 20 19 20 50 0 69z m-625 310c-135 0-246 110-246 246s111 246 246 246 246-110 246-246-110-246-246-246z" horiz-adv-x="1002" />

<glyph glyph-name="plus" unicode="&#xe873;" d="M919 448v-228h-342v-343h-227v343h-342v228h342v341h227v-341h342z" horiz-adv-x="926.8" />

<glyph glyph-name="minus" unicode="&#xe874;" d="M31 225v216h865v-216h-865z" horiz-adv-x="926.8" />

<glyph glyph-name="search-2" unicode="&#xe875;" d="M341 825c-1 0-8-3-15-3-32-4-41-6-72-15-23-8-50-19-69-32-2-3-6-5-9-5 0 0-4-2-6-4-5-5-7-5-7-5-2 0-10-7-28-21-13-11-36-34-48-48s-15-22-15-22c0 0-2-4-5-6-2-4-4-6-4-8-1 0-3-5-3-7-5-4-23-39-25-48-4-9-13-34-15-45-3-9-4-18-10-52-3-18-3-57 0-76 7-43 6-42 14-68 2-11 9-25 16-41 2-4 4-9 4-11 2-2 5-9 9-16 30-55 82-107 139-140 28-15 43-22 80-33 7-2 20-4 45-9 20-3 80-3 100 0 26 5 39 7 46 9 21 7 28 9 30 11 2 0 7 2 11 5 9 2 35 15 39 19 2 0 7 2 11 4 2 4 7 4 7 4s28 20 32 25c2 2 9 7 13 11 5 3 7 8 9 8 0 0 21 24 30 33 5 7 24 32 24 32 0 3 2 5 4 9 7 11 9 11 16 26 6 13 8 20 15 34 2 5 5 16 8 31 2 7 7 19 11 46 2 19 2 75 0 100-7 41-19 82-34 110-16 27-20 35-35 57-22 25-45 50-72 70-10 7-30 18-32 21-3 0-5 2-5 2-15 9-50 25-71 32-20 7-33 9-70 13-13 3-57 5-63 3z m56-96c29-4 46-9 75-20 34-14 71-41 93-67 8-8 26-30 26-34 0 0 2-4 4-7 5-6 18-31 20-39 12-35 15-54 17-86 0-27-2-52-7-72-6-18-8-30-10-30 0-3 0-3 0-5 0-4-29-57-35-63 0 0-5-2-7-7-8-10-28-30-39-39-12-11-32-23-50-32-62-30-130-34-197-16-20 7-43 18-54 25-4 2-7 4-9 4-7 5-34 26-45 39-12 11-33 37-33 39 0 0-2 2-4 7-5 9-18 30-20 41-2 2-5 9-7 13s-4 15-8 30c-2 11-4 41-4 55 0 14 2 47 4 56 2 4 4 10 4 17 4 18 18 46 26 61 3 2 5 5 5 7 4 9 19 30 37 48 15 14 41 34 56 41 0 2 5 4 9 6 41 24 101 35 153 28z m317-529c-5-11-48-52-69-72-9-7-15-11-15-13 0 0 59-58 130-130 136-139 135-135 154-142 13-4 27-2 39 5 29 11 46 45 37 72-6 19-1 15-139 154-74 72-132 130-132 130-3 0-5-3-5-4z" horiz-adv-x="1000" />

<glyph glyph-name="bag-1" unicode="&#xe876;" d="M388 823c-7-2-13-4-13-4-3 0-7-2-9-5-11-4-24-16-32-25-7-9-18-31-18-34 0 0-2-5-2-12-3-6-3-22-3-82v-76h-164l-2-2c-2-5-5-60-5-91 0-13-2-42-2-63-2-24-2-54-2-67s-2-41-2-64c-2-23-2-51-2-66 0-13-3-41-3-66-2-21-4-50-4-62 0-15 0-43-2-65 0-22-2-53-2-66 0-12 0-43-3-64 0-22-2-46-2-55v-13h384c360 0 384 0 384 2s0 27-2 55c0 27-2 59-2 70 0 10 0 36-3 57 0 23-2 50-2 61 0 14 0 42-2 66-2 21-2 50-2 60 0 13-3 41-3 63-2 21-2 50-2 61 0 12-2 41-2 62-2 22-2 52-2 66s-2 45-5 71l-2 50h-164v74c0 60 0 76-2 84-7 28-18 46-37 60-9 7-13 9-24 16-3 0-8 2-13 4-11 3-17 3-115 3-95 0-104 0-112-3z m214-73c2-2 7-7 9-9l7-9v-147l-118 2h-116v68c-3 80 0 82 7 91l9 6h98c91 0 100 0 104-2z" horiz-adv-x="1000" />

<glyph glyph-name="online-support" unicode="&#xe877;" d="M500 826c-272 0-377-176-385-342v-145c-14-16-21-37-21-66 0-48 31-90 77-100 57-145 149-332 307-332 86 0 153 56 203 129h-54c-48-58-96-85-151-85-103 0-190 101-271 317l-5 12-12 2c-29 0-52 26-52 57 0 13 2 22 7 31l70-33c6-2 15-2 21 2 6 4 8 11 8 18v153c15 0 54 2 120 17 68 16 145 46 200 97 56-74 131-103 152-110v-157c0-7 2-14 9-18 5-4 14-4 20-2l33 17v-72c-2 0-6 0-9 0l-13-2-4-12c-22-56-44-104-66-144 26 4 51 14 68 33 13 27 22 57 35 82 4 2 9 4 13 4v-15c0-71-57-127-129-127h-90c-9 23-32 41-61 41h-42c-35 0-64-29-64-64 0-33 29-63 64-63h42c29 0 52 17 61 42h90c96 0 171 78 171 171v21c35 0 64 29 64 64v87c0 35-29 64-64 64v86c-9 188-114 295-291 298l-44 44z m-9-44l44-42h8c213 0 253-160 257-256v-86c-2 0-2 0-2 0-13-2-22-11-22-22v-40l-20-11v136c0 10-6 18-15 20 0 0-106 34-158 120-4 8-13 10-21 10-7 0-11-5-14-8-43-50-124-84-195-100-73-17-134-19-134-19-10-3-19-11-19-23v-136l-46 21v138c15 214 180 297 337 298z m329-428h22c12 0 20-8 20-20v-87c0-11-8-20-20-20h-18c-2 0-4 0-4 0v94c0 2 0 4 0 7z m-342-319h42c13 0 23-11 23-23 0-10-10-21-23-21h-42c-13 0-20 11-20 21 0 12 7 23 20 23z" horiz-adv-x="1000" />

<glyph glyph-name="shopping-bag" unicode="&#xe878;" d="M500 826c-104 0-189-86-189-189v-39h-186l-3-35-38-681-3-41h838l-2 41-38 681-2 35h-188v39c0 103-85 189-189 189z m0-77c62 0 114-52 114-112v-39h-228v39c0 60 52 112 114 112z m-305-226h116v-114h75v114h228v-114h75v114h116l33-606h-676z" horiz-adv-x="1000" />

<glyph glyph-name="us-dollar" unicode="&#xe879;" d="M500 826c-273 0-492-221-492-492 0-273 219-493 492-493s492 220 492 493c0 271-220 492-492 492z m0-42c249 0 450-200 450-450 0-251-201-451-450-451s-450 200-450 451c0 250 200 450 450 450z m-19-143v-57c-116-6-135-92-135-130 0-195 280-92 280-237 0-17-5-99-124-99-5 0-128-2-124 128h-44c4-138 92-157 147-163v-57h41v57c137 10 146 115 146 134 0 184-280 90-280 231 0 48 17 101 114 101 98 0 109-76 111-112h44c4 59-38 143-135 147v57z" horiz-adv-x="1000" />

<glyph glyph-name="shipped" unicode="&#xe87a;" d="M48 694c-14-6-27-20-33-35l-4-6v-268c0-255 0-268 4-274 6-20 17-31 37-39 6-2 12-2 52-2 33 0 44 0 44-2 2 0 2-4 2-6 2-14 16-39 26-49 8-9 19-21 23-23 2 0 4-2 6-2 4-2 6-4 6-4 2 0 4-2 6-2 4-2 8-4 10-4 17-8 58-8 78 0 2 0 6 2 8 4 2 0 5 2 5 2 2 0 4 2 6 4 2 0 6 2 6 2 6 2 18 14 26 23 9 10 21 35 23 49 2 2 2 6 4 6 2 2 293 2 295 0 2 0 2-4 2-6 4-14 15-39 25-49 8-9 20-21 26-23 0 0 1-2 5-2 2-2 4-4 6-4 0 0 4-2 6-2 10-6 14-6 22-8 11-4 39-4 50 0 10 2 12 2 22 8 2 0 6 2 6 2 2 0 4 2 6 4 3 0 5 2 7 2 4 2 16 14 24 23 10 10 23 35 25 49 0 8 2 8 18 8 15 0 27 2 31 6 0 2 2 2 4 2s19 19 19 21c0 0 2 2 2 2 2 2 4 6 4 10 2 6 2 14 2 112 0 74 0 110 0 112-2 4-2 7-4 9 0 8-4 16-9 28-8 13-8 13-16 27-10 14-86 117-94 125s-21 18-23 20c-2 0-4 2-6 3-2 2-6 2-6 4-2 0-4 0-4 2-2 0-8 2-12 4-7 2-11 2-99 2-51 0-94-2-96-2s-2 0-2 49c-2 37-2 49-4 51 0 4-2 8-4 10-2 7-15 19-21 23-18 8 8 6-277 6-255 0-259 0-265-2z m518-39c4-2 12-10 12-14 0-2 2-123 0-267v-265h-97c-67 0-98 0-98 2-2 0-2 4-4 6 0 13-14 36-23 48-8 9-20 19-26 21 0 2-4 2-6 4s-4 4-6 4c0 0-3 2-5 2-2 2-6 4-8 4-20 8-59 8-78 0-2 0-6-2-8-4-4 0-6-2-8-2 0 0-2-2-6-4-2-2-4-2-6-4-4-2-15-12-23-21-10-12-24-35-26-48 0-2 0-6-2-6 0-2-9-2-41-2-38 0-40 0-45 4-4 2-6 4-8 8l-4 5 2 259c0 246 0 258 2 262 0 4 4 6 6 8 4 2 15 2 253 2 214 0 250 0 253-2z m151-231c0-97 0-101 6-107 0-2 2-2 2-4s19-21 21-21c0 0 2 0 4 0 6-6 8-6 106-8h95v-157l-4-6c-2-2-6-6-7-8-4-4-6-4-16-4-12 0-14 0-14 8-2 13-15 36-25 48-8 9-20 19-24 21-2 2-4 2-7 4-2 2-4 4-6 4 0 0-4 2-6 2-2 2-6 4-8 4-19 8-59 8-78 0-2 0-6-2-8-4-2 0-6-2-6-2-2 0-4-2-6-4-4-2-5-2-5-4-6-2-18-12-26-21-10-12-23-35-25-48 0-2 0-6-2-6 0-2-12-2-30-2h-29v394l4 3c2 4 6 8 8 10l6 4h80z m92 92c9-6 21-13 31-23 6-8 35-47 45-61 2-4 6-6 6-6s2-4 4-5c2-4 3-8 5-10s6-6 8-8c2-4 6-8 6-10 4-4 12-13 16-19 2-4 4-8 10-16 3-8 7-19 7-29v-6h-86l-88 2-5 2c-2 2-6 6-8 10l-4 3v90c0 49 0 88 0 88 2 2 12 2 23 2 22 0 22-2 30-4z m-526-351c30-8 51-30 59-58 2-8 2-27 0-35-8-29-29-51-59-59-8-2-27-2-35 0-29 8-51 30-58 59-2 8-2 27 0 35 3 18 15 34 27 42 8 6 23 14 27 14 2 0 4 2 8 2 4 2 21 2 31 0z m530 0c17-4 35-16 43-28 11-14 17-30 17-47 0-32-17-57-45-71-12-6-19-8-33-8-31 0-57 18-70 45-6 12-8 20-8 34 0 31 17 55 45 69 6 2 10 4 11 4 2 0 4 2 8 2 6 2 22 2 32 0z m-358 396c-2-2-8-6-10-10-4-2-9-9-17-17-10-12-14-16-26-29-4-4-9-12-15-18-6-4-12-12-12-14-4-4-8-8-27-27-8-10-16-18-18-20-10-9-14-15-23-27-14-14-18-18-20-18 0 0-4 2-6 4-4 4-8 8-9 10-2 2-4 4-6 4-2 2-8 8-26 23-2 2-4 4-6 4 0 2-5 6-11 12-6 4-12 10-14 10-8 8-23 21-23 21-2 0-4-2-14-15-10-10-12-14-12-14 0-2 2-4 24-21 7-8 17-18 21-22 2 0 8-6 14-10 6-6 12-11 12-11s7-6 17-14c8-8 16-16 18-18 7-7 23-21 25-21 0 0 2 4 4 6 4 2 6 6 8 8s10 9 17 17c16 18 22 26 26 29 2 2 10 10 17 18 16 18 22 25 28 29 2 2 7 10 15 20 14 14 24 25 32 31 2 2 7 10 13 18 6 6 16 15 18 19 15 14 19 22 19 24 0 0 0 2 0 2s-7 5-13 11c-6 6-14 12-14 12-2 0-4-2-6-6z" horiz-adv-x="1000" />

<glyph glyph-name="list" unicode="&#xe87b;" d="M8 826h984v-229h-984z m0-385h984v-226h-984z m0-371h984v-229h-984z" horiz-adv-x="1000" />

<glyph glyph-name="money" unicode="&#xe87c;" d="M500 825c68 0 131-13 193-38 58-26 111-59 155-104 45-46 79-97 106-159 25-58 38-122 38-189 0-68-13-133-38-193-27-59-61-112-106-156s-97-81-155-105c-62-26-125-39-193-39-67 0-131 13-192 39-59 24-112 60-156 105s-78 97-106 156c-25 60-38 125-38 193 0 67 13 131 38 189 28 62 61 113 106 159 44 45 97 78 156 104 61 25 125 38 192 38z m0-922c60 0 116 11 167 34 53 24 99 53 137 93 40 38 70 84 93 135 22 53 34 111 34 170 0 58-12 114-34 167-23 53-53 97-93 137-38 38-84 69-137 91-51 23-107 33-167 33s-116-10-167-33c-53-22-99-53-137-91-40-40-70-84-93-137-22-53-33-109-33-167 0-59 11-117 33-170 23-51 53-97 93-135 38-40 84-69 137-93 51-23 108-34 167-34z m0 539c-13 0-23-4-31-15-11-8-15-18-15-31 0-7 6-13 17-17 10-4 23-10 40-17 18-6 40-15 63-27 23-13 34-35 34-62 0-26-8-46-24-66-14-18-31-31-53-37v-36c0-9-4-15-9-22-7-5-13-7-22-7s-15 2-21 7c-6 7-10 13-10 22v36c-22 6-38 19-53 37-15 20-24 40-24 66 0 9 4 15 9 21 6 6 15 9 23 9s14-3 21-9c6-6 9-12 9-21 0-13 4-26 15-33 8-9 18-13 31-13s24 4 31 13c11 7 16 20 16 33 0 7-7 11-18 18-9 3-22 7-40 14-18 6-40 17-63 30-23 12-34 31-34 61 0 23 9 46 24 66 15 16 31 29 53 35v36c0 9 4 17 10 24 6 4 12 7 21 7s15-3 22-7c5-7 9-15 9-24v-36c22-6 39-19 53-35 16-20 24-43 24-66 0-9-4-14-8-21-7-6-16-11-24-11-8 0-14 5-21 11s-8 12-8 21c0 13-5 23-16 31-7 11-18 15-31 15z" horiz-adv-x="1000" />

<glyph glyph-name="shipping" unicode="&#xe87d;" d="M958 379c8 0 16-4 20-11 7-6 11-12 11-20v-173c0-23-9-45-27-61-15-18-37-26-61-26h-48c-6-24-20-46-39-61-21-16-44-27-72-27-28 0-49 11-72 27-20 15-33 37-39 61h-211c-6-24-20-46-39-61-21-16-44-27-72-27-28 0-51 11-72 27-19 15-33 37-39 61h-159c-8 0-14 4-20 8-5 6-7 14-7 22 0 7 2 14 7 20 6 6 12 8 20 8h159c6 25 20 46 39 62 21 17 44 25 72 25 28 0 51-8 72-25 19-16 33-37 39-62h211c6 25 19 46 39 62 23 17 44 25 72 25 28 0 51-8 72-25 19-16 33-37 39-62h48c7 0 13 4 19 10 7 4 11 11 11 19v144h-348c-8 0-14 4-19 10-7 6-9 11-9 19v231c0 8-4 15-10 21s-12 8-20 8h-288c-8 0-15 2-21 9s-8 14-8 19c0 8 2 16 8 22s13 8 21 8h288c24 0 44-8 62-26 16-15 25-36 25-61v-14h130c4 0 8 0 12-2s8-4 10-8l150-176z m-346 0h227l-111 128h-116z m-303-319c16 0 30 4 42 17 9 11 15 25 15 41 0 16-6 30-15 40-12 11-26 17-42 17-16 0-30-6-41-17-10-10-17-24-17-40 0-16 7-30 17-41 11-13 25-17 41-17z m433 0c16 0 30 4 41 17 10 11 16 25 16 41 0 16-6 30-16 40-11 11-25 17-41 17-16 0-30-6-40-17-11-10-17-24-17-40 0-16 6-30 17-41 10-13 24-17 40-17z m-548 434c-9 0-16 2-20 8-6 5-10 11-10 19s4 16 10 22c4 4 11 7 20 7h127c8 0 16-3 22-7 4-6 8-14 8-22s-4-14-8-19c-6-6-14-8-22-8z m-57-115c-9 0-17 1-23 7-4 6-8 12-8 20s4 14 8 19c6 6 14 11 23 11h127c7 0 15-5 19-11 6-5 10-11 10-19s-4-14-10-20c-4-6-12-7-19-7z m112-88c0-8-2-14-8-20s-14-10-21-10h-127c-8 0-14 4-20 10s-11 12-11 20c0 7 4 13 11 20s12 8 20 8h127c7 0 15-2 21-8s8-13 8-20z" horiz-adv-x="1000" />

<glyph glyph-name="support" unicode="&#xe87e;" d="M983 364c6-7 9-15 9-24 0-8-3-14-9-21l-76-82c-2 0-2 0-4-2l-2-2c-7-2-13-4-21-4-6 2-13 4-17 8l-78 82c-4 7-8 13-8 21 0 9 4 17 8 24 7 6 14 8 23 8s15-2 22-8l22-30c0 54-11 105-31 152-20 46-49 88-82 124-36 37-79 64-124 85-49 19-100 29-153 29-55 0-106-10-152-29-49-21-91-48-124-85-36-36-64-78-85-124-21-49-31-100-31-152 0-55 10-105 31-152 21-48 49-91 85-124 33-37 75-64 124-84 46-22 97-33 152-33 34 0 67 4 100 13 31 9 62 22 90 36 30 17 54 36 80 59 23 23 45 49 63 78 4 7 11 11 19 13s16 2 24-2c6-7 10-13 12-22 2-5 0-14-4-20-21-34-45-64-72-91-29-26-59-49-92-68-32-19-67-31-106-42-36-9-74-14-114-14-63 0-122 12-177 35-55 23-101 58-144 98-40 40-73 88-97 142-23 55-35 115-35 178 0 61 12 120 35 175 24 54 57 103 97 145 43 41 89 73 144 95 55 26 114 37 177 37 63 0 120-11 175-37 55-22 104-54 144-95 42-42 73-91 99-145 23-55 34-114 34-175h2l23 30c6 6 15 8 23 8s14-2 21-8z m-641-11c4 4 6 8 8 11s2 6 4 8c0 2 2 5 2 9 0 1 0 3 0 7 0 3 0 7 0 9-2 2-4 4-6 7s-4 4-8 4c-2 2-6 2-10 2s-9 0-13-2c-5 0-9-2-13-7-5 0-8-4-12-6-5-4-11-9-15-13l-40 44c6 7 13 13 18 18 6 4 11 6 15 10 7 3 11 5 15 7 7 2 11 4 16 4 5 2 11 4 18 4s13 0 19 0c8 0 16 0 23-2 9-2 17-4 24-6 5-2 12-7 16-11 6-4 11-9 13-15 4-7 8-12 8-16 3-7 3-13 3-22 0-4 0-11 0-15 0-3-3-8-3-12-2-6-4-11-6-15s-4-9-7-13c-2-4-4-5-8-12-4-4-9-9-13-13-3-6-10-13-21-21-8-8-21-19-35-32v-2h99v-59h-190v46l63 66c8 9 17 17 23 23 7 6 11 13 13 15z m302-150h-70v50h-105v53l109 159h66v-159h29v-53h-29z m-113 103h43v32c0 2 0 6 0 11 0 2 0 8 0 12s2 9 2 11c0 2 0 5 0 5h-2c-3-5-4-9-6-13s-6-9-9-13z" horiz-adv-x="1000" />

<glyph glyph-name="bag-2" unicode="&#xe87f;" d="M853 549l61-615c0-25-8-46-26-66-18-16-40-27-65-27h-646c-25 0-47 11-65 27-18 20-26 41-26 66l61 615c0 26 9 46 25 66 20 17 40 27 66 27h93v15c0 46 17 86 49 118 34 34 74 51 120 51s87-17 120-51c33-32 49-72 49-118v-15h93c26 0 46-10 66-27 16-20 25-40 25-66z m-475 108v-15h244v15c0 33-12 64-35 86-23 24-53 36-87 36s-64-12-86-36c-25-22-36-53-36-86z m445-752c9 0 16 2 21 9 7 5 9 11 9 20l-61 615c0 8-2 15-9 21s-13 11-21 11h-93v-49c8-4 17-10 21-19 7-9 11-18 11-29 0-15-6-28-17-38-11-11-24-15-38-15-15 0-28 4-38 15-11 10-15 23-15 38 0 11 2 20 9 29 4 9 13 15 20 19v49h-244v-49c8-4 16-10 20-19 7-9 9-18 9-29 0-15-4-28-15-38-10-11-23-15-38-15-14 0-27 4-38 15-11 10-16 23-16 38 0 11 3 20 10 29 4 9 13 15 21 19v49h-93c-8 0-15-4-21-11s-8-13-8-21l-62-615c0-9 3-15 9-20 7-7 12-9 21-9z" horiz-adv-x="1000" />

<glyph glyph-name="grid" unicode="&#xe880;" d="M8 826h229v-229h-229z m0-378h229v-229h-229z m0-378h229v-229h-229z m378 756h229v-229h-229z m0-378h229v-229h-229z m0-378h229v-229h-229z m377 756h229v-229h-229z m0-378h229v-229h-229z m0-378h229v-229h-229z" horiz-adv-x="1000" />

<glyph glyph-name="bag-3" unicode="&#xe881;" d="M839 674h-184v59c0 51-42 93-93 93h-122c-51 0-93-42-93-93v-59h-186c-34 0-61-28-61-61v-710c0-34 27-62 61-62h678c34 0 62 28 62 62v710c0 33-28 61-62 61v0z m-431 59c0 17 14 30 32 30h122c18 0 32-13 32-30v-59h-186v59z m431-830h-678v710h186v-65s-1-30 31-30c34 0 30 30 30 30v65h186v-65s-2-30 30-30c31 0 31 30 31 30v65h184v-710z" horiz-adv-x="1000" />

<glyph glyph-name="direction" unicode="&#xe882;" d="M937 539l-172 184c-6 7-14 10-21 10h-257l-1 64c0 16-14 29-32 29s-28-13-28-29l-1-64h-339c-18 0-32-14-32-30v-370c0-16 14-30 32-30h339v-433c0-16 13-29 30-29s31 13 31 29v433h258c7 0 15 3 21 10l172 184c11 12 11 30 0 42z m-207-175h-613v308h613l143-154z" horiz-adv-x="1000" />

<glyph glyph-name="home" unicode="&#xe883;" d="M984 332l-460 482c-6 6-14 10-23 10-8 0-16-4-22-10l-463-482c-12-12-11-31 1-43 13-12 32-12 43 0l42 43v-458c0-18 13-31 31-31h214c17 0 30 13 30 30l1 307h245v-306c0-18 13-31 30-31h215c17 0 30 13 30 31v458l42-43c6-6 13-9 21-9s16 3 22 9c12 11 13 31 1 43z m-147 56v-484h-152v307c0 16-14 30-32 30h-305c-17 0-30-14-30-30l-1-307h-154v484c0 2-1 5-1 7l339 353 337-352c0-3-1-5-1-8z" horiz-adv-x="1000" />

<glyph glyph-name="magnifier" unicode="&#xe884;" d="M983-104l-298 299c56 67 89 152 89 245 0 212-171 384-383 384s-383-172-383-384 172-382 383-382c96 0 184 35 251 94l298-301c12-11 32-11 43 0 12 13 12 32 0 45z m-592 222c-178 0-322 145-322 322s144 323 322 323c178 0 323-144 323-323s-145-322-323-322z" horiz-adv-x="1000" />

<glyph glyph-name="magnifier-add" unicode="&#xe885;" d="M983-104l-271 273c58 69 93 158 93 256 0 220-178 399-399 399s-398-179-398-399 178-400 398-400c101 0 193 39 263 99l271-273c12-11 32-11 43 0 12 13 12 32 0 45z m-577 192c-185 0-337 152-337 338s152 337 337 337c186 0 338-152 338-337s-152-338-338-338z m153 368h-122v123c0 16-14 30-31 30s-30-14-30-30v-123h-123c-17 0-31-14-31-30s14-31 31-31h123v-122c0-18 14-32 30-32s31 14 31 32v122h122c17 0 31 14 31 31s-14 30-31 30z" horiz-adv-x="1000" />

<glyph glyph-name="magnifier-remove" unicode="&#xe886;" d="M983-104l-271 273c58 69 93 158 93 256 0 220-178 399-399 399s-398-179-398-399 178-400 398-400c101 0 193 39 263 99l271-273c12-11 32-11 43 0 12 13 12 32 0 45z m-577 192c-185 0-337 152-337 338s152 337 337 337c186 0 338-152 338-337s-152-338-338-338z m153 368h-306c-17 0-31-14-31-30s14-31 31-31h306c17 0 31 14 31 31s-14 30-31 30z" horiz-adv-x="1000" />

<glyph glyph-name="phone-1" unicode="&#xe887;" d="M251 801c38-51 81-118 133-198 12-21 10-47-6-79-6-12-23-41-48-88 27-39 71-88 128-145s106-100 144-128c46 26 76 43 88 49 17 9 33 13 48 13 12 0 22-2 31-7 59-36 124-80 199-132 14-10 22-25 24-42 2-18-3-37-16-58-7-9-17-22-31-39s-35-40-64-65-50-40-69-40h-2c-134 5-302 107-498 304-198 198-299 364-304 500 0 17 13 41 39 70 26 28 48 50 64 62 16 13 31 23 42 31 14 10 30 15 48 15 22 0 39-8 50-23z m-63-41c-27-19-52-40-76-63-23-25-37-42-41-53 5-120 100-271 284-455 185-183 337-279 455-286 11 4 28 18 51 43s46 49 65 77c3 5 5 9 3 13-76 54-140 96-192 129-5 0-11-2-19-6-11-6-39-23-86-48l-32-19-33 21c-42 29-93 75-154 136-60 60-104 111-134 154l-23 30 19 35c26 45 42 75 48 86 4 8 6 14 6 19-46 73-87 137-126 192h-2c-5 0-10-1-13-5z" horiz-adv-x="1000" />

<glyph glyph-name="clock-1" unicode="&#xe888;" d="M500 826c-272 0-492-221-492-493s220-492 492-492c272 0 492 221 492 492s-220 493-492 493z m0-925c-237 0-430 195-430 432s193 432 430 432 431-194 431-432-194-432-431-432z m31 445v295c0 17-14 31-31 31s-30-14-30-31v-308c0-8 3-16 8-21 1-1 1-2 2-2l153-153c12-12 31-12 43 0s12 32 0 43z" horiz-adv-x="1000" />

<glyph glyph-name="heart" unicode="&#xe889;" d="M9 472q0 120 86 207 83 82 201 84t204-77q86 79 204 77t201-84q86-87 86-207t-86-206q-4-4-340-336-27-26-65-26t-65 26q-2 0-340 336-86 87-86 206z m62 0q0-95 69-162l339-336q21-22 43 0l338 336q69 67 69 162t-69 162q-64 65-157 67t-161-59l-42-38-42 38q-69 61-161 59t-157-67q-69-66-69-162z m91 7q0 54 38 93t93 38q16 0 16-16t-16-16q-40 0-70-28t-29-71q0-16-16-16t-16 16z" horiz-adv-x="1000" />

<glyph glyph-name="heart-1" unicode="&#xe88a;" d="M500-88q-14 0-24 10l-342 330q-5 5-15 15t-30 36-38 53-29 66-13 75q0 121 70 189t192 69q34 0 69-12t66-33 53-37 41-37q20 19 41 37t53 37 66 33 69 12q123 0 192-69t70-189q0-120-126-246l-340-329q-10-10-25-10z" horiz-adv-x="1000" />

<glyph glyph-name="earphones-alt" unicode="&#xe88b;" d="M991 275c0 20-3 97-6 118-27 251-231 433-482 433-262 0-475-203-489-471 0-6-2-47-3-72v-13c-1-6-2-12-2-18v-206c0-45 36-82 81-82h83c45 0 82 37 82 82v206c0 45-37 81-82 81h-83c-6 0-10-1-16-2 1 11 1 19 1 21 12 235 199 412 428 412 220 0 397-158 421-378 1-8 3-32 4-55-6 1-12 2-18 2h-82c-45 0-81-36-81-81v-205c0-31 17-59 43-72l-198-77v5c0 17-13 30-30 30h-92c-17 0-31-13-31-30v-30c0-18 14-32 31-32h92c0 0 0 0 1 0l55 1 315 124c5 2 8 4 11 7 28 13 47 41 47 74v205c0 5-1 10-2 15 1 3 2 5 2 8z m-901-3h83c12 0 21-9 21-20v-206c0-11-9-20-21-20h-83c-10 0-19 9-19 20v206c0 11 9 20 19 20z m718-20c0 11 8 20 20 20h82c11 0 19-9 19-20v-205c0-11-8-20-19-20h-82c-12 0-20 9-20 20v205z" horiz-adv-x="1000" />

<glyph glyph-name="credit-card" unicode="&#xe88c;" d="M896 654h-792c-51 0-92-41-92-92v-457c0-51 41-92 92-92h792c51 0 92 41 92 92v457c0 51-41 92-92 92z m-792-61h792c18 0 32-14 32-31v-61h-856v61c0 17 14 31 32 31z m792-519h-792c-18 0-32 13-32 31v274h856v-274c0-18-14-31-32-31z" horiz-adv-x="1000" />

<glyph glyph-name="action-undo" unicode="&#xe88d;" d="M958-79c0 0-1 0-1 0-15 0-25 13-26 28-1 11-33 286-462 286v-175c0-12-7-23-18-28-11-6-24-4-32 4l-399 329c-7 6-11 14-11 24 0 9 4 18 12 24l398 326c8 8 21 8 32 4s18-16 18-28v-172c177-6 317-63 406-167 146-171 113-419 112-429-2-15-14-26-29-26z m-520 376v0c306 0 424-104 491-195-10 73-38 162-101 233-83 96-216 148-390 148-17 0-31 13-31 30v137l-318-262 318-264v143c0 7 4 15 9 21 6 6 13 9 22 9z" horiz-adv-x="1000" />

<glyph glyph-name="envolope" unicode="&#xe88e;" d="M989 600c0 6 0 13-3 18-8 34-32 52-74 52h-794c-36 0-75-14-95-40-1-1-3-2-4-4-7-7-9-17-7-26-1-2-1-5-1-7v-488c0-51 57-108 107-108h794c51 0 77 57 77 108v488c0 2 0 5 0 7z m-871 8h794l-412-328-411 327c9 2 21 1 29 1z m794-549h-794c-17 0-45 28-45 46v437l408-326c4-5 12-8 19-8s15 3 21 8l407 326v-437c0-18 1-46-16-46z" horiz-adv-x="1000" />

<glyph glyph-name="chart" unicode="&#xe88f;" d="M270 518h-216c-17 0-30-13-30-31v-615c0-17 13-31 30-31h216c16 0 30 14 30 31v615c0 18-14 31-30 31z m-32-616h-153v554h153v-554z m369 433h-215c-17 0-31-13-31-30v-433c0-17 14-31 31-31h215c17 0 31 14 31 31v433c0 17-14 30-31 30z m-30-433h-154v371h154v-371z m369 924h-215c-17 0-31-14-31-31v-923c0-17 14-31 31-31h215c17 0 30 14 30 31v923c0 17-13 31-30 31z m-31-924h-153v863h153v-863z" horiz-adv-x="1000" />

<glyph glyph-name="shopping-cart" unicode="&#xe8ba;" d="M707 594c-7 59-33 114-76 156-50 49-114 76-184 76h-4c-69 0-134-27-183-76-43-42-69-97-75-156h-175v-580c0-95 77-173 172-173h526c95 0 174 78 174 173v580h-175z m-264 177h4c104 0 190-77 205-177h-413c15 100 101 177 204 177z m384-757c0-65-53-118-119-118h-526c-64 0-118 53-118 118v526h123v-107c0-13 10-23 23-23h2c12 0 23 10 23 23v107h421v-107c0-13 10-23 23-23h2c13 0 23 10 23 23v107h123v-526z" horiz-adv-x="891.6" />

<glyph glyph-name="phone-2" unicode="&#xe8bb;" d="M209 171c96-116 213-208 347-272 50-24 118-53 194-58 5 0 9 0 14 0 51 0 91 18 125 53 0 1 1 1 1 1 12 15 25 28 39 42 10 8 20 18 29 28 43 46 43 103 0 147l-123 123c-21 22-46 32-72 32-26 0-51-10-73-32l-73-73c-7 4-14 7-20 10-8 4-15 8-22 13-67 42-127 97-185 168-29 36-48 68-62 99 19 17 37 36 54 54 7 6 13 12 19 18 22 22 34 48 34 74s-12 51-34 73l-60 61c-8 7-14 14-21 21-14 14-28 28-42 41-21 21-46 32-71 32-27 0-52-11-73-32l-77-77c-28-27-43-61-46-100-4-48 5-101 28-163 36-97 90-187 170-283z m-149 442c3 28 13 50 32 70l76 76c12 10 26 16 39 16 11 0 24-6 36-17 14-13 27-26 40-40 7-8 14-14 21-21l61-61c13-13 20-26 20-39s-7-25-20-38c-6-6-13-13-19-19-18-20-36-37-56-55-1 0-1 0-1-1-17-17-14-32-10-45 1 0 1-1 1-1 15-39 37-74 71-117 61-75 125-134 196-180 9-4 19-9 28-13 8-5 16-9 22-13 0 0 1-1 2-1 7-4 13-5 20-5 17 0 27 10 31 14l75 76c12 11 25 18 38 18 16 0 28-10 36-18l123-123c25-24 25-51-1-77-8-9-17-18-26-27-15-14-30-29-44-44-22-26-51-38-87-38-3 0-7 0-10 1-67 4-129 30-176 52-127 62-238 149-331 259-76 92-127 178-161 269-21 56-29 101-26 142z" horiz-adv-x="1000" />

<glyph glyph-name="percent-circle" unicode="&#xe8bf;" d="M341 349c-79 0-143 64-143 143s64 143 143 143c79 0 143-64 143-143v0c0-79-64-143-143-143v0z m0 213c-38 0-69-31-69-69 0-38 31-69 69-69 38 0 69 30 69 68l0 0c0 0 0 0 0 0 0 38-30 70-69 70l0 0z m318-530c-79 0-143 64-143 143s64 143 143 143c79 0 143-64 143-143v0c0-79-64-143-143-143v0z m0 213c-38 0-69-31-69-69 0-38 31-69 69-69 37 0 68 30 69 68l0 0c0 0 0 0 0 0 0 38-31 69-69 70l0 0z m-304-162c0 0 0 0 0 0-21 0-37 16-37 37 0 8 3 15 7 21l0 0 289 426c6 10 17 17 30 17 21 0 37-17 37-37 0-7-2-14-6-20l0 0-290-427c-6-10-17-17-30-17h0z m144-242c-270 0-491 221-491 493s221 492 491 492 493-221 493-492-220-493-493-493z m0 912c-230 0-418-188-418-419s188-419 418-419 419 188 419 419-188 419-419 419z" horiz-adv-x="1000" />

<glyph glyph-name="pulley" unicode="&#xe8c1;" d="M500 292c-45 0-82-36-82-82s37-81 82-81 82 36 82 81-37 82-82 82z m0-123c-25 0-41 17-41 41s16 42 41 42 41-17 41-42-16-41-41-41z m246 316v94c0 136-110 247-246 247s-246-111-246-247v-94c-74-65-123-163-123-275 0-204 164-369 369-369s369 165 369 369c0 112-49 205-123 275z m-246 299c115 0 205-89 205-205v-61c-12 8-29 16-41 25v36c0 91-73 165-164 165s-164-74-164-165v-36c-12-9-29-17-41-25v61c0 116 90 205 205 205z m123-225c-36 13-78 20-123 20s-86-7-123-20v20c0 70 53 124 123 124s123-54 123-124v-20z m-123-636c-159 0-287 128-287 287s128 288 287 288 287-127 287-288-126-287-287-287z" horiz-adv-x="1000" />

<glyph glyph-name="password-lock" unicode="&#xe8c2;" d="M960 317h-99v115c0 18-15 33-32 33v0h-542v81c0 118 95 213 213 213s213-95 213-213v0h66c0 155-125 280-279 280s-279-125-279-280v0-81h-48c-1 0-1 0-1 0-18 0-33-15-33-33 0 0 0 0 0 0v0-115h-98c0 0 0 0-1 0-18 0-32-15-32-33 0 0 0 0 0 0v0-262c0 0 0 0 0 0 0-18 14-33 32-33 1 0 1 0 2 0l-1 0h98v-115c0 0 0 0 0 0 0-18 15-33 33-33 0 0 0 0 1 0l0 0h656c17 0 32 15 32 33v0 115h99c18 0 32 15 32 33v0 262c0 18-14 33-32 33v0z m-755 83h590v-83h-590z m590-493h-590v82h590z m131 147h-852v198h852z" horiz-adv-x="1000" />

<glyph glyph-name="pin" unicode="&#xe8c4;" d="M500-159l-17 25c-13 18-312 455-312 630 0 182 147 330 329 330s329-148 329-330c0-175-299-612-312-630l-17-25z m0 943c-159 0-289-129-289-288 0-140 225-486 289-582 64 96 289 442 289 582 0 159-130 288-289 288z m0-432c-79 0-144 64-144 144s65 145 144 145 144-66 144-145-65-144-144-144z m0 247c-56 0-103-46-103-103s47-103 103-103 103 46 103 103-47 103-103 103z" horiz-adv-x="1000" />

<glyph glyph-name="rotulo" unicode="&#xe8c6;" d="M992 332c0 0 0 1 0 1 0 132-51 255-143 349-94 92-217 144-349 144s-255-52-348-144c-93-94-144-217-144-349s51-255 144-348c93-93 216-144 348-144 0 0 1 0 1 0s1 0 1 0 2 0 3 0c0 0 1 0 1 0 1 0 1 0 2 1 0 0 1 0 1 0 1 0 1 0 2 0 0 0 0 1 1 1 0 0 1 0 1 0 1 0 1 1 2 1 0 0 0 0 1 0 0 1 1 1 1 1s1 1 1 1c1 0 1 1 2 1 0 0 0 0 1 1 0 0 1 1 2 2l460 461c1 1 2 2 2 3 1 0 1 0 1 1 0 0 1 0 1 1 0 0 1 1 1 1s0 1 1 1c0 1 0 1 0 2 0 0 1 0 1 1 0 0 0 1 0 1 0 1 1 1 1 2 0 0 0 0 0 1 0 0 0 1 0 1 1 0 1 0 1 1 0 0 0 1 0 1 0 1 0 2 0 3 0 0 0 0 0 0s0 0 0 0 0 1 0 1z m-496-314c-170 3-307 143-307 313 0 174 141 313 313 313 170 0 310-136 313-307-74-22-142-64-198-120-57-57-97-125-121-199z m41-72c16 87 58 167 121 230s142 104 229 120l-350-350z m335 406c-10 195-172 351-370 351-205 0-371-167-371-372 0-197 155-360 350-370-4-20-6-41-7-62-106 7-205 51-281 127-82 82-127 191-127 307s45 226 127 308c82 81 191 126 307 126s225-44 307-126c76-76 120-176 127-282-21-1-41-3-62-7z m-413-144l-110 110c-3 3-5 3-10 2-4-1-8-4-11-7-4-4-7-8-8-12s0-8 2-10l59-59-82 26c-9 3-15 4-19 3-4-1-8-4-13-9-4-4-7-8-8-12s0-8 2-11l109-109c3-2 7-3 11-2s8 4 12 8c3 3 6 7 7 11 1 4 0 7-2 10l-59 58 92-26c8-2 15 0 23 8 3 3 6 7 7 12 1 3 1 6-2 9z m102 93c-1 4-3 7-6 10-3 4-7 6-11 7s-7 0-9-3l-46-47-29 30 25 26c3 2 4 5 3 9 0 3-2 6-5 9s-6 5-10 5c-2 1-5 0-8-3l-26-25-30 29 47 46c3 2 4 5 3 9s-3 8-7 11c-3 3-6 5-10 6s-7 0-9-3l-62-61c-3-3-5-7-6-10-1-4 0-8 3-10l109-109c3-3 6-4 10-3 3 1 7 3 10 6l61 61c3 3 4 6 3 10z m123 133l-71 139c0 1-1 2-1 3-3 2-8 2-14 2-5-2-10-5-14-9-5-5-6-10-4-14l63-114-72 44c-3 2-6 2-10 1-4-2-8-4-11-7s-5-7-6-10c-2-4-1-8 0-10l46-71-116 62c-3 2-8 1-13-4-4-4-7-9-8-15-2-6-1-10 2-13 0-1 1-2 2-2l140-71c3-2 7-2 12 0 5 1 10 5 14 9s7 9 9 14c2 5 2 9 0 13l-33 49 51-32c3-2 8-3 12-1s9 5 14 9c4 5 7 9 9 14 1 5 1 10-1 14z" horiz-adv-x="1000" />

<glyph glyph-name="comida-organica" unicode="&#xe8c7;" d="M346-135c52-12 102-24 176-24 142 0 224 48 325 116l145 100-16 23c-39 58-112 78-173 53-33 91-118 157-215 168 6 78 35 152 85 212 54-36 130-31 180 18 58 58 89 135 89 218v77h-76c-81 0-158-32-216-90-51-50-56-127-18-183-32-37-57-79-74-124-18 45-42 87-74 124 16 24 25 51 25 81 0 38-16 74-42 102-58 58-135 90-217 90h-77v-77c0-83 32-160 90-218 49-49 125-54 180-18 49-60 80-134 85-212-66-8-126-40-170-92-29 18-55 29-81 31-43 2-82-20-131-52h-138v-289h28c162 0 241-19 310-34z m344 830c47 47 109 72 176 72h19v-18c0-67-26-130-73-176-26-27-66-33-98-17l98 98-40 41-99-99c-15 33-10 72 17 99z m-247-99l-98 99-42-41 99-98c-33-16-72-10-99 17-46 46-72 109-72 176v18h19c66 0 128-25 175-72 27-27 33-66 18-99z m115-351c90 0 168-58 195-142-21-12-41-23-63-31-23 52-74 86-132 86h-101c-14 0-27 4-38 12-4 3-8 5-11 8 38 42 92 67 150 67z m-492-115h96c30 18 77 54 111 52 26-2 61-24 115-60 20-14 44-21 69-21h101c33 0 62-19 77-47-34-8-66-12-99-11-43 1-85 9-127 23l-15 5-18-56 16-4c52-18 106-26 154-26 88 0 183 31 264 87 31 20 71 18 99-2l-95-64c-110-76-175-107-292-107-68 0-113 10-164 22-68 16-143 33-292 35v174z" horiz-adv-x="1000" />

<glyph glyph-name="estrela" unicode="&#xe8c8;" d="M852 307l-225 32-101 205c-7 14-24 20-38 13-6-3-11-8-14-13l-101-205-225-32c-11-2-20-10-23-20s0-20 7-28l163-160-37-224c-2-10 2-21 11-28s19-8 29-3l202 107 202-107 13-3c6 0 11 2 16 6 9 7 13 18 11 28l-37 224 163 160c7 8 10 18 7 28s-12 18-23 20z m-198-178c-6-6-8-15-7-24l31-183-165 86c-8 4-18 4-26 0l-164-86 30 183c1 9-1 18-6 24l-134 130 184 26c10 2 17 8 21 16l82 166 82-166c4-8 12-14 21-16l184-26-133-130z m-154 500c16 0 29 12 29 27v141c0 16-13 29-29 29s-28-13-28-29v-141c0-15 12-27 28-27z m426 47c-13 10-30 7-39-6l-85-112c-10-13-7-31 5-40 5-3 11-5 18-5 8 0 17 4 22 10l84 114c10 12 7 30-5 39z m-750-163c6 0 12 2 17 5 12 9 15 27 5 40l-84 112c-10 13-27 16-40 6-12-9-15-27-5-39l85-114c5-6 13-10 22-10z" horiz-adv-x="1000" />

<glyph glyph-name="fazer-compras" unicode="&#xe8c9;" d="M829 180c0-32-26-58-58-58s-57 26-57 58c0 31 25 58 57 58s58-27 58-58z m163 0v-12c0-61-33-131-100-208-47-55-95-93-97-94l-24-21-24 21c-2 1-49 39-96 94-67 77-101 147-101 208v12c0 122 100 220 221 220s221-98 221-220z m-77 0c0 80-65 144-144 144s-144-64-144-144v-12c0-74 90-171 144-222 55 51 144 148 144 222z m-29 646h-772l-106-354v-6c0-34 14-67 38-90 12-12 26-21 41-27v-393c0-63 52-115 115-115h457c-19 18-43 41-66 68-2 3-5 6-7 9h-384c-21 0-39 18-39 38v79h344c-13 27-22 52-28 77h-316v230c25 5 47 17 64 35 23-24 56-38 91-38s67 15 91 38c23-23 56-38 91-38 7 0 14 0 21 2 28 44 68 80 115 105-3 6-5 13-5 22v41h-77v-39c0-29-24-54-54-54s-54 25-54 54v39h-77v-41c0-28-23-52-51-52s-52 24-52 52v41h-77v-41c0-28-24-52-52-52-28 0-49 20-52 45l86 288h658l86-286c-1-7-2-13-5-19 22-12 44-27 63-45 12 20 19 44 19 69v6z m0 0" horiz-adv-x="1000" />

</font>
</defs>
</svg>
