<?xml version="1.0" encoding="iso-8859-1"?>
<!-- Generator: Adobe Illustrator 19.0.0, SVG Export Plug-In . SVG Version: 6.00 Build 0)  -->
<svg version="1.1" id="Capa_1" xmlns="http://www.w3.org/2000/svg" xmlns:xlink="http://www.w3.org/1999/xlink" x="0px" y="0px"
	 viewBox="0 0 50.409 50.409" style="enable-background:new 0 0 50.409 50.409;" xml:space="preserve">
<g>
	<g>
		<path d="M9.035,20.604C8.87,20.273,8.609,20,8.285,19.795c-0.338-0.207-0.737-0.352-1.193-0.438c-0.464-0.084-1-0.122-1.621-0.128
			l-2.867,0.002c-0.298,0.004-0.59,0.236-0.66,0.524l-1.929,8.402c-0.07,0.284,0.117,0.522,0.415,0.522h1.373
			c0.298,0,0.593-0.231,0.659-0.522l0.471-2.04c0.063-0.284,0.357-0.521,0.658-0.521h0.393c1.679-0.002,2.979-0.345,3.913-1.032
			c0.939-0.688,1.402-1.597,1.402-2.723C9.298,21.348,9.217,20.934,9.035,20.604z M6.074,23.349
			c-0.415,0.304-0.992,0.456-1.736,0.456H4.002c-0.299,0-0.482-0.236-0.417-0.524l0.413-1.784c0.058-0.286,0.359-0.523,0.654-0.521
			l0.45-0.003c0.525,0,0.926,0.091,1.194,0.267c0.265,0.174,0.398,0.451,0.396,0.818C6.7,22.616,6.487,23.045,6.074,23.349z"/>
	</g>
</g>
<g>
	<g>
		<polygon points="48.175,19.887 48.089,19.913 47.974,19.929 47.833,19.907 47.761,19.837 47.728,19.727 47.726,19.562 
			47.726,18.951 48.185,18.951 48.185,18.762 47.726,18.762 47.726,18.381 47.499,18.381 47.499,18.762 47.345,18.762 
			47.345,18.951 47.499,18.951 47.499,19.662 47.605,20.014 47.917,20.126 48.048,20.115 48.187,20.088 48.187,19.887 		"/>
	</g>
</g>
<g>
	<g>
		<polygon points="50.304,18.859 49.976,18.724 49.734,18.773 49.488,18.939 49.345,18.78 49.113,18.725 48.89,18.774 48.679,18.91 
			48.679,18.762 48.456,18.762 48.456,20.097 48.678,20.097 48.678,19.1 48.865,18.984 49.051,18.938 49.203,18.965 49.278,19.042 
			49.311,19.17 49.322,19.335 49.322,20.098 49.545,20.098 49.545,19.244 49.541,19.173 49.537,19.108 49.727,18.987 49.915,18.94 
			50.062,18.967 50.142,19.044 50.17,19.173 50.185,19.336 50.185,20.099 50.409,20.099 50.409,19.232 		"/>
	</g>
</g>
<g>
	<g>
		<path d="M15.656,21.805c-0.518-0.292-1.336-0.438-2.454-0.438c-0.553,0-1.104,0.043-1.661,0.129
			c-0.411,0.063-0.451,0.075-0.704,0.13c-0.522,0.114-0.604,0.635-0.604,0.635l-0.168,0.691c-0.095,0.441,0.159,0.424,0.265,0.387
			c0.228-0.068,0.355-0.138,0.821-0.242c0.445-0.101,0.914-0.177,1.286-0.172c0.549,0,0.969,0.058,1.249,0.176
			c0.276,0.12,0.414,0.326,0.414,0.624l-0.024,0.194l-0.198,0.122c-0.779,0.049-1.342,0.121-2.025,0.22
			c-0.668,0.093-1.254,0.256-1.741,0.479c-0.523,0.23-0.911,0.539-1.182,0.932c-0.262,0.395-0.393,0.874-0.393,1.436
			c0,0.529,0.19,0.966,0.559,1.304c0.371,0.332,0.861,0.494,1.447,0.494c0.371-0.002,0.658-0.031,0.862-0.08l0.665-0.229
			l0.563-0.312l0.518-0.342l0.007,0.01l-0.052,0.22l-0.003,0.009v0.002c-0.056,0.268,0.106,0.488,0.367,0.514l0.005,0.006h0.024
			h1.053h0.198l0.018-0.008c0.274-0.032,0.531-0.252,0.591-0.514l1.001-4.333l0.052-0.353l0.024-0.331
			C16.44,22.551,16.175,22.096,15.656,21.805z M13.442,26.677l-0.214,0.282l-0.54,0.279c-0.254,0.103-0.495,0.155-0.718,0.155
			c-0.338,0-0.603-0.049-0.782-0.149l-0.265-0.515c0-0.279,0.064-0.5,0.201-0.67l0.582-0.396c0.249-0.084,0.553-0.155,0.905-0.204
			c0.314-0.039,0.934-0.11,1.015-0.112l0.095,0.167C13.702,25.609,13.526,26.345,13.442,26.677z"/>
	</g>
</g>
<g>
	<g>
		<path d="M40.594,21.811c-0.521-0.292-1.338-0.439-2.453-0.439c-0.553,0-1.105,0.043-1.66,0.132
			c-0.412,0.06-0.453,0.073-0.707,0.127c-0.521,0.113-0.602,0.636-0.602,0.636l-0.168,0.69c-0.094,0.441,0.154,0.421,0.27,0.387
			c0.229-0.068,0.352-0.135,0.814-0.243c0.443-0.1,0.916-0.174,1.289-0.172c0.547,0,0.967,0.059,1.246,0.177
			c0.278,0.12,0.414,0.328,0.414,0.623l-0.021,0.193l-0.196,0.125c-0.787,0.047-1.351,0.119-2.027,0.218
			c-0.666,0.093-1.254,0.255-1.742,0.479c-0.521,0.231-0.914,0.54-1.182,0.934c-0.265,0.395-0.394,0.873-0.394,1.43
			c0,0.533,0.188,0.97,0.562,1.306c0.373,0.331,0.858,0.497,1.444,0.497c0.369-0.004,0.656-0.028,0.861-0.081l0.663-0.226
			l0.568-0.312l0.514-0.346l0.009,0.011l-0.047,0.222l-0.005,0.004l0.002,0.004c-0.062,0.268,0.101,0.49,0.365,0.514l0.002,0.005
			h0.024c0.173,0,0.771,0,1.056,0h0.194l0.021-0.007c0.271-0.033,0.527-0.253,0.584-0.518l1.004-4.327l0.053-0.355l0.029-0.332
			C41.379,22.555,41.117,22.102,40.594,21.811z M38.385,26.683l-0.223,0.285l-0.535,0.277c-0.254,0.102-0.496,0.155-0.715,0.155
			c-0.349,0-0.607-0.05-0.781-0.15l-0.268-0.513c0-0.28,0.065-0.499,0.196-0.672c0.133-0.163,0.336-0.297,0.588-0.395
			c0.246-0.084,0.55-0.152,0.904-0.203c0.312-0.039,0.93-0.112,1.01-0.113l0.097,0.167C38.644,25.616,38.467,26.349,38.385,26.683z"
			/>
	</g>
</g>
<g>
	<g>
		<path d="M33.969,20.635c-0.172-0.333-0.43-0.602-0.756-0.812c-0.334-0.208-0.73-0.354-1.193-0.438
			c-0.455-0.081-0.998-0.125-1.615-0.126l-2.871,0.002c-0.299,0.005-0.586,0.237-0.655,0.522l-1.931,8.406
			c-0.07,0.285,0.122,0.521,0.414,0.521l1.375-0.002c0.292,0.002,0.591-0.232,0.66-0.52l0.465-2.041
			c0.068-0.284,0.363-0.523,0.66-0.521h0.393c1.681,0,2.984-0.346,3.922-1.031c0.927-0.693,1.396-1.6,1.396-2.727
			C34.228,21.377,34.143,20.962,33.969,20.635z M31.008,23.384c-0.414,0.298-0.992,0.45-1.732,0.45h-0.342
			c-0.295,0.003-0.486-0.237-0.42-0.523l0.416-1.781c0.061-0.285,0.359-0.524,0.656-0.521l0.445-0.003
			c0.528,0.003,0.924,0.09,1.194,0.266c0.269,0.176,0.396,0.452,0.399,0.818C31.627,22.648,31.42,23.078,31.008,23.384z"/>
	</g>
</g>
<g>
	<g>
		<path d="M45.742,19.85c0.063-0.287-0.117-0.52-0.412-0.516H44.1c-0.252,0-0.479,0.187-0.59,0.417l-0.068,0.106l-0.062,0.272
			l-1.719,7.814l-0.056,0.24l0.002,0.006c-0.057,0.257,0.101,0.451,0.345,0.488l0.021,0.029h1.277c0.25,0,0.485-0.19,0.592-0.424
			l0.066-0.1l1.838-8.331L45.742,19.85z"/>
	</g>
</g>
<g>
	<g>
		<path d="M24.986,21.472c-0.325,0.004-1.646,0-1.646,0c-0.296,0-0.676,0.239-0.864,0.524c0,0-1.966,3.374-2.157,3.713l-0.228-0.003
			l-0.612-3.687c-0.068-0.29-0.371-0.538-0.748-0.538l-1.23,0.002c-0.296,0-0.478,0.236-0.411,0.524c0,0,0.934,5.315,1.121,6.566
			c0.087,0.69-0.011,0.813-0.011,0.813l-1.216,2.118c-0.18,0.288-0.083,0.523,0.212,0.523l1.422-0.002
			c0.296,0,0.685-0.233,0.861-0.522l5.47-9.252C24.949,22.252,25.475,21.461,24.986,21.472z"/>
	</g>
</g>
<g>
</g>
<g>
</g>
<g>
</g>
<g>
</g>
<g>
</g>
<g>
</g>
<g>
</g>
<g>
</g>
<g>
</g>
<g>
</g>
<g>
</g>
<g>
</g>
<g>
</g>
<g>
</g>
<g>
</g>
</svg>
