<svg width="45" height="45" viewBox="0 0 512 512" fill="none" xmlns="http://www.w3.org/2000/svg">
<path d="M111 504C111 504 100.698 413.689 189.44 403.613H227.413V386.12C227.413 386.12 254.125 397.593 281.173 387.4L282.027 403.613H326.4C326.4 403.613 403.673 411.328 399 504H111Z" fill="#F8C9AE"/>
<path d="M398.262 505.587H113.746H108.228L109.605 482.057C112.294 436.115 148.492 401.053 189.915 401.053H221.44V405.747H192.43C152.506 405.747 117.619 439.495 115.027 483.717L114.071 500.04H397.51L396.98 483.717C394.388 439.495 359.501 405.747 319.578 405.747H280.747V401.053H321.839C363.263 401.053 399.46 436.115 402.149 482.057L403.527 505.587H398.262Z" fill="#3B434F"/>
<path d="M231.68 384.146V410.461C231.68 424.117 242.759 435.187 256.427 435.187C270.094 435.187 281.173 424.117 281.173 410.461V384.689C282.609 384.252 284.032 383.777 285.44 383.264V410.64C285.44 426.789 272.355 439.88 256.213 439.88C240.072 439.88 226.987 426.789 226.987 410.64V382.454C228.533 383.065 230.098 383.627 231.68 384.146Z" fill="#3B434F"/>
<path d="M226.773 434.76C228.305 434.76 229.547 436.002 229.547 437.533V479.347C229.547 480.878 228.305 482.12 226.773 482.12C225.242 482.12 224 480.878 224 479.347V437.533C224 436.002 225.242 434.76 226.773 434.76Z" fill="#3B434F"/>
<path d="M285.013 434.333C286.663 434.333 288 435.671 288 437.32V463.347C288 464.996 286.663 466.333 285.013 466.333C283.364 466.333 282.027 464.996 282.027 463.347V437.32C282.027 435.671 283.364 434.333 285.013 434.333Z" fill="#3B434F"/>
<path d="M226.773 479.133C227.598 479.133 228.267 479.802 228.267 480.627V491.293C228.267 492.118 227.598 492.787 226.773 492.787C225.949 492.787 225.28 492.118 225.28 491.293V480.627C225.28 479.802 225.949 479.133 226.773 479.133Z" fill="#3B434F"/>
<path d="M285.227 463.347C286.051 463.347 286.72 464.015 286.72 464.84V475.507C286.72 476.331 286.051 477 285.227 477C284.402 477 283.733 476.331 283.733 475.507V464.84C283.733 464.015 284.402 463.347 285.227 463.347Z" fill="#3B434F"/>
<path d="M210.765 373.646L183.742 379.851C183.742 379.851 150.649 387.347 172.666 409.651C194.682 431.954 251.307 435.893 251.307 435.893C251.307 435.893 236.335 428.802 229.973 418.827L227.84 382.987L210.765 373.646Z" fill="#F5F3EF"/>
<path fill-rule="evenodd" clip-rule="evenodd" d="M252.16 438.027C250.483 440.149 203.333 438.69 170.667 410.293C147.014 389.733 182.613 377.867 182.613 377.867L208.64 371.893L231.253 383.413L232.96 417.973C242.479 432.9 254.859 434.61 252.16 438.027ZM228.693 419.68L226.133 383.413L212.48 375.733L186.453 382.133C186.453 382.133 154.928 388.598 174.933 407.307C196.523 427.497 236.462 432.916 240.64 432.48C244.971 432.029 238.213 434.606 228.693 419.68Z" fill="#3B434F"/>
<path d="M302.059 374.651L329.099 380.875C329.099 380.875 362.212 388.394 340.182 410.764C318.152 433.134 261.494 437.085 261.494 437.085C261.494 437.085 276.474 429.973 282.84 419.967L284.975 384.02L302.059 374.651Z" fill="#F5F3EF"/>
<path fill-rule="evenodd" clip-rule="evenodd" d="M260.64 438.798C262.318 440.927 309.496 439.463 342.182 410.982C365.849 390.359 330.228 378.458 330.228 378.458L304.186 372.467L281.559 384.021L279.852 418.685C270.327 433.656 257.939 435.371 260.64 438.798ZM284.121 420.396L286.682 384.021L300.344 376.318L326.386 382.737C326.386 382.737 357.929 389.221 337.913 407.986C316.311 428.237 276.348 433.672 272.167 433.235C267.834 432.782 274.596 435.367 284.121 420.396Z" fill="#3B434F"/>
<path d="M256.215 116.467C309.293 116.467 351.187 166.068 349.825 225.665L348.377 289.006C347.094 345.152 305.845 389.533 256.215 389.533C206.584 389.533 165.336 345.152 164.052 289.006L162.605 225.665C161.242 166.068 203.137 116.467 256.215 116.467Z" fill="white"/>
<path fill-rule="evenodd" clip-rule="evenodd" d="M354.089 223.701L352.572 289.616C351.228 348.043 308.006 394.227 256.001 394.227C203.996 394.227 160.775 348.043 159.43 289.616L157.913 223.701C156.486 161.683 200.384 110.067 256.001 110.067C311.618 110.067 355.517 161.683 354.089 223.701ZM255.788 116.893C203.436 116.893 162.114 166.107 163.458 225.238L164.886 288.085C166.152 343.793 206.836 387.827 255.788 387.827C304.741 387.827 345.425 343.793 346.691 288.085L348.119 225.238C349.462 166.107 308.141 116.893 255.788 116.893Z" fill="#3B434F"/>
<path opacity="0.058824" fill-rule="evenodd" clip-rule="evenodd" d="M351.427 234.653L347.16 304.627C347.16 304.627 328.21 385.398 255 394.961V395.08C254.856 395.062 254.717 395.039 254.573 395.021C254.43 395.039 254.291 395.062 254.147 395.08V394.961C180.937 385.398 161.987 304.627 161.987 304.627L157.72 234.653C176.718 318.98 192.707 324.253 192.707 324.253C189.471 298.682 215.747 301.213 215.747 301.213C231.761 303.918 244.509 305.226 254.573 305.714C264.638 305.226 277.386 303.918 293.4 301.213C293.4 301.213 319.676 298.682 316.44 324.253C316.44 324.253 332.429 318.98 351.427 234.653ZM303.983 332.926C302.741 317.885 293.671 319.16 293.671 319.16C277.546 323.905 264.889 326.541 255 327.88V327.782C245.181 326.453 232.612 323.839 216.6 319.133C216.6 319.133 207.593 317.868 206.36 332.787C206.36 332.787 202.743 347.733 214.893 354.12L230.253 370.333C230.253 370.333 240.75 373.66 240.493 360.947C240.493 360.947 239.425 351.465 245.613 349.853H255V350.134H264.453C270.685 351.759 269.609 361.319 269.609 361.319C269.351 374.138 279.921 370.783 279.921 370.783L295.39 354.436C307.625 347.997 303.983 332.926 303.983 332.926Z" fill="#3B434F"/>
<path d="M302.08 327.326C294.325 334.06 276.808 340.467 256.427 340.467C236.045 340.467 218.529 334.06 210.773 327.326C210.773 327.326 209.98 325.143 211.144 323.978C212.33 322.793 214.187 323.051 214.187 323.051C221.934 329.789 236.038 335.347 256.427 335.347C276.816 335.347 290.92 329.789 298.667 323.051C298.667 323.051 300.562 322.347 301.482 323.267C303.255 325.041 302.08 327.326 302.08 327.326Z" fill="#3B434F"/>
<path d="M242.347 350.707H269.653V354.973H242.347V350.707Z" fill="#3B434F"/>
<path d="M157.807 233.313C157.795 233.314 156.76 232.487 154.804 231.871C153.826 231.564 152.611 231.311 151.226 231.248C150.88 231.233 150.524 231.229 150.16 231.24C149.796 231.25 149.423 231.274 149.045 231.315C148.287 231.396 147.505 231.541 146.718 231.767C143.567 232.673 140.353 234.875 138.465 239.419C137.517 241.691 136.892 244.55 136.727 248.126C136.685 249.02 136.673 249.959 136.691 250.945C136.709 251.931 136.758 252.963 136.84 254.045C137.003 256.209 137.298 258.568 137.738 261.14C137.728 261.137 137.328 268.91 140.106 277.841C142.719 286.573 148.991 297.299 160.573 300.364C159.241 278.185 159.2 255.59 157.807 233.313Z" fill="white"/>
<path d="M159.128 234.207C159.128 234.207 138.951 227.956 139.662 248.698C139.662 248.698 142.665 278.775 143.97 281.547C143.97 281.547 151.894 299.059 164.971 299.835C177.752 300.594 164.971 299.835 164.971 299.835L165.13 305.48C165.13 305.48 142.145 302.533 137.706 276.045L134.202 251.983C134.202 251.983 131.481 220.138 157.871 228.235C183.58 236.123 157.871 228.235 157.871 228.235L159.128 234.207Z" fill="#3B434F"/>
<path d="M152.468 275.995C152.468 275.995 151.339 276.848 150.369 276.848C149.399 276.848 148.284 275.995 148.284 275.995L146.202 255.012C146.202 255.012 149.074 244.679 161.265 250.139L161.554 256.139C161.554 256.139 150.858 252.346 151.079 257.069C151.292 261.616 152.468 275.995 152.468 275.995Z" fill="#3B434F"/>
<path d="M353.813 233.362C353.825 233.363 354.866 232.536 356.83 231.921C357.812 231.614 359.032 231.361 360.423 231.299C360.771 231.283 361.128 231.28 361.494 231.29C361.86 231.3 362.234 231.325 362.614 231.365C363.375 231.446 364.16 231.591 364.951 231.817C368.116 232.722 371.344 234.923 373.241 239.464C374.192 241.735 374.82 244.591 374.986 248.165C375.028 249.058 375.041 249.997 375.022 250.982C375.004 251.967 374.955 252.999 374.873 254.08C374.709 256.242 374.412 258.6 373.971 261.17C373.98 261.167 374.383 268.935 371.592 277.86C368.968 286.586 362.668 297.305 351.035 300.368C352.373 278.204 352.415 255.624 353.813 233.362Z" fill="white"/>
<path d="M352.483 234.256C352.483 234.256 372.747 228.008 372.034 248.737C372.034 248.737 369.017 278.793 367.707 281.564C367.707 281.564 359.748 299.064 346.614 299.839C333.777 300.597 346.614 299.839 346.614 299.839L346.455 305.48C346.455 305.48 369.54 302.535 373.999 276.065L377.518 252.019C377.518 252.019 380.25 220.196 353.745 228.287C327.923 236.17 353.745 228.287 353.745 228.287L352.483 234.256Z" fill="#3B434F"/>
<path d="M359.171 276.015C359.171 276.015 360.305 276.868 361.28 276.868C362.254 276.868 363.374 276.015 363.374 276.015L365.466 255.046C365.466 255.046 362.58 244.72 350.336 250.177L350.046 256.173C350.046 256.173 360.789 252.382 360.567 257.102C360.353 261.646 359.171 276.015 359.171 276.015Z" fill="#3B434F"/>
<path fill-rule="evenodd" clip-rule="evenodd" d="M263.893 274.333C264.391 274.333 264.889 274.333 265.387 274.333C268.474 278.526 269.73 284.97 271.36 290.547C271.865 292.275 271.375 295.298 270.933 296.52C269.316 300.996 264.236 300.915 260.053 302.92C258.93 303.458 258.095 304.388 256.64 304.627C255.692 303.791 254.547 303.627 254.08 302.28C252.928 300.693 254.413 299.702 255.573 299.08C257.68 297.95 264.181 296.837 264.96 294.813C265.923 293.718 265.283 290.423 264.96 289.267C264.133 286.305 263.737 283.832 262.613 281.16C261.867 279.385 260.557 277.514 261.333 275.4C261.977 275.124 263.367 274.81 263.893 274.333Z" fill="#3B434F"/>
<path d="M201.813 244.211H217.173C219.294 244.211 221.013 246.274 221.013 248.819C221.013 251.364 219.294 253.427 217.173 253.427H201.813C199.693 253.427 197.973 251.364 197.973 248.819C197.973 246.274 199.693 244.211 201.813 244.211Z" fill="#3B434F"/>
<path d="M295.68 243.187H311.04C313.161 243.187 314.88 245.25 314.88 247.795C314.88 250.34 313.161 252.403 311.04 252.403H295.68C293.559 252.403 291.84 250.34 291.84 247.795C291.84 245.25 293.559 243.187 295.68 243.187Z" fill="#3B434F"/>
<path d="M307.627 269.64C313.518 269.64 318.293 274.416 318.293 280.307C318.293 286.198 313.518 290.973 307.627 290.973C301.736 290.973 296.96 286.198 296.96 280.307C296.96 274.416 301.736 269.64 307.627 269.64Z" fill="#EDF1F1"/>
<path d="M204.373 269.64C210.264 269.64 215.04 274.416 215.04 280.307C215.04 286.198 210.264 290.973 204.373 290.973C198.482 290.973 193.707 286.198 193.707 280.307C193.707 274.416 198.482 269.64 204.373 269.64Z" fill="#EDF1F1"/>
<path fill-rule="evenodd" clip-rule="evenodd" d="M348.94 228.88C348.363 233.81 347.856 239.842 346.79 245.236C343.602 261.364 329.743 276.307 306.08 278.01C282.416 279.713 262.276 267.8 261.096 251.402C260.895 248.621 260.36 245.501 259.949 242.468C256.6 240.611 253.149 240.607 249.595 242.455C249.179 245.557 248.624 248.759 248.419 251.606C247.235 268.059 227.032 280.011 203.293 278.303C179.555 276.594 165.652 261.602 162.455 245.42C161.385 240.009 160.877 233.956 160.298 229.01L156.809 228.759L157.299 221.949L158.151 222.011L179.739 223.564L197.962 224.876L216.219 226.189L244.656 228.236C246.617 228.484 247.921 229.325 248.761 230.581C252.845 232.368 256.811 232.375 260.66 230.602C261.492 229.265 262.813 228.366 264.847 228.108L293.194 226.069L311.394 224.759L329.56 223.452L351.08 221.904L351.929 221.843L352.417 228.629L348.94 228.88ZM237.02 236.237L181.288 232.227C173.999 231.598 171.415 239.79 170.966 246.033C170.019 259.194 184.684 270.975 203.722 272.345C222.76 273.715 238.961 264.156 239.908 250.994C240.357 244.751 242.396 240.895 237.02 236.237ZM338.305 245.846C337.857 239.624 335.282 231.46 328.015 232.086L272.459 236.083C267.1 240.726 269.132 244.569 269.58 250.791C270.524 263.91 286.674 273.437 305.652 272.072C324.63 270.706 339.249 258.965 338.305 245.846Z" fill="#3B444F"/>
<path d="M163.017 261.107C163.017 261.107 174.887 209.111 185.215 194.888C195.544 180.665 204.482 177.263 209.121 176.828C213.761 176.393 250.293 187.193 300.476 174.822C300.476 174.822 320.264 174.032 328.651 193.885C328.651 193.885 346.336 225.522 349.142 257.093H352.557C352.557 257.093 359.795 201.751 356.826 168.802C353.858 135.853 310.722 119.64 310.722 119.64L320.113 112.616C320.113 112.616 298.187 105.838 289.377 109.606L296.207 95.56C296.207 95.56 251.957 95.6482 227.051 115.626L227.905 105.593C227.905 105.593 140.115 119.056 158.748 259.1L163.017 261.107Z" fill="#3B434F"/>
</svg>
