<svg width="45" height="45" viewBox="0 0 512 512" fill="none" xmlns="http://www.w3.org/2000/svg">
<path d="M419.427 393.498C399.032 482.707 294.638 447.769 259 432.948V432.853C223.362 447.686 118.968 482.65 98.5733 393.373C98.5733 393.373 135.153 393.767 124.173 279.027C124.173 279.027 84.5432 51.7268 259 70.7254V71.0978C433.457 52.1138 393.827 279.239 393.827 279.239C382.847 393.891 419.427 393.498 419.427 393.498Z" fill="#3B434F"/>
<path d="M116.36 502C116.36 502 109.745 412.012 194.44 403.613H232.413V386.12C232.413 386.12 259.125 397.593 286.173 387.4L287.027 403.613H331.4C331.4 403.613 407.385 406.598 403.933 502.853L116.36 502Z" fill="#F8C9AE"/>
<path d="M404.675 505.587H120.159H114.641L116.018 482.057C118.708 436.115 154.905 401.053 196.328 401.053H227.853V405.747H198.843C158.92 405.747 124.033 439.495 121.441 483.717L120.484 500.04H403.923L403.393 483.717C400.801 439.495 365.914 405.747 325.991 405.747H287.16V401.053H328.253C369.676 401.053 405.873 436.115 408.563 482.057L409.94 505.587H404.675Z" fill="#3B434F"/>
<path d="M257.72 453.96C234.863 453.96 216.333 435.431 216.333 412.573C216.333 408.574 216.912 404.712 217.97 401.053H218.04H222.432H229.987V405.747H221.239C220.824 407.96 220.6 410.24 220.6 412.573C220.6 433.074 237.219 449.693 257.72 449.693C278.221 449.693 294.84 433.074 294.84 412.573C294.84 410.24 294.616 407.96 294.201 405.747H285.453V401.053H293.008H297.4H297.47C298.528 404.712 299.107 408.574 299.107 412.573C299.107 435.431 280.577 453.96 257.72 453.96Z" fill="#3B434F"/>
<path d="M233.4 384.146V410.461C233.4 424.117 244.479 435.187 258.147 435.187C271.814 435.187 282.893 424.117 282.893 410.461V384.689C284.329 384.252 285.752 383.777 287.16 383.264V410.64C287.16 426.789 274.075 439.88 257.933 439.88C241.792 439.88 228.707 426.789 228.707 410.64V382.454C230.253 383.065 231.818 383.627 233.4 384.146Z" fill="#3B434F"/>
<path d="M259.215 116.467C312.293 116.467 354.187 166.068 352.825 225.665L351.377 289.006C350.094 345.152 308.845 389.533 259.215 389.533C209.584 389.533 168.336 345.152 167.052 289.006L165.605 225.665C164.242 166.068 206.137 116.467 259.215 116.467Z" fill="white"/>
<path fill-rule="evenodd" clip-rule="evenodd" d="M357.089 223.701L355.572 289.616C354.228 348.043 311.006 394.227 259.001 394.227C206.996 394.227 163.775 348.043 162.43 289.616L160.913 223.701C159.486 161.683 203.384 110.067 259.001 110.067C314.618 110.067 358.517 161.683 357.089 223.701ZM258.788 116.893C206.436 116.893 165.114 166.107 166.458 225.238L167.886 288.085C169.152 343.793 209.836 387.827 258.788 387.827C307.741 387.827 348.425 343.793 349.691 288.085L351.119 225.238C352.462 166.107 311.141 116.893 258.788 116.893Z" fill="#3B434F"/>
<path d="M305.08 327.326C297.325 334.06 279.808 340.467 259.427 340.467C239.045 340.467 221.529 334.06 213.773 327.326C213.773 327.326 212.98 325.143 214.144 323.978C215.33 322.793 217.187 323.051 217.187 323.051C224.934 329.789 239.038 335.347 259.427 335.347C279.816 335.347 293.92 329.789 301.667 323.051C301.667 323.051 303.562 322.347 304.482 323.267C306.255 325.041 305.08 327.326 305.08 327.326Z" fill="#3B434F"/>
<path d="M245.347 350.707H272.653V354.973H245.347V350.707Z" fill="#3B434F"/>
<path d="M160.807 233.313C160.795 233.314 159.76 232.487 157.804 231.871C156.826 231.564 155.611 231.311 154.226 231.248C153.88 231.233 153.524 231.229 153.16 231.24C152.796 231.25 152.423 231.274 152.045 231.315C151.287 231.396 150.505 231.541 149.718 231.767C146.567 232.673 143.353 234.875 141.465 239.419C140.517 241.691 139.892 244.55 139.727 248.126C139.685 249.02 139.673 249.959 139.691 250.945C139.709 251.931 139.758 252.963 139.84 254.045C140.003 256.209 140.298 258.568 140.738 261.14C140.728 261.137 140.328 268.91 143.106 277.841C145.719 286.573 151.992 297.299 163.573 300.364C162.241 278.185 162.2 255.59 160.807 233.313Z" fill="white"/>
<path d="M162.128 234.207C162.128 234.207 141.951 227.956 142.662 248.698C142.662 248.698 145.665 278.775 146.97 281.547C146.97 281.547 154.894 299.059 167.971 299.835C180.752 300.594 167.971 299.835 167.971 299.835L168.13 305.48C168.13 305.48 145.145 302.533 140.706 276.045L137.202 251.983C137.202 251.983 134.481 220.138 160.871 228.235C186.58 236.123 160.871 228.235 160.871 228.235L162.128 234.207Z" fill="#3B434F"/>
<path d="M155.468 275.995C155.468 275.995 154.339 276.848 153.369 276.848C152.399 276.848 151.284 275.995 151.284 275.995L149.202 255.012C149.202 255.012 152.074 244.679 164.265 250.139L164.554 256.139C164.554 256.139 153.858 252.346 154.079 257.069C154.292 261.616 155.468 275.995 155.468 275.995Z" fill="#3B434F"/>
<path d="M356.813 233.362C356.825 233.363 357.866 232.536 359.83 231.921C360.812 231.614 362.032 231.361 363.423 231.299C363.771 231.283 364.128 231.28 364.494 231.29C364.86 231.3 365.234 231.325 365.614 231.365C366.375 231.446 367.16 231.591 367.951 231.817C371.116 232.722 374.344 234.923 376.241 239.464C377.192 241.735 377.82 244.591 377.986 248.165C378.028 249.058 378.041 249.997 378.022 250.982C378.004 251.967 377.955 252.999 377.873 254.08C377.709 256.242 377.412 258.6 376.971 261.17C376.98 261.167 377.383 268.935 374.592 277.86C371.968 286.586 365.668 297.305 354.035 300.368C355.373 278.204 355.415 255.624 356.813 233.362Z" fill="white"/>
<path d="M355.483 234.256C355.483 234.256 375.747 228.008 375.034 248.737C375.034 248.737 372.017 278.793 370.707 281.564C370.707 281.564 362.748 299.064 349.614 299.839C336.777 300.597 349.614 299.839 349.614 299.839L349.455 305.48C349.455 305.48 372.54 302.535 376.999 276.065L380.518 252.019C380.518 252.019 383.25 220.196 356.745 228.287C330.923 236.17 356.745 228.287 356.745 228.287L355.483 234.256Z" fill="#3B434F"/>
<path d="M362.171 276.015C362.171 276.015 363.305 276.868 364.28 276.868C365.254 276.868 366.374 276.015 366.374 276.015L368.466 255.046C368.466 255.046 365.58 244.72 353.336 250.177L353.046 256.173C353.046 256.173 363.789 252.382 363.567 257.102C363.353 261.646 362.171 276.015 362.171 276.015Z" fill="#3B434F"/>
<path fill-rule="evenodd" clip-rule="evenodd" d="M266.893 274.333C267.391 274.333 267.889 274.333 268.387 274.333C271.474 278.526 272.73 284.97 274.36 290.547C274.865 292.275 274.375 295.298 273.933 296.52C272.316 300.996 267.236 300.915 263.053 302.92C261.93 303.458 261.095 304.388 259.64 304.627C258.692 303.791 257.547 303.627 257.08 302.28C255.928 300.693 257.413 299.702 258.573 299.08C260.68 297.95 267.181 296.837 267.96 294.813C268.923 293.718 268.283 290.423 267.96 289.267C267.133 286.305 266.737 283.832 265.613 281.16C264.867 279.385 263.557 277.514 264.333 275.4C264.977 275.124 266.367 274.81 266.893 274.333Z" fill="#3B434F"/>
<path d="M204.813 244.211H220.173C222.294 244.211 224.013 246.274 224.013 248.819C224.013 251.364 222.294 253.427 220.173 253.427H204.813C202.693 253.427 200.973 251.364 200.973 248.819C200.973 246.274 202.693 244.211 204.813 244.211Z" fill="#3B434F"/>
<path d="M298.68 243.187H314.04C316.161 243.187 317.88 245.25 317.88 247.795C317.88 250.34 316.161 252.403 314.04 252.403H298.68C296.559 252.403 294.84 250.34 294.84 247.795C294.84 245.25 296.559 243.187 298.68 243.187Z" fill="#3B434F"/>
<path d="M310.627 269.64C316.518 269.64 321.293 274.416 321.293 280.307C321.293 286.198 316.518 290.973 310.627 290.973C304.736 290.973 299.96 286.198 299.96 280.307C299.96 274.416 304.736 269.64 310.627 269.64Z" fill="#EDF1F1"/>
<path d="M207.373 269.64C213.264 269.64 218.04 274.416 218.04 280.307C218.04 286.198 213.264 290.973 207.373 290.973C201.482 290.973 196.707 286.198 196.707 280.307C196.707 274.416 201.482 269.64 207.373 269.64Z" fill="#EDF1F1"/>
<path fill-rule="evenodd" clip-rule="evenodd" d="M344.333 230.387V261.96C344.333 269.676 336.807 281.715 324.543 282.405C322.741 282.319 286.307 282.44 286.307 282.44C269.928 282.44 266.68 262.813 266.68 262.813V241.48H251.32V262.813C251.32 262.813 248.072 282.44 231.693 282.44C231.693 282.44 195.259 282.319 193.457 282.405C181.193 281.715 173.667 269.676 173.667 261.96V230.387H160.013V221.853H239.373C239.373 221.853 251.32 223.783 251.32 232.093H266.68C266.68 223.783 278.627 221.853 278.627 221.853H357.987V230.387H344.333ZM242.787 234.653C242.787 231.612 239.373 231.24 239.373 231.24H182.2V261.107C182.2 270.413 195 273.907 195 273.907H229.987C242.024 273.907 242.787 261.107 242.787 261.107C242.787 261.107 242.787 237.695 242.787 234.653ZM335.8 231.24H278.627C278.627 231.24 275.213 231.612 275.213 234.653C275.213 237.695 275.213 261.107 275.213 261.107C275.213 261.107 275.976 273.907 288.013 273.907H323C323 273.907 335.8 270.413 335.8 261.107V231.24ZM323.853 282.44C324.086 282.435 324.313 282.418 324.543 282.405C324.736 282.414 324.542 282.426 323.853 282.44ZM193.457 282.405C193.687 282.418 193.914 282.435 194.147 282.44C193.458 282.426 193.264 282.414 193.457 282.405Z" fill="#3B434F"/>
<path fill-rule="evenodd" clip-rule="evenodd" d="M259 163.009V68.5308C259.285 68.5286 259.568 68.52 259.853 68.52C319.706 68.52 368.227 117.04 368.227 176.893V211.723C368.205 212.937 368.204 214.128 368.227 215.293C368.227 215.293 267.578 188.073 259 163.009ZM149.773 215.293C149.796 214.128 149.795 212.937 149.773 211.723V176.893C149.773 117.04 198.294 68.52 258.147 68.52C258.432 68.52 258.715 68.5286 259 68.5308V163.009C250.422 188.073 149.773 215.293 149.773 215.293Z" fill="#3B434F"/>
</svg>
