<svg width="45" height="45" viewBox="0 0 512 512" fill="none" xmlns="http://www.w3.org/2000/svg">
<path d="M112 502C112 502 100.011 409.543 192.427 401.187H214.613C214.613 401.187 221.875 396.493 226.987 396.493V383.267C226.987 383.267 254.68 397.075 283.307 383.693V395.64C283.307 395.64 284.523 393.353 296.96 401.613H330.24C330.24 401.613 401 410.342 401 502H112Z" fill="#F8C9AE"/>
<path fill-rule="evenodd" clip-rule="evenodd" d="M398.262 505.587H113.746H108.228L109.605 482.057C112.294 436.115 148.492 401.053 189.915 401.053H218.399C216.551 402.582 215.197 404.167 214.223 405.747H192.43C152.506 405.747 117.619 439.495 115.027 483.717L114.071 500.04H397.51L396.98 483.717C394.388 439.495 359.501 405.747 319.578 405.747H297.766C296.932 404.179 295.746 402.593 294.09 401.053H321.839C363.263 401.053 399.46 436.115 402.149 482.057L403.527 505.587H398.262ZM285.65 405.747H284.16V401.053H285.816C285.717 402.273 285.653 403.811 285.65 405.747ZM225.639 401.053H227.413V405.747H225.88C225.857 403.754 225.766 402.224 225.639 401.053Z" fill="#3B434F"/>
<path d="M269.227 466.333C270.876 466.333 272.213 467.671 272.213 469.32C272.213 470.969 270.876 472.307 269.227 472.307C267.577 472.307 266.24 470.969 266.24 469.32C266.24 467.671 267.577 466.333 269.227 466.333Z" fill="#3B434F"/>
<path d="M269.227 485.96C270.876 485.96 272.213 487.297 272.213 488.947C272.213 490.596 270.876 491.933 269.227 491.933C267.577 491.933 266.24 490.596 266.24 488.947C266.24 487.297 267.577 485.96 269.227 485.96Z" fill="#3B434F"/>
<path fill-rule="evenodd" clip-rule="evenodd" d="M303.787 426.227L282.027 458.653C276.107 440.306 258.987 447.133 258.987 447.133V501.322C258.987 502.735 257.649 503.88 256 503.88C254.351 503.88 253.013 502.735 253.013 501.322V447.132C252.875 447.077 235.89 440.381 230.002 458.653L208.265 426.227C208.265 426.227 199.857 404.85 225.313 395.507C225.313 386.184 225.313 385.693 225.313 385.693H230.127C230.127 385.693 230.127 403.517 230.127 416.577C230.745 421.893 234.405 437.041 256 442.013C277.618 437.041 281.283 421.893 281.901 416.577C281.901 403.517 281.901 385.693 281.901 385.693H286.72C286.72 385.693 286.72 386.184 286.72 395.507C312.204 404.85 303.787 426.227 303.787 426.227ZM229.749 429.097C228.589 427.783 226.918 424.52 226.918 424.52C226.918 424.52 225.313 419.18 225.313 416.84C225.313 413.934 225.313 410.119 225.313 406.018C224.95 401.137 224.035 401.053 224.035 401.053C205.041 410.409 213.38 424.947 213.38 424.947L229.149 449.693C235.307 439.259 241.935 441.16 241.935 441.16C236.083 438.177 232.245 433.548 229.749 429.097ZM288 401.053C288 401.053 287.083 401.137 286.72 406.018C286.72 410.119 286.72 413.934 286.72 416.84C286.72 419.18 285.114 424.52 285.114 424.52C285.114 424.52 283.441 427.783 282.279 429.097C279.78 433.548 275.938 438.177 270.08 441.16C270.08 441.16 276.715 439.259 282.88 449.693L298.667 424.947C298.667 424.947 307.014 410.409 288 401.053Z" fill="#3B434F"/>
<path d="M256.215 116.467C309.293 116.467 351.187 166.068 349.825 225.665L348.377 289.006C347.094 345.152 305.845 389.533 256.215 389.533C206.584 389.533 165.336 345.152 164.052 289.006L162.605 225.665C161.242 166.068 203.137 116.467 256.215 116.467Z" fill="white"/>
<path fill-rule="evenodd" clip-rule="evenodd" d="M354.089 223.701L352.572 289.616C351.228 348.043 308.006 394.227 256.001 394.227C203.996 394.227 160.775 348.043 159.43 289.616L157.913 223.701C156.486 161.683 200.384 110.067 256.001 110.067C311.618 110.067 355.517 161.683 354.089 223.701ZM255.788 116.893C203.436 116.893 162.114 166.107 163.458 225.238L164.886 288.085C166.152 343.793 206.836 387.827 255.788 387.827C304.741 387.827 345.425 343.793 346.691 288.085L348.119 225.238C349.462 166.107 308.141 116.893 255.788 116.893Z" fill="#3B434F"/>
<path opacity="0.058824" fill-rule="evenodd" clip-rule="evenodd" d="M351.427 234.653L347.16 304.627C347.16 304.627 328.21 385.398 255 394.961V395.08C254.856 395.062 254.717 395.039 254.573 395.021C254.43 395.039 254.291 395.062 254.147 395.08V394.961C180.937 385.398 161.987 304.627 161.987 304.627L157.72 234.653C176.718 318.98 192.707 324.253 192.707 324.253C189.471 298.682 215.747 301.213 215.747 301.213C231.761 303.918 244.509 305.226 254.573 305.714C264.638 305.226 277.386 303.918 293.4 301.213C293.4 301.213 319.676 298.682 316.44 324.253C316.44 324.253 332.429 318.98 351.427 234.653ZM303.983 332.926C302.741 317.885 293.671 319.16 293.671 319.16C277.546 323.905 264.889 326.541 255 327.88V327.782C245.181 326.453 232.612 323.839 216.6 319.133C216.6 319.133 207.593 317.868 206.36 332.787C206.36 332.787 202.743 347.733 214.893 354.12L230.253 370.333C230.253 370.333 240.75 373.66 240.493 360.947C240.493 360.947 239.425 351.465 245.613 349.853H255V350.134H264.453C270.685 351.759 269.609 361.319 269.609 361.319C269.351 374.138 279.921 370.783 279.921 370.783L295.39 354.436C307.625 347.997 303.983 332.926 303.983 332.926Z" fill="#3B434F"/>
<path d="M302.08 327.326C294.325 334.06 276.808 340.467 256.427 340.467C236.045 340.467 218.529 334.06 210.773 327.326C210.773 327.326 209.98 325.143 211.144 323.978C212.33 322.793 214.187 323.051 214.187 323.051C221.934 329.789 236.038 335.347 256.427 335.347C276.816 335.347 290.92 329.789 298.667 323.051C298.667 323.051 300.562 322.347 301.482 323.267C303.255 325.041 302.08 327.326 302.08 327.326Z" fill="#3B434F"/>
<path d="M242.347 350.707H269.653V354.973H242.347V350.707Z" fill="#3B434F"/>
<path d="M157.807 233.313C157.795 233.314 156.76 232.487 154.804 231.871C153.826 231.564 152.611 231.311 151.226 231.248C150.88 231.233 150.524 231.229 150.16 231.24C149.796 231.25 149.423 231.274 149.045 231.315C148.287 231.396 147.505 231.541 146.718 231.767C143.567 232.673 140.353 234.875 138.465 239.419C137.517 241.691 136.892 244.55 136.727 248.126C136.685 249.02 136.673 249.959 136.691 250.945C136.709 251.931 136.758 252.963 136.84 254.045C137.003 256.209 137.298 258.568 137.738 261.14C137.728 261.137 137.328 268.91 140.106 277.841C142.719 286.573 148.992 297.299 160.573 300.364C159.241 278.185 159.2 255.59 157.807 233.313Z" fill="white"/>
<path d="M159.128 234.207C159.128 234.207 138.951 227.956 139.662 248.698C139.662 248.698 142.665 278.775 143.97 281.547C143.97 281.547 151.894 299.059 164.971 299.835C177.752 300.594 164.971 299.835 164.971 299.835L165.13 305.48C165.13 305.48 142.145 302.533 137.706 276.045L134.202 251.983C134.202 251.983 131.481 220.138 157.871 228.235C183.58 236.123 157.871 228.235 157.871 228.235L159.128 234.207Z" fill="#3B434F"/>
<path d="M152.468 275.995C152.468 275.995 151.339 276.848 150.369 276.848C149.399 276.848 148.284 275.995 148.284 275.995L146.202 255.012C146.202 255.012 149.074 244.679 161.265 250.139L161.554 256.139C161.554 256.139 150.858 252.346 151.079 257.069C151.292 261.616 152.468 275.995 152.468 275.995Z" fill="#3B434F"/>
<path d="M354.813 233.362C354.825 233.363 355.866 232.536 357.83 231.921C358.812 231.614 360.032 231.361 361.423 231.299C361.771 231.283 362.128 231.28 362.494 231.29C362.86 231.3 363.234 231.325 363.614 231.365C364.375 231.446 365.16 231.591 365.951 231.817C369.116 232.722 372.344 234.923 374.241 239.464C375.192 241.735 375.82 244.591 375.986 248.165C376.028 249.058 376.041 249.997 376.022 250.982C376.004 251.967 375.955 252.999 375.873 254.08C375.709 256.242 375.412 258.6 374.971 261.17C374.98 261.167 375.383 268.935 372.592 277.86C369.968 286.586 363.668 297.305 352.035 300.368C353.373 278.204 353.415 255.624 354.813 233.362Z" fill="#F7FBFB"/>
<path d="M352.483 234.256C352.483 234.256 372.747 228.008 372.034 248.737C372.034 248.737 369.017 278.793 367.707 281.564C367.707 281.564 359.748 299.064 346.614 299.839C333.777 300.597 346.614 299.839 346.614 299.839L346.455 305.48C346.455 305.48 369.54 302.535 373.999 276.065L377.518 252.019C377.518 252.019 380.25 220.196 353.745 228.287C327.923 236.17 353.745 228.287 353.745 228.287L352.483 234.256Z" fill="#3B434F"/>
<path d="M359.171 276.015C359.171 276.015 360.305 276.868 361.28 276.868C362.254 276.868 363.374 276.015 363.374 276.015L365.466 255.046C365.466 255.046 362.58 244.72 350.336 250.177L350.046 256.173C350.046 256.173 360.789 252.382 360.567 257.102C360.353 261.646 359.171 276.015 359.171 276.015Z" fill="#3B434F"/>
<path d="M353.343 233.349C353.354 233.35 354.391 232.519 356.349 231.9C357.328 231.592 358.545 231.338 359.931 231.275C360.277 231.259 360.634 231.256 360.998 231.266C361.363 231.277 361.736 231.301 362.115 231.342C362.873 231.423 363.656 231.569 364.444 231.796C367.598 232.706 370.817 234.918 372.707 239.484C373.655 241.767 374.281 244.638 374.447 248.231C374.488 249.129 374.501 250.072 374.483 251.063C374.464 252.053 374.415 253.091 374.334 254.178C374.17 256.351 373.875 258.722 373.434 261.305C373.444 261.302 373.845 269.111 371.063 278.083C368.448 286.856 362.168 297.632 350.573 300.711C351.907 278.429 351.948 255.729 353.343 233.349Z" fill="white"/>
<path d="M352.923 234.256C352.923 234.256 373.187 228.008 372.474 248.737C372.474 248.737 369.457 278.793 368.147 281.564C368.147 281.564 360.189 299.064 347.054 299.839C334.217 300.597 347.054 299.839 347.054 299.839L346.895 305.48C346.895 305.48 369.98 302.535 374.439 276.065L377.958 252.019C377.958 252.019 380.691 220.196 354.185 228.287C328.363 236.17 354.185 228.287 354.185 228.287L352.923 234.256Z" fill="#3B434F"/>
<path d="M359.611 276.015H363.814L365.906 255.046C365.906 255.046 363.02 244.72 350.776 250.177L350.486 256.173C350.486 256.173 361.229 252.382 361.007 257.102C360.793 261.646 359.611 276.015 359.611 276.015Z" fill="#3B434F"/>
<path fill-rule="evenodd" clip-rule="evenodd" d="M263.893 274.333C264.391 274.333 264.889 274.333 265.387 274.333C268.474 278.526 269.73 284.97 271.36 290.547C271.865 292.275 271.375 295.298 270.933 296.52C269.316 300.996 264.236 300.915 260.053 302.92C258.93 303.458 258.095 304.388 256.64 304.627C255.692 303.791 254.547 303.627 254.08 302.28C252.928 300.693 254.413 299.702 255.573 299.08C257.68 297.95 264.181 296.837 264.96 294.813C265.923 293.718 265.283 290.423 264.96 289.267C264.133 286.305 263.737 283.832 262.613 281.16C261.867 279.385 260.557 277.514 261.333 275.4C261.977 275.124 263.367 274.81 263.893 274.333Z" fill="#3B434F"/>
<path d="M204.8 241.48H210.773C214.072 241.48 216.747 244.154 216.747 247.453C216.747 250.752 214.072 253.427 210.773 253.427H204.8C201.501 253.427 198.827 250.752 198.827 247.453C198.827 244.154 201.501 241.48 204.8 241.48Z" fill="#3B434F"/>
<path d="M302.08 241.48H308.053C311.352 241.48 314.027 244.154 314.027 247.453C314.027 250.752 311.352 253.427 308.053 253.427H302.08C298.781 253.427 296.107 250.752 296.107 247.453C296.107 244.154 298.781 241.48 302.08 241.48Z" fill="#3B434F"/>
<path opacity="0.14902" d="M180.907 226.12H238.08C241.379 226.12 244.053 228.794 244.053 232.093V268.787C244.053 272.086 241.379 274.76 238.08 274.76H180.907C177.608 274.76 174.933 272.086 174.933 268.787V232.093C174.933 228.794 177.608 226.12 180.907 226.12Z" fill="#3B434F"/>
<path opacity="0.14902" d="M273.067 226.12H330.24C333.539 226.12 336.213 228.794 336.213 232.093V268.787C336.213 272.086 333.539 274.76 330.24 274.76H273.067C269.768 274.76 267.093 272.086 267.093 268.787V232.093C267.093 228.794 269.768 226.12 273.067 226.12Z" fill="#3B434F"/>
<path fill-rule="evenodd" clip-rule="evenodd" d="M341.333 230.387V261.96C341.333 269.676 333.807 281.715 321.543 282.405C319.741 282.319 283.307 282.44 283.307 282.44C266.928 282.44 263.68 262.813 263.68 262.813V241.48H248.32V262.813C248.32 262.813 245.072 282.44 228.693 282.44C228.693 282.44 192.259 282.319 190.457 282.405C178.193 281.715 170.667 269.676 170.667 261.96V230.387H157.013V221.853H236.373C236.373 221.853 248.32 223.783 248.32 232.093H263.68C263.68 223.783 275.627 221.853 275.627 221.853H354.987V230.387H341.333ZM239.787 234.653C239.787 231.612 236.373 231.24 236.373 231.24H179.2V261.107C179.2 270.413 192 273.907 192 273.907H226.987C239.024 273.907 239.787 261.107 239.787 261.107C239.787 261.107 239.787 237.695 239.787 234.653ZM332.8 231.24H275.627C275.627 231.24 272.213 231.612 272.213 234.653C272.213 237.695 272.213 261.107 272.213 261.107C272.213 261.107 272.976 273.907 285.013 273.907H320C320 273.907 332.8 270.413 332.8 261.107V231.24ZM320.853 282.44C321.086 282.435 321.313 282.418 321.543 282.405C321.736 282.414 321.542 282.426 320.853 282.44ZM190.457 282.405C190.687 282.418 190.914 282.435 191.147 282.44C190.458 282.426 190.264 282.414 190.457 282.405Z" fill="#3B434F"/>
</svg>
