<svg width="45" height="45" viewBox="0 0 512 512" fill="none" xmlns="http://www.w3.org/2000/svg">
<path d="M111 504C111 504 100.698 413.689 189.44 403.613H227.413V386.12C227.413 386.12 254.125 397.593 281.173 387.4L282.027 403.613H326.4C326.4 403.613 403.673 411.328 399 504H111Z" fill="#F8C9AE"/>
<path d="M243 451L255 438L268 451L261 458L272 503H238L250 458L243 451Z" fill="#3B434F"/>
<path d="M398.262 505.587H113.746H108.228L109.605 482.057C112.294 436.115 148.492 401.053 189.915 401.053H227.413V405.747H192.43C152.506 405.747 117.619 439.495 115.027 483.717L114.071 500.04H397.51L396.98 483.717C394.388 439.495 359.501 405.747 319.578 405.747H284.16V401.053H321.839C363.263 401.053 399.46 436.115 402.149 482.057L403.527 505.587H398.262Z" fill="#3B434F"/>
<path d="M230.4 384.146V410.461C230.4 424.117 241.479 435.187 255.147 435.187C268.814 435.187 279.893 424.117 279.893 410.461V384.689C281.329 384.252 282.752 383.777 284.16 383.264V410.64C284.16 426.789 271.075 439.88 254.933 439.88C238.792 439.88 225.707 426.789 225.707 410.64V382.454C227.253 383.065 228.818 383.627 230.4 384.146Z" fill="#3B434F"/>
<path d="M331.72 457.489L319.635 482.696C319.023 483.971 317.494 484.509 316.219 483.898C314.945 483.287 314.407 481.758 315.018 480.483L326.69 456.138L317.57 440.341C316.863 439.117 317.282 437.551 318.507 436.844C319.731 436.137 321.297 436.557 322.004 437.781L331.817 454.779C332.323 455.654 332.249 456.703 331.72 457.489Z" fill="#3B434F"/>
<path d="M178.362 457.514L190.513 482.798C191.127 484.077 192.664 484.617 193.946 484.004C195.228 483.391 195.769 481.857 195.154 480.578L183.42 456.158L192.589 440.313C193.299 439.085 192.878 437.515 191.647 436.805C190.416 436.096 188.842 436.517 188.131 437.745L178.265 454.795C177.756 455.673 177.83 456.726 178.362 457.514Z" fill="#3B434F"/>
<path d="M225.707 400.2H230.4V503.88H225.707V400.2Z" fill="#3B434F"/>
<path d="M279.893 401.053H284.587V504.733H279.893V401.053Z" fill="#3B434F"/>
<path fill-rule="evenodd" clip-rule="evenodd" d="M270.699 503.69L258.605 458.554L261.12 457.8L262.787 456.028L275.579 503.766L270.699 503.69ZM236.585 503.157L249.211 456.248L250.027 456.947L252.587 458.653L253.431 458.738L241.454 503.233L236.585 503.157Z" fill="#3B434F"/>
<path fill-rule="evenodd" clip-rule="evenodd" d="M284.146 463.788L280.827 467.106L267.914 454.193C265.422 458.151 261.022 460.787 256 460.787C250.775 460.787 246.224 457.934 243.795 453.707L230.315 467.186L226.988 463.859L253.527 437.32L255.602 435.396L257.678 437.32L284.146 463.788ZM246.406 451.096C248.107 454.561 251.666 456.947 255.787 456.947C259.814 456.947 263.301 454.663 265.046 451.325L255.611 441.891L246.406 451.096Z" fill="#3B434F"/>
<path d="M256.007 125.427C310.036 125.427 351.137 172.81 348.938 227.03L345.954 300.61C337.499 350.565 303.059 386.63 256.384 391.667C210.855 386.882 175.739 350.552 166.06 300.61L163.076 227.03C160.876 172.81 201.978 125.427 256.007 125.427Z" fill="white"/>
<path fill-rule="evenodd" clip-rule="evenodd" d="M354.907 223.909L351.73 300.79C342.732 352.987 306.077 390.671 256.402 395.933C207.945 390.934 170.571 352.974 160.27 300.79L157.094 223.909C154.753 167.257 198.497 117.747 256 117.747C313.504 117.747 357.247 167.257 354.907 223.909ZM256.007 123.72C201.978 123.72 160.876 171.104 163.076 225.323L166.06 298.903C175.739 348.845 210.855 385.175 256.384 389.96C303.059 384.924 337.499 348.858 345.954 298.903L348.938 225.323C351.137 171.104 310.036 123.72 256.007 123.72Z" fill="#3B434F"/>
<path d="M302.08 327.326C294.325 334.06 276.808 340.467 256.427 340.467C236.045 340.467 218.529 334.06 210.773 327.326C210.773 327.326 209.98 325.143 211.144 323.978C212.33 322.793 214.187 323.051 214.187 323.051C221.934 329.789 236.038 335.347 256.427 335.347C276.816 335.347 290.92 329.789 298.667 323.051C298.667 323.051 300.562 322.347 301.482 323.267C303.255 325.041 302.08 327.326 302.08 327.326Z" fill="#3B434F"/>
<path d="M242.347 350.707H269.653V354.973H242.347V350.707Z" fill="#3B434F"/>
<path d="M157.807 233.313C157.795 233.314 156.76 232.487 154.804 231.871C153.826 231.564 152.611 231.311 151.226 231.248C150.88 231.233 150.524 231.229 150.16 231.24C149.796 231.25 149.423 231.274 149.045 231.315C148.287 231.396 147.505 231.541 146.718 231.767C143.567 232.673 140.353 234.875 138.465 239.419C137.517 241.691 136.892 244.55 136.727 248.126C136.685 249.02 136.673 249.959 136.691 250.945C136.709 251.931 136.758 252.963 136.84 254.045C137.003 256.209 137.298 258.568 137.738 261.14C137.728 261.137 137.328 268.91 140.106 277.841C142.719 286.573 148.992 297.299 160.573 300.364C159.241 278.185 159.2 255.59 157.807 233.313Z" fill="white"/>
<path d="M159.128 234.207C159.128 234.207 138.951 227.956 139.662 248.698C139.662 248.698 142.665 278.775 143.97 281.547C143.97 281.547 151.894 299.059 164.971 299.835C177.752 300.594 164.971 299.835 164.971 299.835L165.13 305.48C165.13 305.48 142.145 302.533 137.706 276.045L134.202 251.983C134.202 251.983 131.481 220.138 157.871 228.235C183.58 236.123 157.871 228.235 157.871 228.235L159.128 234.207Z" fill="#3B434F"/>
<path d="M152.468 275.995C152.468 275.995 151.339 276.848 150.369 276.848C149.399 276.848 148.284 275.995 148.284 275.995L146.202 255.012C146.202 255.012 149.074 244.679 161.265 250.139L161.554 256.139C161.554 256.139 150.858 252.346 151.079 257.069C151.292 261.616 152.468 275.995 152.468 275.995Z" fill="#3B434F"/>
<path d="M353.813 233.362C353.825 233.363 354.866 232.536 356.83 231.921C357.812 231.614 359.032 231.361 360.423 231.299C360.771 231.283 361.128 231.28 361.494 231.29C361.86 231.3 362.234 231.325 362.614 231.365C363.375 231.446 364.16 231.591 364.951 231.817C368.116 232.722 371.344 234.923 373.241 239.464C374.192 241.735 374.82 244.591 374.986 248.165C375.028 249.058 375.041 249.997 375.022 250.982C375.004 251.967 374.955 252.999 374.873 254.08C374.709 256.242 374.412 258.6 373.971 261.17C373.98 261.167 374.383 268.935 371.592 277.86C368.968 286.586 362.668 297.305 351.035 300.368C352.373 278.204 352.415 255.624 353.813 233.362Z" fill="white"/>
<path d="M352.483 234.256C352.483 234.256 372.747 228.008 372.034 248.737C372.034 248.737 369.017 278.793 367.707 281.564C367.707 281.564 359.748 299.064 346.614 299.839C333.777 300.597 346.614 299.839 346.614 299.839L346.455 305.48C346.455 305.48 369.54 302.535 373.999 276.065L377.518 252.019C377.518 252.019 380.25 220.196 353.745 228.287C327.923 236.17 353.745 228.287 353.745 228.287L352.483 234.256Z" fill="#3B434F"/>
<path d="M359.171 276.015C359.171 276.015 360.305 276.868 361.28 276.868C362.254 276.868 363.374 276.015 363.374 276.015L365.466 255.046C365.466 255.046 362.58 244.72 350.336 250.177L350.046 256.173C350.046 256.173 360.789 252.382 360.567 257.102C360.353 261.646 359.171 276.015 359.171 276.015Z" fill="#3B434F"/>
<path fill-rule="evenodd" clip-rule="evenodd" d="M263.893 274.333C264.391 274.333 264.889 274.333 265.387 274.333C268.474 278.526 269.73 284.97 271.36 290.547C271.865 292.275 271.375 295.298 270.933 296.52C269.316 300.996 264.236 300.915 260.053 302.92C258.93 303.458 258.095 304.388 256.64 304.627C255.692 303.791 254.547 303.627 254.08 302.28C252.928 300.693 254.413 299.702 255.573 299.08C257.68 297.95 264.181 296.837 264.96 294.813C265.923 293.718 265.283 290.423 264.96 289.267C264.133 286.305 263.737 283.832 262.613 281.16C261.867 279.385 260.557 277.514 261.333 275.4C261.977 275.124 263.367 274.81 263.893 274.333Z" fill="#3B434F"/>
<path d="M204.8 241.48H210.773C214.072 241.48 216.747 244.154 216.747 247.453C216.747 250.752 214.072 253.427 210.773 253.427H204.8C201.501 253.427 198.827 250.752 198.827 247.453C198.827 244.154 201.501 241.48 204.8 241.48Z" fill="#3B434F"/>
<path d="M302.08 241.48H308.053C311.352 241.48 314.027 244.154 314.027 247.453C314.027 250.752 311.352 253.427 308.053 253.427H302.08C298.781 253.427 296.107 250.752 296.107 247.453C296.107 244.154 298.781 241.48 302.08 241.48Z" fill="#3B434F"/>
<path d="M208.64 269.64C216.887 269.64 223.573 270.113 223.573 279.453C223.573 289.087 216.887 289.267 208.64 289.267C200.393 289.267 193.707 287.512 193.707 279.453C193.707 270.04 200.393 269.64 208.64 269.64Z" fill="#F5F3EF"/>
<path d="M307.627 269.64C315.874 269.64 322.56 270.113 322.56 279.453C322.56 289.087 315.874 289.267 307.627 289.267C299.379 289.267 292.693 287.512 292.693 279.453C292.693 270.04 299.379 269.64 307.627 269.64Z" fill="#F5F3EF"/>
<path d="M283.327 226.441C283.327 226.441 308.872 211.836 327.12 227.927L331.947 228.675C331.947 228.675 325.764 206.178 280.747 220.806L282 225L283.327 226.441ZM283 225C283 225 308.987 210.074 326.12 228.927L334.947 228.675C334.947 228.675 323.938 204.643 278.747 219.806L283 226" fill="#3B434F"/>
<path d="M228.438 226.526C228.438 226.526 202.979 212.05 184.792 227.998L179.981 228.74C179.981 228.74 186.143 206.442 231.01 220.941L229.761 225.097L228.438 226.526ZM228.764 225.097C228.764 225.097 202.864 210.303 185.788 228.99L176.991 228.74C176.991 228.74 187.963 204.921 233.003 219.95L228.764 226.089" fill="#3B434F"/>
<path d="M165.637 217.564C165.637 217.564 193.73 203.321 190.625 154.342C190.625 154.342 235.566 203.583 343.893 188.573L349.013 234.653C349.013 234.653 412.695 116.653 298.667 89.5867C187.075 63.0984 185.789 132.983 185.789 132.983C185.789 132.983 151.567 127.869 148.71 161.177C145.852 194.484 156.16 229.533 156.16 229.533L164.693 236.36L165.637 217.564Z" fill="#3B434F"/>
</svg>
