<svg width="45" height="45" viewBox="0 0 512 512" fill="none" xmlns="http://www.w3.org/2000/svg">
<path d="M112 504C112 504 101.698 413.689 190.44 403.613H228.413V386.12C228.413 386.12 255.125 397.593 282.173 387.4L283.027 403.613H327.4C327.4 403.613 404.673 411.328 400 504H112Z" fill="#F8C9AE"/>
<path d="M399.262 505.587H114.746H109.228L110.605 482.057C113.294 436.115 149.492 401.053 190.915 401.053H222.44V405.747H193.43C153.506 405.747 118.619 439.495 116.027 483.717L115.071 500.04H398.51L397.98 483.717C395.388 439.495 360.501 405.747 320.578 405.747H281.747V401.053H322.839C364.263 401.053 400.46 436.115 403.149 482.057L404.527 505.587H399.262Z" fill="#3B434F"/>
<path d="M232.68 384.146V410.461C232.68 424.117 243.759 435.187 257.427 435.187C271.094 435.187 282.173 424.117 282.173 410.461V384.689C283.609 384.252 285.032 383.777 286.44 383.264V410.64C286.44 426.789 273.355 439.88 257.213 439.88C241.072 439.88 227.987 426.789 227.987 410.64V382.454C229.533 383.065 231.098 383.627 232.68 384.146Z" fill="#3B434F"/>
<path d="M227.773 434.76C229.305 434.76 230.547 436.002 230.547 437.533V479.347C230.547 480.878 229.305 482.12 227.773 482.12C226.242 482.12 225 480.878 225 479.347V437.533C225 436.002 226.242 434.76 227.773 434.76Z" fill="#3B434F"/>
<path d="M286.013 434.333C287.663 434.333 289 435.671 289 437.32V463.347C289 464.996 287.663 466.333 286.013 466.333C284.364 466.333 283.027 464.996 283.027 463.347V437.32C283.027 435.671 284.364 434.333 286.013 434.333Z" fill="#3B434F"/>
<path d="M227.773 479.133C228.598 479.133 229.267 479.802 229.267 480.627V491.293C229.267 492.118 228.598 492.787 227.773 492.787C226.949 492.787 226.28 492.118 226.28 491.293V480.627C226.28 479.802 226.949 479.133 227.773 479.133Z" fill="#3B434F"/>
<path d="M286.227 463.347C287.051 463.347 287.72 464.015 287.72 464.84V475.507C287.72 476.331 287.051 477 286.227 477C285.402 477 284.733 476.331 284.733 475.507V464.84C284.733 464.015 285.402 463.347 286.227 463.347Z" fill="#3B434F"/>
<path d="M211.765 373.646L184.742 379.851C184.742 379.851 151.649 387.347 173.666 409.651C195.682 431.954 252.307 435.893 252.307 435.893C252.307 435.893 237.335 428.802 230.973 418.827L228.84 382.987L211.765 373.646Z" fill="#F5F3EF"/>
<path fill-rule="evenodd" clip-rule="evenodd" d="M253.16 438.027C251.483 440.149 204.333 438.69 171.667 410.293C148.014 389.733 183.613 377.867 183.613 377.867L209.64 371.893L232.253 383.413L233.96 417.973C243.479 432.9 255.859 434.61 253.16 438.027ZM229.693 419.68L227.133 383.413L213.48 375.733L187.453 382.133C187.453 382.133 155.928 388.598 175.933 407.307C197.523 427.497 237.462 432.916 241.64 432.48C245.971 432.029 239.213 434.606 229.693 419.68Z" fill="#3B434F"/>
<path d="M303.059 374.651L330.099 380.875C330.099 380.875 363.212 388.394 341.182 410.764C319.152 433.134 262.494 437.085 262.494 437.085C262.494 437.085 277.474 429.973 283.84 419.967L285.975 384.02L303.059 374.651Z" fill="#F5F3EF"/>
<path fill-rule="evenodd" clip-rule="evenodd" d="M261.64 438.798C263.318 440.927 310.496 439.463 343.182 410.982C366.849 390.359 331.228 378.458 331.228 378.458L305.186 372.467L282.559 384.021L280.852 418.685C271.327 433.656 258.939 435.371 261.64 438.798ZM285.121 420.396L287.682 384.021L301.344 376.318L327.386 382.737C327.386 382.737 358.929 389.221 338.913 407.986C317.311 428.237 277.348 433.672 273.167 433.235C268.834 432.782 275.596 435.367 285.121 420.396Z" fill="#3B434F"/>
<path d="M259.215 116.467C312.293 116.467 354.187 166.068 352.825 225.665L351.377 289.006C350.094 345.152 308.845 389.533 259.215 389.533C209.584 389.533 168.336 345.152 167.052 289.006L165.605 225.665C164.242 166.068 206.137 116.467 259.215 116.467Z" fill="white"/>
<path fill-rule="evenodd" clip-rule="evenodd" d="M357.089 223.701L355.572 289.616C354.228 348.043 311.006 394.227 259.001 394.227C206.996 394.227 163.775 348.043 162.43 289.616L160.913 223.701C159.486 161.683 203.384 110.067 259.001 110.067C314.618 110.067 358.517 161.683 357.089 223.701ZM258.788 116.893C206.436 116.893 165.114 166.107 166.458 225.238L167.886 288.085C169.152 343.793 209.836 387.827 258.788 387.827C307.741 387.827 348.425 343.793 349.691 288.085L351.119 225.238C352.462 166.107 311.141 116.893 258.788 116.893Z" fill="#3B434F"/>
<path fill-rule="evenodd" clip-rule="evenodd" d="M348.524 326.925C347.262 332.894 330.678 387.023 333.678 363.592C336.679 340.161 304.859 384.883 304.859 384.883C298.979 390.924 275.166 404.991 275.166 404.991V399.076L257.7 406.173L249.84 399.076L248.967 406.173C246.628 402.708 199.188 370.689 199.188 370.689C199.188 370.689 207.332 385.182 200.935 377.786C200.706 377.522 200.472 377.239 200.232 376.939C193.761 368.835 183.468 348.216 183.468 348.216L181.722 362.409C166.287 332.406 166.876 294.989 166.876 294.989L164.28 216.848H171.267L173.862 272.516L185.215 291.44C192.556 302.173 212.288 297.355 212.288 297.355C269.31 336.92 305.732 294.989 305.732 294.989C305.732 294.989 330.435 300.471 338.045 297.355C345.655 294.239 346.753 216.738 346.753 216.738H352.867C352.867 216.738 349.787 320.955 348.524 326.925ZM307.573 332.926C306.32 317.885 297.167 319.16 297.167 319.16C280.895 323.905 268.122 326.541 258.143 327.88V327.782C248.234 326.453 235.55 323.839 219.392 319.133C219.392 319.133 210.303 317.868 209.059 332.787C209.059 332.787 205.409 344.32 217.67 350.707L233.17 359.24C233.17 359.24 243.763 362.567 243.504 349.853C243.504 349.853 242.426 348.052 248.67 346.44H258.143V346.721H267.682C273.971 348.346 272.885 350.226 272.885 350.226C272.624 363.044 283.292 359.69 283.292 359.69L298.901 351.023C311.249 344.583 307.573 332.926 307.573 332.926Z" fill="#3B434F"/>
<path d="M305.08 327.326C297.325 334.06 279.808 340.467 259.427 340.467C239.045 340.467 221.529 334.06 213.773 327.326C213.773 327.326 212.98 325.143 214.144 323.978C215.33 322.793 217.187 323.051 217.187 323.051C224.934 329.789 239.038 335.347 259.427 335.347C279.816 335.347 293.92 329.789 301.667 323.051C301.667 323.051 303.562 322.347 304.482 323.267C306.255 325.041 305.08 327.326 305.08 327.326Z" fill="#3B434F"/>
<path d="M245.347 350.707H272.653V354.973H245.347V350.707Z" fill="#3B434F"/>
<path d="M160.807 233.313C160.795 233.314 159.76 232.487 157.804 231.871C156.826 231.564 155.611 231.311 154.226 231.248C153.88 231.233 153.524 231.229 153.16 231.24C152.796 231.25 152.423 231.274 152.045 231.315C151.287 231.396 150.505 231.541 149.718 231.767C146.567 232.673 143.353 234.875 141.465 239.419C140.517 241.691 139.892 244.55 139.727 248.126C139.685 249.02 139.673 249.959 139.691 250.945C139.709 251.931 139.758 252.963 139.84 254.045C140.003 256.209 140.298 258.568 140.738 261.14C140.728 261.137 140.328 268.91 143.106 277.841C145.719 286.573 151.992 297.299 163.573 300.364C162.241 278.185 162.2 255.59 160.807 233.313Z" fill="white"/>
<path d="M162.128 234.207C162.128 234.207 141.951 227.956 142.662 248.698C142.662 248.698 145.665 278.775 146.97 281.547C146.97 281.547 154.894 299.059 167.971 299.835C180.752 300.594 167.971 299.835 167.971 299.835L168.13 305.48C168.13 305.48 145.145 302.533 140.706 276.045L137.202 251.983C137.202 251.983 134.481 220.138 160.871 228.235C186.58 236.123 160.871 228.235 160.871 228.235L162.128 234.207Z" fill="#3B434F"/>
<path d="M155.468 275.995C155.468 275.995 154.339 276.848 153.369 276.848C152.399 276.848 151.284 275.995 151.284 275.995L149.202 255.012C149.202 255.012 152.074 244.679 164.265 250.139L164.554 256.139C164.554 256.139 153.858 252.346 154.079 257.069C154.292 261.616 155.468 275.995 155.468 275.995Z" fill="#3B434F"/>
<path d="M356.813 233.362C356.825 233.363 357.866 232.536 359.83 231.921C360.812 231.614 362.032 231.361 363.423 231.299C363.771 231.283 364.128 231.28 364.494 231.29C364.86 231.3 365.234 231.325 365.614 231.365C366.375 231.446 367.16 231.591 367.951 231.817C371.116 232.722 374.344 234.923 376.241 239.464C377.192 241.735 377.82 244.591 377.986 248.165C378.028 249.058 378.041 249.997 378.022 250.982C378.004 251.967 377.955 252.999 377.873 254.08C377.709 256.242 377.412 258.6 376.971 261.17C376.98 261.167 377.383 268.935 374.592 277.86C371.968 286.586 365.668 297.305 354.035 300.368C355.373 278.204 355.415 255.624 356.813 233.362Z" fill="white"/>
<path d="M355.483 234.256C355.483 234.256 375.747 228.008 375.034 248.737C375.034 248.737 372.017 278.793 370.707 281.564C370.707 281.564 362.748 299.064 349.614 299.839C336.777 300.597 349.614 299.839 349.614 299.839L349.455 305.48C349.455 305.48 372.54 302.535 376.999 276.065L380.518 252.019C380.518 252.019 383.25 220.196 356.745 228.287C330.923 236.17 356.745 228.287 356.745 228.287L355.483 234.256Z" fill="#3B434F"/>
<path d="M362.171 276.015C362.171 276.015 363.305 276.868 364.28 276.868C365.254 276.868 366.374 276.015 366.374 276.015L368.466 255.046C368.466 255.046 365.58 244.72 353.336 250.177L353.046 256.173C353.046 256.173 363.789 252.382 363.567 257.102C363.353 261.646 362.171 276.015 362.171 276.015Z" fill="#3B434F"/>
<path fill-rule="evenodd" clip-rule="evenodd" d="M266.893 274.333C267.391 274.333 267.889 274.333 268.387 274.333C271.474 278.526 272.73 284.97 274.36 290.547C274.865 292.275 274.375 295.298 273.933 296.52C272.316 300.996 267.236 300.915 263.053 302.92C261.93 303.458 261.095 304.388 259.64 304.627C258.692 303.791 257.547 303.627 257.08 302.28C255.928 300.693 257.413 299.702 258.573 299.08C260.68 297.95 267.181 296.837 267.96 294.813C268.923 293.718 268.283 290.423 267.96 289.267C267.133 286.305 266.737 283.832 265.613 281.16C264.867 279.385 263.557 277.514 264.333 275.4C264.977 275.124 266.367 274.81 266.893 274.333Z" fill="#3B434F"/>
<path d="M207.8 241.48H213.773C217.072 241.48 219.747 244.154 219.747 247.453C219.747 250.752 217.072 253.427 213.773 253.427H207.8C204.501 253.427 201.827 250.752 201.827 247.453C201.827 244.154 204.501 241.48 207.8 241.48Z" fill="#3B434F"/>
<path d="M305.08 241.48H311.053C314.352 241.48 317.027 244.154 317.027 247.453C317.027 250.752 314.352 253.427 311.053 253.427H305.08C301.781 253.427 299.107 250.752 299.107 247.453C299.107 244.154 301.781 241.48 305.08 241.48Z" fill="#3B434F"/>
<path d="M310.627 269.64C316.518 269.64 321.293 274.416 321.293 280.307C321.293 286.198 316.518 290.973 310.627 290.973C304.736 290.973 299.96 286.198 299.96 280.307C299.96 274.416 304.736 269.64 310.627 269.64Z" fill="#EDF1F1"/>
<path d="M207.373 269.64C213.264 269.64 218.04 274.416 218.04 280.307C218.04 286.198 213.264 290.973 207.373 290.973C201.482 290.973 196.707 286.198 196.707 280.307C196.707 274.416 201.482 269.64 207.373 269.64Z" fill="#EDF1F1"/>
<path fill-rule="evenodd" clip-rule="evenodd" d="M351.94 228.88C351.363 233.81 350.856 239.842 349.79 245.236C346.602 261.364 332.743 276.307 309.08 278.01C285.416 279.713 265.276 267.8 264.096 251.402C263.895 248.621 263.36 245.501 262.949 242.468C259.6 240.611 256.149 240.607 252.595 242.455C252.179 245.557 251.624 248.759 251.419 251.606C250.235 268.059 230.032 280.011 206.293 278.303C182.555 276.594 168.652 261.602 165.455 245.42C164.385 240.009 163.877 233.956 163.298 229.01L159.809 228.759L160.299 221.949L161.151 222.011L182.739 223.564L200.962 224.876L219.219 226.189L247.656 228.236C249.617 228.484 250.921 229.325 251.761 230.581C255.845 232.368 259.811 232.375 263.66 230.602C264.492 229.265 265.813 228.366 267.847 228.108L296.194 226.069L314.394 224.759L332.56 223.452L354.08 221.904L354.929 221.843L355.417 228.629L351.94 228.88ZM240.02 236.237L184.288 232.227C176.999 231.598 174.415 239.79 173.966 246.033C173.019 259.194 187.684 270.975 206.722 272.345C225.76 273.715 241.961 264.156 242.908 250.994C243.357 244.751 245.396 240.895 240.02 236.237ZM341.305 245.846C340.857 239.624 338.282 231.46 331.015 232.086L275.459 236.083C270.1 240.726 272.132 244.569 272.58 250.791C273.524 263.91 289.674 273.437 308.652 272.072C327.63 270.706 342.249 258.965 341.305 245.846Z" fill="#3B444F"/>
<path d="M166.017 261.107C166.017 261.107 177.887 209.111 188.215 194.888C198.544 180.665 207.482 177.263 212.121 176.828C216.761 176.393 253.293 187.193 303.476 174.822C303.476 174.822 323.264 174.032 331.651 193.885C331.651 193.885 349.336 225.522 352.142 257.093H355.557C355.557 257.093 362.795 201.751 359.826 168.802C356.858 135.853 313.722 119.64 313.722 119.64L323.113 112.616C323.113 112.616 301.187 105.838 292.377 109.606L299.207 95.56C299.207 95.56 254.957 95.6482 230.051 115.626L230.905 105.593C230.905 105.593 143.115 119.056 161.748 259.1L166.017 261.107Z" fill="#3B434F"/>
</svg>
