<svg width="45" height="45" viewBox="0 0 512 512" fill="none" xmlns="http://www.w3.org/2000/svg">
<path d="M112 502C112 502 100.011 409.543 192.427 401.187H214.613C214.613 401.187 221.875 396.493 226.987 396.493V383.267C226.987 383.267 254.68 397.075 283.307 383.693V395.64C283.307 395.64 284.523 393.353 296.96 401.613H330.24C330.24 401.613 401 410.342 401 502H112Z" fill="#F8C9AE"/>
<path fill-rule="evenodd" clip-rule="evenodd" d="M398.262 503.587H113.746H108.228L109.605 480.057C112.294 434.115 148.492 399.053 189.915 399.053H218.399C216.551 400.582 215.197 402.167 214.223 403.747H192.43C152.506 403.747 117.619 437.495 115.027 481.717L114.071 498.04H397.51L396.98 481.717C394.388 437.495 359.501 403.747 319.578 403.747H297.766C296.932 402.179 295.746 400.593 294.09 399.053H321.839C363.263 399.053 399.46 434.115 402.149 480.057L403.527 503.587H398.262ZM285.65 403.747H284.16V399.053H285.816C285.717 400.273 285.653 401.811 285.65 403.747ZM225.639 399.053H227.413V403.747H225.88C225.857 401.754 225.766 400.224 225.639 399.053Z" fill="#3B434F"/>
<path d="M269.227 464.333C270.876 464.333 272.213 465.671 272.213 467.32C272.213 468.969 270.876 470.307 269.227 470.307C267.577 470.307 266.24 468.969 266.24 467.32C266.24 465.671 267.577 464.333 269.227 464.333Z" fill="#3B434F"/>
<path d="M269.227 483.96C270.876 483.96 272.213 485.297 272.213 486.947C272.213 488.596 270.876 489.933 269.227 489.933C267.577 489.933 266.24 488.596 266.24 486.947C266.24 485.297 267.577 483.96 269.227 483.96Z" fill="#3B434F"/>
<path fill-rule="evenodd" clip-rule="evenodd" d="M303.787 424.227L282.027 456.653C276.107 438.306 258.987 445.133 258.987 445.133V499.322C258.987 500.735 257.649 501.88 256 501.88C254.351 501.88 253.013 500.735 253.013 499.322V445.132C252.875 445.077 235.89 438.381 230.002 456.653L208.265 424.227C208.265 424.227 199.857 402.85 225.313 393.507C225.313 384.184 225.313 383.693 225.313 383.693H230.127C230.127 383.693 230.127 401.517 230.127 414.577C230.745 419.893 234.405 435.041 256 440.013C277.618 435.041 281.283 419.893 281.901 414.577C281.901 401.517 281.901 383.693 281.901 383.693H286.72C286.72 383.693 286.72 384.184 286.72 393.507C312.204 402.85 303.787 424.227 303.787 424.227ZM229.749 427.097C228.589 425.783 226.918 422.52 226.918 422.52C226.918 422.52 225.313 417.18 225.313 414.84C225.313 411.934 225.313 408.119 225.313 404.018C224.95 399.137 224.035 399.053 224.035 399.053C205.041 408.409 213.38 422.947 213.38 422.947L229.149 447.693C235.307 437.259 241.935 439.16 241.935 439.16C236.083 436.177 232.245 431.548 229.749 427.097ZM288 399.053C288 399.053 287.083 399.137 286.72 404.018C286.72 408.119 286.72 411.934 286.72 414.84C286.72 417.18 285.114 422.52 285.114 422.52C285.114 422.52 283.441 425.783 282.279 427.097C279.78 431.548 275.938 436.177 270.08 439.16C270.08 439.16 276.715 437.259 282.88 447.693L298.667 422.947C298.667 422.947 307.014 408.409 288 399.053Z" fill="#3B434F"/>
<path d="M256.001 123.999C309.293 123.999 349.989 153.969 349.989 225.7L347.665 287.663C333.466 367.213 297.779 386.003 256.001 386.003C214.221 386.003 176.902 366.426 164.338 287.663L162.014 225.7C162.014 154.279 202.709 123.999 256.001 123.999Z" fill="white"/>
<path fill-rule="evenodd" clip-rule="evenodd" d="M352.122 287.308C337.232 370.216 299.811 389.8 256.001 389.8C212.189 389.8 173.056 369.396 159.881 287.308L157.444 222.729C157.444 148.292 200.118 116.733 256.001 116.733C311.884 116.733 354.559 147.969 354.559 222.729L352.122 287.308ZM256.001 122.28C203.755 122.28 163.857 152.556 163.857 223.97L166.136 285.925C178.453 364.678 215.04 384.253 256.001 384.253C296.96 384.253 331.947 365.465 345.867 285.925L348.145 223.97C348.145 152.247 308.248 122.28 256.001 122.28Z" fill="#3B434F"/>
<path d="M302.08 325.326C294.325 332.06 276.808 338.467 256.427 338.467C236.045 338.467 218.529 332.06 210.773 325.326C210.773 325.326 209.98 323.143 211.144 321.978C212.33 320.793 214.187 321.051 214.187 321.051C221.934 327.789 236.038 333.347 256.427 333.347C276.816 333.347 290.92 327.789 298.667 321.051C298.667 321.051 300.562 320.347 301.482 321.267C303.255 323.041 302.08 325.326 302.08 325.326Z" fill="#3B434F"/>
<path d="M242.347 348.707H269.653V352.973H242.347V348.707Z" fill="#3B434F"/>
<path d="M157.807 231.313C157.795 231.314 156.76 230.487 154.804 229.871C153.826 229.564 152.611 229.311 151.226 229.248C150.88 229.233 150.524 229.229 150.16 229.24C149.796 229.25 149.423 229.274 149.045 229.315C148.287 229.396 147.505 229.541 146.718 229.767C143.567 230.673 140.353 232.875 138.465 237.419C137.517 239.691 136.892 242.55 136.727 246.126C136.685 247.02 136.673 247.959 136.691 248.945C136.709 249.931 136.758 250.963 136.84 252.045C137.003 254.209 137.298 256.568 137.738 259.14C137.728 259.137 137.328 266.91 140.106 275.841C142.719 284.573 148.991 295.299 160.573 298.364C159.241 276.185 159.2 253.59 157.807 231.313Z" fill="white"/>
<path d="M159.128 232.207C159.128 232.207 138.951 225.956 139.662 246.698C139.662 246.698 142.665 276.775 143.97 279.547C143.97 279.547 151.894 297.059 164.971 297.835C177.752 298.594 164.971 297.835 164.971 297.835L165.13 303.48C165.13 303.48 142.145 300.533 137.706 274.045L134.202 249.983C134.202 249.983 131.481 218.138 157.871 226.235C183.58 234.123 157.871 226.235 157.871 226.235L159.128 232.207Z" fill="#3B434F"/>
<path d="M152.468 273.995C152.468 273.995 151.339 274.848 150.369 274.848C149.399 274.848 148.284 273.995 148.284 273.995L146.202 253.012C146.202 253.012 149.074 242.679 161.265 248.139L161.554 254.139C161.554 254.139 150.858 250.346 151.079 255.069C151.292 259.616 152.468 273.995 152.468 273.995Z" fill="#3B434F"/>
<path d="M352.483 232.256C352.483 232.256 372.747 226.008 372.034 246.737C372.034 246.737 369.017 276.793 367.707 279.564C367.707 279.564 359.748 297.064 346.614 297.839C333.777 298.597 346.614 297.839 346.614 297.839L346.455 303.48C346.455 303.48 369.54 300.535 373.999 274.065L377.518 250.019C377.518 250.019 380.25 218.196 353.745 226.287C327.923 234.17 353.745 226.287 353.745 226.287L352.483 232.256Z" fill="#3B434F"/>
<path d="M359.171 274.015C359.171 274.015 360.305 274.868 361.28 274.868C362.254 274.868 363.374 274.015 363.374 274.015L365.466 253.046C365.466 253.046 362.58 242.72 350.336 248.177L350.046 254.173C350.046 254.173 360.789 250.382 360.567 255.102C360.353 259.646 359.171 274.015 359.171 274.015Z" fill="#3B434F"/>
<path d="M352.343 231.349C352.354 231.35 353.391 230.519 355.349 229.9C356.328 229.592 357.545 229.338 358.931 229.275C359.277 229.259 359.634 229.256 359.998 229.266C360.363 229.277 360.736 229.301 361.115 229.342C361.873 229.423 362.656 229.569 363.444 229.796C366.598 230.706 369.817 232.918 371.707 237.484C372.655 239.767 373.281 242.638 373.447 246.231C373.488 247.129 373.501 248.072 373.483 249.063C373.464 250.053 373.415 251.091 373.334 252.178C373.17 254.351 372.875 256.722 372.434 259.305C372.444 259.302 372.845 267.111 370.063 276.083C367.448 284.856 361.168 295.632 349.573 298.711C350.907 276.429 350.948 253.729 352.343 231.349Z" fill="white"/>
<path d="M352.923 232.256C352.923 232.256 373.187 226.008 372.474 246.737C372.474 246.737 369.457 276.793 368.147 279.564C368.147 279.564 360.189 297.064 347.054 297.839C334.217 298.597 347.054 297.839 347.054 297.839L346.895 303.48C346.895 303.48 369.98 300.535 374.439 274.065L377.958 250.019C377.958 250.019 380.691 218.196 354.185 226.287C328.363 234.17 354.185 226.287 354.185 226.287L352.923 232.256Z" fill="#3B434F"/>
<path d="M359.611 274.015H363.814L365.906 253.046C365.906 253.046 363.02 242.72 350.776 248.177L350.486 254.173C350.486 254.173 361.229 250.382 361.007 255.102C360.793 259.646 359.611 274.015 359.611 274.015Z" fill="#3B434F"/>
<path fill-rule="evenodd" clip-rule="evenodd" d="M263.893 272.333C264.391 272.333 264.889 272.333 265.387 272.333C268.474 276.526 269.73 282.97 271.36 288.547C271.865 290.275 271.375 293.298 270.933 294.52C269.316 298.996 264.236 298.915 260.053 300.92C258.93 301.458 258.095 302.388 256.64 302.627C255.692 301.791 254.547 301.627 254.08 300.28C252.928 298.693 254.413 297.702 255.573 297.08C257.68 295.95 264.181 294.837 264.96 292.813C265.923 291.718 265.283 288.423 264.96 287.267C264.133 284.305 263.737 281.832 262.613 279.16C261.867 277.385 260.557 275.514 261.333 273.4C261.977 273.124 263.367 272.81 263.893 272.333Z" fill="#3B434F"/>
<path d="M209.067 236.067C213.78 236.067 217.6 239.887 217.6 244.6C217.6 249.313 213.78 253.133 209.067 253.133C204.354 253.133 200.533 249.313 200.533 244.6C200.533 239.887 204.354 236.067 209.067 236.067Z" fill="#3B434F"/>
<path d="M303.787 236.067C308.499 236.067 312.32 239.887 312.32 244.6C312.32 249.313 308.499 253.133 303.787 253.133C299.074 253.133 295.253 249.313 295.253 244.6C295.253 239.887 299.074 236.067 303.787 236.067Z" fill="#3B434F"/>
<path d="M307.627 267.64C313.518 267.64 318.293 272.416 318.293 278.307C318.293 284.198 313.518 288.973 307.627 288.973C301.736 288.973 296.96 284.198 296.96 278.307C296.96 272.416 301.736 267.64 307.627 267.64Z" fill="#EDF1F1"/>
<path d="M204.373 267.64C210.264 267.64 215.04 272.416 215.04 278.307C215.04 284.198 210.264 288.973 204.373 288.973C198.482 288.973 193.707 284.198 193.707 278.307C193.707 272.416 198.482 267.64 204.373 267.64Z" fill="#EDF1F1"/>
<path d="M165.637 216.418C165.637 216.418 193.73 202.174 190.625 153.195C190.625 153.195 235.566 202.437 343.893 187.427L349.013 233.507C349.013 233.507 412.695 115.507 298.667 88.44C187.075 61.9517 185.789 131.836 185.789 131.836C185.789 131.836 151.567 126.723 148.71 160.03C145.852 193.338 156.16 228.387 156.16 228.387L164.693 235.213L165.637 216.418Z" fill="#C1BFBD"/>
<path fill-rule="evenodd" clip-rule="evenodd" d="M348.16 238.627L341.76 190.413C233.433 203.558 193.612 159.595 193.612 159.595C191.999 208.574 168.197 217.698 168.197 217.698L166.4 237.347L154.453 230.52C154.453 230.52 143.074 193.355 145.723 160.03C148.581 124.091 183.229 129.276 183.229 129.276C183.229 129.276 187.342 57.4401 298.667 85.0267C420.162 115.133 348.16 238.627 348.16 238.627ZM297.813 91C185.908 65.8723 188.16 135.8 188.16 135.8C188.16 135.8 154.554 126.723 151.696 160.03C148.839 193.338 158.293 226.253 158.293 226.253L162.133 229.24L162.651 214.711C162.651 214.711 190.792 205.039 187.639 146.795C187.639 146.795 227.801 199.414 346.453 184.44L350.72 222.84C350.72 222.84 402.597 114.528 297.813 91Z" fill="#3B434F"/>
<path d="M283.327 224.441C283.327 224.441 308.872 209.836 327.12 225.927L331.947 226.675C331.947 226.675 325.764 204.178 280.747 218.806L282 223L283.327 224.441ZM283 223C283 223 308.987 208.074 326.12 226.927L334.947 226.675C334.947 226.675 323.938 202.643 278.747 217.806L283 224" fill="#3B434F"/>
<path d="M228.438 224.526C228.438 224.526 202.979 210.05 184.792 225.998L179.981 226.74C179.981 226.74 186.143 204.442 231.01 218.941L229.761 223.097L228.438 224.526ZM228.764 223.097C228.764 223.097 202.864 208.303 185.788 226.99L176.991 226.74C176.991 226.74 187.963 202.921 233.003 217.95L228.764 224.089" fill="#3B434F"/>
</svg>
