<svg width="512" height="512" viewBox="0 0 512 512" fill="none" xmlns="http://www.w3.org/2000/svg">
<path d="M112 504C112 504 101.698 413.689 190.44 403.613H228.413V386.12C228.413 386.12 255.125 397.593 282.173 387.4L283.027 403.613H327.4C327.4 403.613 404.673 411.328 400 504H112Z" fill="#F8C9AE"/>
<path d="M399.262 505.587H114.746H109.228L110.605 482.057C113.294 436.115 149.492 401.053 190.915 401.053H222.44V405.747H193.43C153.506 405.747 118.619 439.495 116.027 483.717L115.071 500.04H398.51L397.98 483.717C395.388 439.495 360.501 405.747 320.578 405.747H281.747V401.053H322.839C364.263 401.053 400.46 436.115 403.149 482.057L404.527 505.587H399.262Z" fill="#3B434F"/>
<path d="M232.68 384.146V410.461C232.68 424.117 243.759 435.187 257.427 435.187C271.094 435.187 282.173 424.117 282.173 410.461V384.689C283.609 384.252 285.032 383.777 286.44 383.264V410.64C286.44 426.789 273.355 439.88 257.213 439.88C241.072 439.88 227.987 426.789 227.987 410.64V382.454C229.533 383.065 231.098 383.627 232.68 384.146Z" fill="#3B434F"/>
<path d="M227.773 434.76C229.305 434.76 230.547 436.002 230.547 437.533V479.347C230.547 480.878 229.305 482.12 227.773 482.12C226.242 482.12 225 480.878 225 479.347V437.533C225 436.002 226.242 434.76 227.773 434.76Z" fill="#3B434F"/>
<path d="M286.013 434.333C287.663 434.333 289 435.671 289 437.32V463.347C289 464.996 287.663 466.333 286.013 466.333C284.364 466.333 283.027 464.996 283.027 463.347V437.32C283.027 435.671 284.364 434.333 286.013 434.333Z" fill="#3B434F"/>
<path d="M227.773 479.133C228.598 479.133 229.267 479.802 229.267 480.627V491.293C229.267 492.118 228.598 492.787 227.773 492.787C226.949 492.787 226.28 492.118 226.28 491.293V480.627C226.28 479.802 226.949 479.133 227.773 479.133Z" fill="#3B434F"/>
<path d="M286.227 463.347C287.051 463.347 287.72 464.015 287.72 464.84V475.507C287.72 476.331 287.051 477 286.227 477C285.402 477 284.733 476.331 284.733 475.507V464.84C284.733 464.015 285.402 463.347 286.227 463.347Z" fill="#3B434F"/>
<path d="M211.765 373.646L184.742 379.851C184.742 379.851 151.649 387.347 173.666 409.651C195.682 431.954 252.307 435.893 252.307 435.893C252.307 435.893 237.335 428.802 230.973 418.827L228.84 382.987L211.765 373.646Z" fill="#F5F3EF"/>
<path fill-rule="evenodd" clip-rule="evenodd" d="M253.16 438.027C251.483 440.149 204.333 438.69 171.667 410.293C148.014 389.733 183.613 377.867 183.613 377.867L209.64 371.893L232.253 383.413L233.96 417.973C243.479 432.9 255.859 434.61 253.16 438.027ZM229.693 419.68L227.133 383.413L213.48 375.733L187.453 382.133C187.453 382.133 155.928 388.598 175.933 407.307C197.523 427.497 237.462 432.916 241.64 432.48C245.971 432.029 239.213 434.606 229.693 419.68Z" fill="#3B434F"/>
<path d="M303.059 374.651L330.099 380.875C330.099 380.875 363.212 388.394 341.182 410.764C319.152 433.134 262.494 437.085 262.494 437.085C262.494 437.085 277.474 429.973 283.84 419.967L285.975 384.02L303.059 374.651Z" fill="#F5F3EF"/>
<path fill-rule="evenodd" clip-rule="evenodd" d="M261.64 438.798C263.318 440.927 310.496 439.463 343.182 410.982C366.849 390.359 331.228 378.458 331.228 378.458L305.186 372.467L282.559 384.021L280.852 418.685C271.327 433.656 258.939 435.371 261.64 438.798ZM285.121 420.396L287.682 384.021L301.344 376.318L327.386 382.737C327.386 382.737 358.929 389.221 338.913 407.986C317.311 428.237 277.348 433.672 273.167 433.235C268.834 432.782 275.596 435.367 285.121 420.396Z" fill="#3B434F"/>
<path d="M259.215 116.467C312.293 116.467 354.187 166.068 352.825 225.665L351.377 289.006C350.094 345.152 308.845 389.533 259.215 389.533C209.584 389.533 168.336 345.152 167.052 289.006L165.605 225.665C164.242 166.068 206.137 116.467 259.215 116.467Z" fill="white"/>
<path fill-rule="evenodd" clip-rule="evenodd" d="M357.089 223.701L355.572 289.616C354.228 348.043 311.006 394.227 259.001 394.227C206.996 394.227 163.775 348.043 162.43 289.616L160.913 223.701C159.486 161.683 203.384 110.067 259.001 110.067C314.618 110.067 358.517 161.683 357.089 223.701ZM258.788 116.893C206.436 116.893 165.114 166.107 166.458 225.238L167.886 288.085C169.152 343.793 209.836 387.827 258.788 387.827C307.741 387.827 348.425 343.793 349.691 288.085L351.119 225.238C352.462 166.107 311.141 116.893 258.788 116.893Z" fill="#3B434F"/>
<path opacity="0.058824" fill-rule="evenodd" clip-rule="evenodd" d="M354.427 234.653L350.16 304.627C350.16 304.627 331.21 385.398 258 394.961V395.08C257.856 395.062 257.717 395.039 257.573 395.021C257.43 395.039 257.291 395.062 257.147 395.08V394.961C183.937 385.398 164.987 304.627 164.987 304.627L160.72 234.653C179.718 318.98 195.707 324.253 195.707 324.253C192.471 298.682 218.747 301.213 218.747 301.213C234.761 303.918 247.509 305.226 257.573 305.714C267.638 305.226 280.386 303.918 296.4 301.213C296.4 301.213 322.676 298.682 319.44 324.253C319.44 324.253 335.429 318.98 354.427 234.653ZM306.983 332.926C305.741 317.885 296.671 319.16 296.671 319.16C280.546 323.905 267.889 326.541 258 327.88V327.782C248.181 326.453 235.612 323.839 219.6 319.133C219.6 319.133 210.593 317.868 209.36 332.787C209.36 332.787 205.743 347.733 217.893 354.12L233.253 370.333C233.253 370.333 243.75 373.66 243.493 360.947C243.493 360.947 242.425 351.465 248.613 349.853H258V350.134H267.453C273.685 351.759 272.609 361.319 272.609 361.319C272.351 374.138 282.921 370.783 282.921 370.783L298.39 354.436C310.625 347.997 306.983 332.926 306.983 332.926Z" fill="#3B434F"/>
<path d="M305.08 327.326C297.325 334.06 279.808 340.467 259.427 340.467C239.045 340.467 221.529 334.06 213.773 327.326C213.773 327.326 212.98 325.143 214.144 323.978C215.33 322.793 217.187 323.051 217.187 323.051C224.934 329.789 239.038 335.347 259.427 335.347C279.816 335.347 293.92 329.789 301.667 323.051C301.667 323.051 303.562 322.347 304.482 323.267C306.255 325.041 305.08 327.326 305.08 327.326Z" fill="#3B434F"/>
<path d="M245.347 350.707H272.653V354.973H245.347V350.707Z" fill="#3B434F"/>
<path d="M160.807 233.313C160.795 233.314 159.76 232.487 157.804 231.871C156.826 231.564 155.611 231.311 154.226 231.248C153.88 231.233 153.524 231.229 153.16 231.24C152.796 231.25 152.423 231.274 152.045 231.315C151.287 231.396 150.505 231.541 149.718 231.767C146.567 232.673 143.353 234.875 141.465 239.419C140.517 241.691 139.892 244.55 139.727 248.126C139.685 249.02 139.673 249.959 139.691 250.945C139.709 251.931 139.758 252.963 139.84 254.045C140.003 256.209 140.298 258.568 140.738 261.14C140.728 261.137 140.328 268.91 143.106 277.841C145.719 286.573 151.992 297.299 163.573 300.364C162.241 278.185 162.2 255.59 160.807 233.313Z" fill="white"/>
<path d="M162.128 234.207C162.128 234.207 141.951 227.956 142.662 248.698C142.662 248.698 145.665 278.775 146.97 281.547C146.97 281.547 154.894 299.059 167.971 299.835C180.752 300.594 167.971 299.835 167.971 299.835L168.13 305.48C168.13 305.48 145.145 302.533 140.706 276.045L137.202 251.983C137.202 251.983 134.481 220.138 160.871 228.235C186.58 236.123 160.871 228.235 160.871 228.235L162.128 234.207Z" fill="#3B434F"/>
<path d="M155.468 275.995C155.468 275.995 154.339 276.848 153.369 276.848C152.399 276.848 151.284 275.995 151.284 275.995L149.202 255.012C149.202 255.012 152.074 244.679 164.265 250.139L164.554 256.139C164.554 256.139 153.858 252.346 154.079 257.069C154.292 261.616 155.468 275.995 155.468 275.995Z" fill="#3B434F"/>
<path d="M356.813 233.362C356.825 233.363 357.866 232.536 359.83 231.921C360.812 231.614 362.032 231.361 363.423 231.299C363.771 231.283 364.128 231.28 364.494 231.29C364.86 231.3 365.234 231.325 365.614 231.365C366.375 231.446 367.16 231.591 367.951 231.817C371.116 232.722 374.344 234.923 376.241 239.464C377.192 241.735 377.82 244.591 377.986 248.165C378.028 249.058 378.041 249.997 378.022 250.982C378.004 251.967 377.955 252.999 377.873 254.08C377.709 256.242 377.412 258.6 376.971 261.17C376.98 261.167 377.383 268.935 374.592 277.86C371.968 286.586 365.668 297.305 354.035 300.368C355.373 278.204 355.415 255.624 356.813 233.362Z" fill="white"/>
<path d="M355.483 234.256C355.483 234.256 375.747 228.008 375.034 248.737C375.034 248.737 372.017 278.793 370.707 281.564C370.707 281.564 362.748 299.064 349.614 299.839C336.777 300.597 349.614 299.839 349.614 299.839L349.455 305.48C349.455 305.48 372.54 302.535 376.999 276.065L380.518 252.019C380.518 252.019 383.25 220.196 356.745 228.287C330.923 236.17 356.745 228.287 356.745 228.287L355.483 234.256Z" fill="#3B434F"/>
<path d="M362.171 276.015C362.171 276.015 363.305 276.868 364.28 276.868C365.254 276.868 366.374 276.015 366.374 276.015L368.466 255.046C368.466 255.046 365.58 244.72 353.336 250.177L353.046 256.173C353.046 256.173 363.789 252.382 363.567 257.102C363.353 261.646 362.171 276.015 362.171 276.015Z" fill="#3B434F"/>
<path fill-rule="evenodd" clip-rule="evenodd" d="M266.893 274.333C267.391 274.333 267.889 274.333 268.387 274.333C271.474 278.526 272.73 284.97 274.36 290.547C274.865 292.275 274.375 295.298 273.933 296.52C272.316 300.996 267.236 300.915 263.053 302.92C261.93 303.458 261.095 304.388 259.64 304.627C258.692 303.791 257.547 303.627 257.08 302.28C255.928 300.693 257.413 299.702 258.573 299.08C260.68 297.95 267.181 296.837 267.96 294.813C268.923 293.718 268.283 290.423 267.96 289.267C267.133 286.305 266.737 283.832 265.613 281.16C264.867 279.385 263.557 277.514 264.333 275.4C264.977 275.124 266.367 274.81 266.893 274.333Z" fill="#3B434F"/>
<path d="M204.813 244.211H220.173C222.294 244.211 224.013 246.274 224.013 248.819C224.013 251.364 222.294 253.427 220.173 253.427H204.813C202.693 253.427 200.973 251.364 200.973 248.819C200.973 246.274 202.693 244.211 204.813 244.211Z" fill="#3B434F"/>
<path d="M298.68 243.187H314.04C316.161 243.187 317.88 245.25 317.88 247.795C317.88 250.34 316.161 252.403 314.04 252.403H298.68C296.559 252.403 294.84 250.34 294.84 247.795C294.84 245.25 296.559 243.187 298.68 243.187Z" fill="#3B434F"/>
<path opacity="0.121569" d="M211.64 269.64C219.887 269.64 226.573 270.113 226.573 279.453C226.573 289.087 219.887 289.267 211.64 289.267C203.393 289.267 196.707 287.512 196.707 279.453C196.707 270.04 203.393 269.64 211.64 269.64Z" fill="black"/>
<path opacity="0.121569" d="M310.627 269.64C318.874 269.64 325.56 270.113 325.56 279.453C325.56 289.087 318.874 289.267 310.627 289.267C302.379 289.267 295.693 287.512 295.693 279.453C295.693 270.04 302.379 269.64 310.627 269.64Z" fill="black"/>
<path fill-rule="evenodd" clip-rule="evenodd" d="M351.94 228.88C351.363 233.81 350.856 239.842 349.79 245.236C346.602 261.364 332.743 276.307 309.08 278.01C285.416 279.713 265.276 267.8 264.096 251.402C263.895 248.621 263.36 245.501 262.949 242.468C259.6 240.611 256.149 240.607 252.595 242.455C252.179 245.557 251.624 248.759 251.419 251.606C250.235 268.059 230.032 280.011 206.293 278.303C182.555 276.594 168.652 261.602 165.455 245.42C164.385 240.009 163.877 233.956 163.298 229.01L159.809 228.759L160.299 221.949L161.151 222.011L182.739 223.564L200.962 224.876L219.219 226.189L247.656 228.236C249.617 228.484 250.921 229.325 251.761 230.581C255.845 232.368 259.811 232.375 263.66 230.602C264.492 229.265 265.813 228.366 267.847 228.108L296.194 226.069L314.394 224.759L332.56 223.452L354.08 221.904L354.929 221.843L355.417 228.629L351.94 228.88ZM240.02 236.237L184.288 232.227C176.999 231.598 174.415 239.79 173.966 246.033C173.019 259.194 187.684 270.975 206.722 272.345C225.76 273.715 241.961 264.156 242.908 250.994C243.357 244.751 245.396 240.895 240.02 236.237ZM341.305 245.846C340.857 239.624 338.282 231.46 331.015 232.086L275.459 236.083C270.1 240.726 272.132 244.569 272.58 250.791C273.524 263.91 289.674 273.437 308.652 272.072C327.63 270.706 342.249 258.965 341.305 245.846Z" fill="#3B444F"/>
<path d="M163.751 229.533C163.751 229.533 167.043 178.137 198.761 155.293C198.761 155.293 244.557 186.447 316.598 155.293C316.598 155.293 348.463 169.807 353.316 229.533H355.026C355.026 229.533 364.15 161.12 340.507 133.96C340.507 133.96 334.684 113.16 303.79 98.12L292.689 104.947C292.689 104.947 285.231 95.82 265.365 84.4667C265.365 84.4667 250.672 91.0133 243.163 102.387L231.209 94.7067C231.209 94.7067 214.504 102.353 204.738 116.04L186.806 118.6L177.413 135.667C177.413 135.667 154.992 153.73 162.04 227.827L163.751 229.533Z" fill="#9EA0A4"/>
<path fill-rule="evenodd" clip-rule="evenodd" d="M358.44 229.533L350.329 229.107C345.476 169.38 316.598 158.707 316.598 158.707C244.557 189.86 198.761 158.28 198.761 158.28C171.058 181.913 166.738 229.96 166.738 229.96L159.48 227.827C152.432 153.73 174.853 134.387 174.853 134.387L185.099 115.613L203.885 113.053C213.651 99.3667 231.635 90.8667 231.635 90.8667L242.787 98.12C250.295 86.7467 265.827 81.0533 265.827 81.0533C285.693 92.4066 293.133 101.107 293.133 101.107L304.643 94.7067C335.537 109.747 343.921 133.533 343.921 133.533C367.563 160.693 358.44 229.533 358.44 229.533ZM338.36 135.24C338.36 135.24 334.694 116.573 303.8 101.533L292.28 108.36C292.28 108.36 284.84 99.2333 264.973 87.88C264.973 87.88 251.575 94.8533 244.067 106.227L231.267 98.12C231.267 98.12 215.86 105.34 206.093 119.027L189.027 121.587L180.067 137.8C180.067 137.8 161.456 152.014 163.427 209.48L163.853 209.053C163.853 209.053 169.774 173.332 198.761 151.453C198.761 151.453 245.837 183.46 317.878 152.307C317.878 152.307 344.493 164.823 353.72 209.48C353.72 209.48 359.197 163.549 338.36 135.24Z" fill="#3B434F"/>
<path opacity="0.2" fill-rule="evenodd" clip-rule="evenodd" d="M260.139 103.673C260.767 104.14 260.456 104.572 260.32 105.156C260.116 106.027 259.875 106.889 259.739 107.759C259.533 109.076 259.346 110.395 259.292 111.694C259.246 112.787 259.266 113.876 259.285 114.958C259.296 115.583 259.403 116.207 259.418 116.833C259.424 117.083 259.492 117.333 259.499 117.588C259.515 117.657 259.53 117.726 259.545 117.794C259.554 118.114 259.638 118.419 259.647 118.737C259.699 119.026 259.751 119.315 259.803 119.603C259.88 120.061 259.917 120.538 260.057 120.984C260.072 121.098 260.088 121.212 260.103 121.326C260.214 121.681 260.25 122.046 260.362 122.401C260.37 122.471 260.378 122.542 260.386 122.612C260.548 123.124 260.621 123.663 260.783 124.172C261.046 124.999 261.259 125.829 261.549 126.653C261.741 127.2 261.906 127.773 262.1 128.324C262.443 129.303 262.863 130.259 263.241 131.228C263.471 131.818 263.78 132.363 264.026 132.95C264.724 134.611 265.62 136.244 266.477 137.873C266.754 138.399 267.058 138.883 267.365 139.397C267.561 139.725 267.764 140.092 267.945 140.43C268.045 140.617 268.17 140.758 268.279 140.939C268.514 141.333 268.769 141.756 269.001 142.152C269.216 142.519 269.458 142.832 269.694 143.189C269.95 143.574 270.202 144.007 270.461 144.394C270.911 145.066 271.387 145.716 271.833 146.38C272.295 147.07 272.815 147.681 273.305 148.361C274.254 149.678 275.364 150.942 276.387 152.265C276.694 152.661 277.06 153.007 277.366 153.39C277.519 153.581 277.775 153.748 277.878 153.949C277.92 154.03 277.944 154.156 277.973 154.249C278.021 154.398 278.008 154.582 278.01 154.74C278.014 154.992 278.026 155.248 277.982 155.512C277.936 155.786 277.762 156.087 277.649 156.358C277.558 156.575 277.332 156.766 277.204 156.872C277.097 156.961 277.052 157.043 276.942 157.129C276.657 157.354 276.334 157.538 276.021 157.632C275.697 157.729 275.279 157.438 275.023 157.131C274.575 156.594 274.015 156.101 273.585 155.563C273.494 155.448 273.392 155.397 273.301 155.282C272.805 154.655 272.196 154.064 271.706 153.447C271.594 153.306 271.472 153.227 271.363 153.086C270.983 152.59 270.536 152.143 270.15 151.638C269.181 150.371 268.136 149.147 267.26 147.871C267.055 147.573 266.835 147.337 266.635 147.038C265.216 144.918 263.792 142.834 262.655 140.674C262.356 140.106 262.025 139.589 261.745 139.018C260.95 137.399 260.209 135.78 259.528 134.146C259.439 133.932 259.374 133.692 259.292 133.474C258.919 132.494 258.582 131.525 258.247 130.542C257.91 129.551 257.718 128.515 257.402 127.521C257.336 127.311 257.315 127.084 257.248 126.869C257.239 126.791 257.229 126.714 257.22 126.636C257.147 126.403 257.139 126.155 257.068 125.928C256.896 125.382 256.843 124.791 256.749 124.23C256.661 123.701 256.54 123.159 256.525 122.619C256.505 122.521 256.484 122.423 256.464 122.324C256.454 121.973 256.366 121.627 256.357 121.281C256.342 120.677 256.246 120.075 256.235 119.472C256.221 118.722 256.192 117.97 256.196 117.22C256.201 116.469 256.263 115.735 256.306 114.978C256.424 112.926 256.799 110.864 257.295 108.739C257.474 107.969 257.763 107.215 258.005 106.443C258.173 105.911 258.436 105.398 258.623 104.872C258.672 104.735 258.748 104.654 258.801 104.516C258.913 104.219 259.061 103.854 259.335 103.659C259.458 103.572 259.74 103.526 259.884 103.568C259.985 103.598 260.049 103.676 260.139 103.673ZM240.116 118.381C240.57 118.71 240.535 119.192 240.546 119.597C240.557 120.018 240.678 120.437 240.689 120.861C240.738 121.154 240.788 121.447 240.837 121.74C240.843 121.977 240.903 122.202 240.942 122.434C240.982 122.672 240.999 122.912 241.072 123.146C241.116 123.41 241.16 123.673 241.205 123.937C241.277 124.169 241.286 124.417 241.357 124.646C241.579 125.351 241.663 126.1 241.888 126.804C242.127 127.551 242.301 128.324 242.56 129.064C242.9 130.034 243.232 131.01 243.601 131.974C243.79 132.467 244.015 132.928 244.216 133.419C244.37 133.795 244.516 134.204 244.691 134.571C245.419 136.096 246.17 137.619 246.97 139.139C247.603 140.343 248.359 141.491 249.053 142.678C249.267 143.044 249.509 143.359 249.747 143.715C250.282 144.519 250.852 145.356 251.401 146.173C251.919 146.946 252.542 147.667 253.088 148.423C253.177 148.547 253.28 148.614 253.366 148.738C253.643 149.137 254.005 149.522 254.309 149.915C254.462 150.112 254.656 150.249 254.795 150.455C255.099 150.906 255.289 151.747 255.144 152.271C254.893 153.18 254.016 153.791 253.348 154.025C253.147 154.096 252.833 154.224 252.614 154.158C252.269 154.055 252.049 153.748 251.848 153.495C251.587 153.167 251.284 152.929 251.032 152.603C250.566 151.998 250.018 151.458 249.552 150.849C248.577 149.573 247.578 148.339 246.712 147.04C244.707 144.034 243.042 141 241.745 137.882C241.206 136.588 240.772 135.253 240.338 133.937C240.184 133.469 240.099 132.967 239.951 132.5C239.747 131.859 239.657 131.198 239.457 130.561C239.446 130.476 239.436 130.391 239.425 130.306C239.393 130.164 239.345 130.026 239.321 129.883C239.304 129.762 239.287 129.64 239.271 129.519C239.195 129.278 239.178 129.03 239.137 128.784C239.097 128.546 239.035 128.313 239.028 128.069C238.998 127.912 238.968 127.755 238.938 127.598C238.92 126.958 238.766 126.331 238.753 125.686C238.75 125.534 238.702 125.373 238.698 125.221C238.683 124.605 238.622 123.987 238.625 123.371C238.628 122.669 238.622 121.955 238.666 121.252C238.683 120.976 238.731 120.715 238.744 120.438C238.757 120.134 238.811 119.842 238.851 119.528C238.875 119.342 238.875 119.116 238.931 118.928C238.988 118.736 239.184 118.427 239.365 118.348C239.488 118.294 239.726 118.24 239.861 118.277C239.962 118.305 240.025 118.384 240.116 118.381ZM224.816 121.57C225.326 121.945 225.185 122.417 225.181 122.876C225.176 123.614 225.25 124.351 225.269 125.086C225.284 125.671 225.434 126.253 225.45 126.84C225.485 127.026 225.52 127.212 225.555 127.398C225.564 127.723 225.634 128.142 225.731 128.453C225.74 128.53 225.75 128.608 225.759 128.685C225.789 128.865 225.827 129.042 225.882 129.218C225.895 129.318 225.908 129.417 225.921 129.517C226.052 129.935 226.093 130.384 226.226 130.798C226.544 131.791 226.798 132.805 227.146 133.796C227.9 135.944 228.934 138.025 230.034 140.115C230.393 140.798 230.841 141.433 231.204 142.112C231.359 142.401 231.562 142.636 231.734 142.916C232.203 143.681 232.748 144.445 233.258 145.204C233.964 146.254 234.825 147.211 235.576 148.252C235.839 148.617 236.171 148.934 236.426 149.286C236.654 149.598 236.948 149.833 237.191 150.141C237.673 150.752 238.28 151.334 238.791 151.942C239.086 152.294 239.437 152.578 239.723 152.917C240.042 153.297 240.443 153.6 240.757 153.965C240.836 154.035 240.916 154.105 240.995 154.174C241.315 154.554 241.763 154.889 242.093 155.268C242.234 155.43 242.401 155.506 242.544 155.668C243.007 156.195 243.661 156.622 244.137 157.154C244.273 157.306 244.454 157.409 244.575 157.545C244.626 157.581 244.678 157.618 244.729 157.655C244.893 157.838 245.149 158.005 245.316 158.19C245.371 158.229 245.427 158.269 245.482 158.309C245.754 158.611 246.174 158.85 246.448 159.154C246.521 159.206 246.594 159.258 246.666 159.31C247.017 159.697 247.572 159.974 247.927 160.365C248.087 160.486 248.246 160.606 248.406 160.726C248.484 160.812 248.652 160.886 248.743 160.987C248.985 161.253 249.393 161.462 249.656 161.716C249.811 161.866 250.055 161.97 250.186 162.114C250.301 162.241 250.511 162.326 250.613 162.438C250.946 162.677 251.28 162.915 251.613 163.153C252.403 163.717 253.19 164.246 253.954 164.787C254.316 165.043 254.765 165.244 254.988 165.564C255.113 165.745 255.164 166.004 255.23 166.201C255.379 166.645 255.44 167.172 255.315 167.655C255.277 167.802 255.2 167.902 255.145 168.056C255.057 168.303 254.909 168.686 254.646 168.918C254.474 169.068 254.296 169.271 254.106 169.402C253.813 169.604 253.494 169.496 253.137 169.348C253.022 169.273 252.908 169.198 252.794 169.123C252.246 168.888 251.735 168.384 251.185 168.147C251.079 168.101 250.968 167.987 250.881 167.949C250.698 167.825 250.515 167.701 250.333 167.577C250.132 167.49 249.951 167.279 249.724 167.181C249.534 167.099 249.34 166.945 249.154 166.812C249.086 166.764 249.017 166.715 248.949 166.666C248.766 166.586 248.55 166.419 248.379 166.297C248.131 166.12 247.883 165.943 247.635 165.766C247.368 165.65 247.073 165.384 246.817 165.201C246.606 165.05 246.319 164.887 246.159 164.712C246.014 164.608 245.869 164.504 245.723 164.4C245.42 164.183 245.12 163.969 244.856 163.742C244.711 163.638 244.565 163.534 244.42 163.43C244.21 163.198 243.845 163.022 243.636 162.792C243.537 162.722 243.439 162.652 243.341 162.581C243.188 162.413 242.925 162.266 242.774 162.099C242.689 162.038 242.603 161.977 242.518 161.916C242.402 161.788 242.195 161.654 242.079 161.526C242.011 161.477 241.943 161.428 241.874 161.379C241.474 160.935 240.887 160.599 240.496 160.162C240.374 160.062 240.251 159.962 240.129 159.862C239.623 159.293 238.94 158.836 238.452 158.276C238.319 158.124 238.17 158.055 238.039 157.904C237.588 157.38 237.013 156.913 236.578 156.396C236.507 156.311 236.437 156.291 236.366 156.206C236.161 155.96 235.897 155.706 235.698 155.458C235.606 155.342 235.506 155.294 235.414 155.178C234.727 154.311 233.92 153.537 233.254 152.668C232.076 151.127 230.847 149.624 229.915 148.038C229.704 147.679 229.453 147.378 229.248 147.02C228.885 146.385 228.49 145.76 228.149 145.113C227.616 144.099 227.117 143.077 226.632 142.056C226.29 141.338 226.02 140.565 225.74 139.832C225.51 139.231 225.29 138.647 225.079 138.045C224.871 137.453 224.722 136.837 224.528 136.239C224.331 135.631 224.25 134.986 224.058 134.375C223.985 134.143 223.992 133.85 223.92 133.619C223.741 133.049 223.698 132.429 223.6 131.843C223.181 129.341 223.137 126.779 223.321 124.178C223.363 123.577 223.488 123.008 223.587 122.395C223.632 122.115 223.724 121.76 224.033 121.553C224.132 121.487 224.446 121.435 224.561 121.466C224.655 121.491 224.729 121.572 224.816 121.57Z" fill="#3B434F"/>
</svg>
